<svg id="Ebene_1" data-name="Ebene 1" xmlns="http://www.w3.org/2000/svg" viewBox="0 0 172.11 79.72"><defs><style>.cls-1{fill:#cd002f;}.cls-2{fill:#dddedf;}</style></defs><title>beromuenster-logo</title><path class="cls-1" d="M3.18,58.26h9.71c3.59,0,5.94,1.62,5.94,5A4.4,4.4,0,0,1,16,67.47v.06c2.44.53,3.75,2.43,3.75,5.15,0,3.13-2.18,5.57-7.36,5.57H3.18Zm3.5,8.37h5.71a2.68,2.68,0,0,0,2.94-2.77c0-2-1-2.74-2.94-2.74H6.68Zm0,8.76h6.18c2.13,0,3.36-1.14,3.36-3.16S15,69.15,12.86,69.15H6.68Z"/><path class="cls-1" d="M25,71.84c0,2.27,1.23,4.28,3.89,4.28a3.35,3.35,0,0,0,3.53-2.41h3a6.34,6.34,0,0,1-6.55,4.93c-4.54,0-7.08-3.16-7.08-7.61,0-4.12,2.68-7.65,7-7.65,4.56,0,7.36,4.12,6.83,8.46Zm7.45-2.1a3.73,3.73,0,1,0-7.45,0Z"/><path class="cls-1" d="M38.12,63.77h3v2.8h.06a4.69,4.69,0,0,1,4.23-3.19,7,7,0,0,1,1.2.09v3.08a10.6,10.6,0,0,0-1.37-.14c-2.18,0-3.92,1.76-3.92,5v6.89H38.12Z"/><path class="cls-1" d="M46.86,71c0-4.43,2.66-7.62,7.31-7.62s7.31,3.19,7.31,7.62-2.66,7.64-7.31,7.64S46.86,75.45,46.86,71Zm11.42,0c0-2.49-1.26-5.1-4.11-5.1s-4.12,2.61-4.12,5.1,1.26,5.12,4.12,5.12S58.28,73.52,58.28,71Z"/><path class="cls-1" d="M64.19,63.77h3v2h.08a4.84,4.84,0,0,1,4.45-2.41,4.1,4.1,0,0,1,4.06,2.41,5.25,5.25,0,0,1,4.54-2.41c3.05,0,4.84,1.35,4.84,4.87v10H82V69.79c0-2.29-.14-3.89-2.63-3.89-2.16,0-3.08,1.43-3.08,3.87v8.48H73.1V69c0-2-.62-3.06-2.55-3.06-1.65,0-3.17,1.35-3.17,3.75v8.6H64.19Z"/><path class="cls-1" d="M101.32,78.25H98.18v-2h-.05A4.86,4.86,0,0,1,94,78.64c-3.78,0-5.4-1.9-5.4-5.68V63.77H91.8v8.88c0,2.55,1,3.47,2.77,3.47,2.66,0,3.56-1.71,3.56-4v-8.4h3.19ZM91,61.48v-3h3.19v3Zm8-3v3H95.8v-3Z"/><path class="cls-1" d="M104.74,63.77h3V65.9l0,.06a5.2,5.2,0,0,1,4.51-2.58c3.14,0,5.13,1.68,5.13,4.93v9.94h-3.19v-9.1c-.06-2.27-1-3.25-2.83-3.25a3.53,3.53,0,0,0-3.5,3.81v8.54h-3.19Z"/><path class="cls-1" d="M123.27,73.6c.17,1.85,1.57,2.52,3.28,2.52,1.2,0,3.3-.25,3.22-1.9s-2.41-1.88-4.73-2.41-4.65-1.34-4.65-4.28c0-3.17,3.41-4.15,6-4.15,3,0,5.65,1.24,6,4.45h-3.33c-.28-1.51-1.54-1.93-2.94-1.93-.92,0-2.63.23-2.63,1.49,0,1.57,2.35,1.79,4.7,2.32S133,71.08,133,73.94c0,3.44-3.47,4.7-6.47,4.7-3.64,0-6.36-1.62-6.41-5Z"/><path class="cls-1" d="M134,63.77h2.4V59.43h3.2v4.34h2.88v2.38H139.6v7.73c0,1.32.11,2,1.53,2a5.6,5.6,0,0,0,1.35-.11v2.46c-.7.06-1.37.17-2.07.17-3.33,0-3.95-1.29-4-3.7V66.15H134Z"/><path class="cls-1" d="M147.32,71.84c0,2.27,1.23,4.28,3.89,4.28a3.35,3.35,0,0,0,3.53-2.41h3a6.34,6.34,0,0,1-6.56,4.93c-4.53,0-7.08-3.16-7.08-7.61,0-4.12,2.69-7.65,7-7.65,4.56,0,7.36,4.12,6.83,8.46Zm7.45-2.1a3.73,3.73,0,1,0-7.45,0Z"/><path class="cls-1" d="M160.45,63.77h3v2.8h.06a4.67,4.67,0,0,1,4.22-3.19,7.18,7.18,0,0,1,1.21.09v3.08a10.78,10.78,0,0,0-1.37-.14c-2.19,0-3.92,1.76-3.92,5v6.89h-3.2Z"/><path class="cls-1" d="M66.17,39.64a.68.68,0,0,1-.69-.47,2.94,2.94,0,0,1,.61-2.82l9.66-10.26-.2,7s-5.27,0-8,3.18C65.69,38.48,66.17,39.64,66.17,39.64Z"/><path class="cls-1" d="M76.17,18.73s-.7.07-.9-.9A2.53,2.53,0,0,1,76,15.65L92.66,1.47l15.21,12.64-.39.68s-9-3.38-17.13-2.74C75.79,13.19,76.17,18.73,76.17,18.73Z"/><path class="cls-2" d="M65.33,59.94h.77s-.45-13.43,3-19.28c2.77-4.67,6.29-4.84,6.29-4.84s-.26,9.3-.34,12.43S74.93,60,74.93,60h1s-.57-20,4.46-29.89c10.28-20.14,26.7-14.65,26.7-14.65l.4-.69s-11.81-5.14-24.32-1.5c-7.62,2.22-7.07,5.61-7.07,5.61L75.55,33a10.48,10.48,0,0,0-7.82,3,5,5,0,0,0-1.67,3.9Z"/><path class="cls-2" d="M105.56,44s-.18,6.49-.23,8.67-.09,8.2-.09,8.2h.68s-.4-14,3.11-20.88c7.18-14,18.7-10.17,18.7-10.17l.24-.45s-8.35-3.55-17-1.13c-5.34,1.5-4.94,3.92-4.94,3.92l-.37,9.9"/><path class="cls-1" d="M106.09,32.19s-.49.05-.63-.63A1.77,1.77,0,0,1,106,30l11.6-9.9L128.22,29l-.27.48s-6.25-2.36-12-1.91C105.82,28.33,106.09,32.19,106.09,32.19Z"/></svg>