<svg xmlns="http://www.w3.org/2000/svg" width="162" height="74"><path d="M59 10.49c-.22.14-.46.27-.7.4h-.01v15.17c0 2.52-.7 4.04-1.13 5.06a9.54 9.54 0 0 1-8.55 5.42 7.82 7.82 0 0 1-6.95-3.85 7.65 7.65 0 0 1-.74-1.93c-.54-2-.44-4.1.21-6.08a7.97 7.97 0 0 1 1.47-2.92c1.01-1.44 2.37-2.57 4.31-3.78-.24.73-.46 1.41-.59 2.2a9.4 9.4 0 0 0-.13 1.38 13.07 13.07 0 0 0 .7 4.79c-.29-.17-.51-.33-.7-.49a16.94 16.94 0 0 1-2.1-1.96 7.75 7.75 0 0 0-.79 5.86l.05.18.13.41c.2.59.48 1.13.86 1.6a4.69 4.69 0 0 0 2.08 1.52c.25.12.52.2.8.28a6.07 6.07 0 0 0 2.64-.02l.05-.01c.78-.2 1.56-.55 2.25-.97a7.78 7.78 0 0 0 2.39-2.48c.17-.32.33-.66.45-1.02.4-1.12.63-2.53.64-3.75V10.9l-.06-.03A3.53 3.53 0 1 1 59 10.5zM34.48 41.93a6 6 0 0 1-.7.4h-.01V57.5c0 2.53-.7 4.04-1.13 5.06a9.53 9.53 0 0 1-8.55 5.42 7.8 7.8 0 0 1-6.94-3.85 7.66 7.66 0 0 1-.75-1.92c-.54-2.01-.44-4.11.22-6.08a7.98 7.98 0 0 1 1.46-2.93c1.01-1.44 2.38-2.56 4.32-3.78-.25.73-.47 1.41-.6 2.2a9.22 9.22 0 0 0-.13 1.38 13.04 13.04 0 0 0 .69 4.78 5.4 5.4 0 0 1-.7-.48 16.95 16.95 0 0 1-1.95-1.8l-.14-.16a7.74 7.74 0 0 0-.79 5.87l.05.17a5.98 5.98 0 0 0 .99 2.02 4.68 4.68 0 0 0 2.08 1.51c.25.12.52.21.8.28.82.19 1.7.19 2.55 0l.1-.01.04-.02c.78-.2 1.57-.55 2.25-.96a7.8 7.8 0 0 0 2.39-2.49c.17-.32.33-.66.45-1.02.4-1.12.63-2.52.64-3.74v-14.6l-.06-.04c-.22-.1-.42-.22-.62-.34a3.53 3.53 0 1 1 4.04-.04zM6.06 33.61a7.64 7.64 0 0 1-1.36-2.84c-.53-2.02-.43-4.12.22-6.09a8 8 0 0 1 1.46-2.92c1.02-1.44 2.38-2.57 4.33-3.78-.25.73-.47 1.41-.6 2.2a9.09 9.09 0 0 0-.13 1.38 13.87 13.87 0 0 0 .7 4.78c-.29-.16-.51-.32-.7-.48a17.2 17.2 0 0 1-2.1-1.96 7.74 7.74 0 0 0-.79 5.86l.05.18.13.41c.2.59.48 1.13.86 1.6a4.7 4.7 0 0 0 2.08 1.52c.25.12.52.2.8.28.82.18 1.69.18 2.55 0 .03 0 .06 0 .09-.02l.05-.01c.78-.2 1.56-.55 2.25-.97a7.8 7.8 0 0 0 2.39-2.48c.17-.32.33-.66.45-1.02.4-1.12.63-2.53.64-3.75V10.9l-.06-.03a3.52 3.52 0 1 1 2.71.01v15.18c0 2.52-.7 4.04-1.13 5.06a9.54 9.54 0 0 1-8.55 5.42 7.81 7.81 0 0 1-6.34-2.94zM0 .46V43.6C.35 60.44 14.75 74 32.46 74c17.72 0 32.11-13.56 32.45-30.4V.46H0zm20.74 8.88c.93 0 1.68-.76 1.68-1.69 0-.93-.75-1.69-1.68-1.69-.93 0-1.68.76-1.68 1.7 0 .92.75 1.68 1.68 1.68zm11.7 28.06a1.69 1.69 0 0 0 0 3.38c.92 0 1.68-.75 1.68-1.69 0-.93-.76-1.69-1.68-1.69zM56.95 5.96a1.69 1.69 0 0 0 0 3.38c.93 0 1.68-.76 1.68-1.69 0-.93-.75-1.69-1.68-1.69zm31.97 8.34c-.85.29-2.45.68-4.05.68-2.22 0-3.82-.56-4.93-1.62a6.08 6.08 0 0 1-1.72-4.43c.02-4.03 2.96-6.33 6.93-6.33 1.57 0 2.78.3 3.37.57l-.58 2.22a6.34 6.34 0 0 0-2.8-.52c-2.29 0-4.03 1.3-4.03 3.92 0 2.52 1.58 3.98 3.83 3.98a4.2 4.2 0 0 0 1.33-.16v-2.56H84.4V7.91h4.52v6.39m7.74-4.84c0-.67-.3-1.79-1.53-1.79-1.17 0-1.64 1.07-1.71 1.79h3.24zm-3.22 1.87c.09 1.13 1.2 1.67 2.48 1.67.94 0 1.69-.12 2.43-.38l.36 1.86c-.9.38-2 .56-3.19.56-2.98 0-4.7-1.73-4.7-4.48 0-2.24 1.4-4.7 4.45-4.7 2.84 0 3.92 2.21 3.92 4.39 0 .47-.05.88-.09 1.08h-5.66zm7.64-2.47a61 61 0 0 0-.07-2.8h2.32l.11 1.2h.06a3.04 3.04 0 0 1 2.66-1.4c1.15 0 2.03.59 2.41 1.5h.04a3.35 3.35 0 0 1 2.83-1.51c1.69 0 2.96 1.2 2.96 3.82v5.19h-2.66v-4.77c0-1.28-.41-2.02-1.3-2.02-.64 0-1.08.43-1.27.95-.06.2-.1.47-.1.69v5.15h-2.66V9.93c0-1.1-.4-1.86-1.27-1.86-.7 0-1.12.54-1.28.97-.1.22-.11.47-.11.7v5.12h-2.67v-6m21.06.6c0-.67-.28-1.79-1.53-1.79-1.17 0-1.64 1.07-1.7 1.79h3.23zm-3.22 1.87c.1 1.13 1.2 1.67 2.49 1.67.93 0 1.69-.12 2.43-.38l.36 1.86c-.9.38-2 .56-3.19.56-2.99 0-4.7-1.73-4.7-4.48 0-2.24 1.4-4.7 4.45-4.7 2.84 0 3.92 2.21 3.92 4.39 0 .47-.05.88-.09 1.08h-5.67zm7.65 3.53h2.74v-8.8h-2.74v8.8zm1.35-9.89c-.86 0-1.42-.6-1.42-1.36 0-.78.58-1.37 1.46-1.37s1.42.6 1.44 1.37c0 .75-.56 1.36-1.46 1.36h-.02zm3.84 3.89a61 61 0 0 0-.08-2.8h2.38l.13 1.22h.05a3.16 3.16 0 0 1 2.72-1.42c1.8 0 3.15 1.2 3.15 3.8v5.2h-2.74V9.98c0-1.14-.4-1.91-1.38-1.91-.76 0-1.21.52-1.4 1.03-.08.18-.1.43-.1.68v5.08h-2.73v-6m16.59.94c0-.16 0-.34-.03-.5a1.63 1.63 0 0 0-1.6-1.34c-1.27 0-1.9 1.12-1.9 2.5 0 1.48.74 2.42 1.88 2.42.79 0 1.44-.54 1.6-1.32.03-.18.05-.4.05-.61V9.8zm2.74-7.74v10.17c0 .99.03 2.03.07 2.63h-2.43l-.1-1.28h-.06a3.08 3.08 0 0 1-2.75 1.47c-2.1 0-3.77-1.78-3.77-4.51-.02-2.96 1.84-4.68 3.94-4.68 1.1 0 1.93.4 2.33.99h.03v-4.8h2.74zm7.77 7.4c0-.67-.29-1.79-1.53-1.79-1.17 0-1.63 1.07-1.7 1.79h3.23zm-3.22 1.87c.1 1.13 1.2 1.67 2.49 1.67.93 0 1.69-.12 2.43-.38l.36 1.86c-.9.38-2 .56-3.2.56-2.98 0-4.69-1.73-4.69-4.48 0-2.24 1.4-4.7 4.45-4.7 2.84 0 3.92 2.21 3.92 4.39 0 .47-.05.88-.09 1.08h-5.67zM87.27 29.11h-4.46V32h4.98v2.25h-7.72V22.1h7.47v2.25h-4.73v2.52h4.46v2.24m14.45.49c-.05-1.46-.1-3.2-.1-4.99h-.04a77.4 77.4 0 0 1-1.37 4.7l-1.47 4.73h-2.15l-1.3-4.7c-.39-1.42-.79-3.13-1.1-4.73h-.03c-.05 1.64-.12 3.51-.2 5.02l-.23 4.6h-2.54l.78-12.12h3.65l1.19 4.05c.4 1.4.75 2.91 1.02 4.34h.08c.32-1.4.73-3.01 1.15-4.36l1.28-4.03h3.6l.64 12.13h-2.66l-.2-4.64m17.03 0c-.05-1.46-.1-3.2-.1-4.99h-.04a75.3 75.3 0 0 1-1.37 4.7l-1.48 4.73h-2.14l-1.3-4.7c-.4-1.42-.79-3.13-1.1-4.73h-.03a352.4 352.4 0 0 1-.2 5.02l-.23 4.6h-2.54l.78-12.12h3.65l1.19 4.05c.4 1.4.75 2.91 1.02 4.34h.07c.33-1.4.74-3.01 1.16-4.36l1.28-4.03h3.6l.64 12.13h-2.66l-.2-4.64m13.99-.49h-4.47V32h4.99v2.25h-7.72V22.1h7.47v2.25h-4.74v2.52h4.47v2.24m4.19 5.13V22.1h3.2l2.53 4.44a37.97 37.97 0 0 1 1.97 4.16h.04c-.16-1.6-.22-3.24-.22-5.07V22.1h2.53v12.13h-2.89l-2.59-4.68a42.95 42.95 0 0 1-2.1-4.28h-.08c.1 1.61.13 3.32.13 5.3v3.66h-2.52" fill="#1A1919" fill-rule="evenodd"/></svg>