<svg height="88.3" viewBox="0 0 217.3 88.3" width="217.3" xmlns="http://www.w3.org/2000/svg"><g fill="#006e60"><path d="m2 29.5v56.81h9.84v-10.77l6.53-7.09 11.48 17.86h11.42l-16.22-25.1 14.64-15.81h-12.35l-15.51 16.6v-32.5z"/><path d="m67.84 55.39c-6.68 0-10.17 4.78-10.17 11.16v19.87h-9.56v-33.95l8.89-8.06h.66v8.28c1.83-4.56 5.85-6.25 10.47-6.25a19.57 19.57 0 0 1 3 .23v9.11a16.23 16.23 0 0 0 -3.26-.39"/><path d="m88.84 86.42h-9.64v-39.42h9.63zm.23-44.91h-10.17v-9.78h10.17z"/><path d="m115.79 87.41a17.28 17.28 0 0 1 -12.45-4.85 19 19 0 0 1 -4.51-6.9 24.71 24.71 0 0 1 -1.56-8.89 26.29 26.29 0 0 1 1.43-8.77 18.75 18.75 0 0 1 4.3-7 17.08 17.08 0 0 1 12.59-5c6.19 0 11.31 2.58 14.42 7.28a19.49 19.49 0 0 1 2.85 6.64 27.7 27.7 0 0 1 .56 7.09s-.07 1.83-.07 2.66h-26.44a10.42 10.42 0 0 0 2.89 7.73 8.31 8.31 0 0 0 5.84 2.43c2.75 0 4.41-.55 5.77-1.9a7.22 7.22 0 0 0 1.89-3.33h9.1a15.71 15.71 0 0 1 -3.33 7.28 14.89 14.89 0 0 1 -6 4.25 19.79 19.79 0 0 1 -7.28 1.28zm-.3-33.84a8.13 8.13 0 0 0 -6.61 3 9.68 9.68 0 0 0 -2 6.15h17.07a10.36 10.36 0 0 0 -2.43-6.91 8 8 0 0 0 -6-2.28z"/><path d="m166 86.42v-24.2c0-4.62-1.52-7.43-6.52-7.43-3.34 0-5.54 2.12-6.84 5-1.36 3.11-1.29 7.2-1.29 10.54v16.09h-9.49v-39.42h8v5.75c2.73-5.14 7.73-6.74 12.29-6.74 8.43 0 13.36 5.92 13.36 14.11v26.3z"/><path d="m206.62 58.6a5.84 5.84 0 0 0 -1.62-3.6 7.3 7.3 0 0 0 -5.16-1.83 9.87 9.87 0 0 0 -4.1.61 4.53 4.53 0 0 0 -3 4.17c0 2.81 2.43 3.64 4.55 4 3.57.45 4.55.53 8.42 1.14 6.22 1 10.77 4.93 10.77 11.15a11.7 11.7 0 0 1 -3.41 8.65c-3.18 3.18-8.12 4.55-13.5 4.55-5 0-9.49-1.44-12.75-4.55a13.07 13.07 0 0 1 -4.18-9.18h8.88a6.36 6.36 0 0 0 2.12 4.63c1.53 1.21 3.27 1.74 6 1.74 3.19 0 8-.68 8-5 0-2.27-1.51-3.79-3.94-4.17-3.49-.53-7.43-.76-10.93-1.52a11 11 0 0 1 -9-10.54 11.25 11.25 0 0 1 4-8.88c2.89-2.5 7.06-3.94 12-3.94 4.71 0 9.48 1.51 12.37 4.63a13.45 13.45 0 0 1 1.31 1.62z"/></g></svg>
