<svg id="SVGLogo" data-name="RBS" xmlns="http://www.w3.org/2000/svg" 
viewBox="0 0 147.4 59.53">
  <defs>
    <style>
      .cls-1 {
        fill: none;
      }

      .cls-2 {
        fill: #b4b6b8;
      }

      .cls-3 {
        fill: #093;
      }

      .cls-4 {
        fill: #e2001a;
      }

      .cls-5 {
        fill: #0076bd;
      }
    </style>
  </defs>
 	<title>RBS</title>
	<g>
	  <path class="cls-2" d="M145.66,41.57c0-21-29.39-13.92-29.39-24,0-3.27,3.11-5.75,8.32-5.75a33,33,0,0,1,14.7,3.58l4.35-9.25A44.83,44.83,0,0,0,124,1.6c-12.6,0-20,7.23-20,16.17,0,20.61,29.39,13.76,29.39,24,0,3.33-2.75,5.67-8,5.89V57.89C138.91,57.64,145.66,50.58,145.66,41.57Z"/>
	  <path class="cls-3" d="M124.59,47.64c-5.44,0-11.2-2-16-4.9L103,51.92a43.48,43.48,0,0,0,21.7,6h.75V47.62Z"/>
	</g>
	<g>
	  <path class="cls-1" d="M26.23,11.95H14.17V28h12c6.22,0,9.25-3.5,9.25-8.09C35.4,15.21,32.29,11.95,26.23,11.95Z"/>
	  <path class="cls-2" d="M37.27,34.81a15.68,15.68,0,0,0,10-15c0-8.71-5.37-17.26-20.92-17.26H2.35V36.67H26.62L35,57H47.69ZM26.15,28h-12V11.95H26.23c6.07,0,9.18,3.27,9.18,8C35.4,24.54,32.37,28,26.15,28Z"/>
	  <polygon class="cls-4" points="2.35 36.67 2.35 56.97 14.17 56.97 14.17 36.67 14.17 36.67 2.35 36.67"/>
	</g>
	<g>
	  <path class="cls-1" d="M77,11.95H66.74v13.3H77c5.52,0,8.32-2.72,8.32-6.77C85.32,14.67,82.52,11.95,77,11.95Z"/>
	  <path class="cls-1" d="M78.79,47.56c5.29,0,8.63-2.41,8.63-7.15,0-4.59-3.42-6.92-8.63-6.92H66.74V47.56Z"/>
	  <path class="cls-2" d="M89,28.74c5.05-2.18,8.16-5.91,8.16-11.59,0-8.48-6.06-14.62-19.21-14.62H55.07V33.49H78.79c5.21,0,8.63,2.33,8.63,6.92,0,4.74-3.34,7.15-8.63,7.15H66.74V57H79c12.29,0,20.14-5.52,20.14-15.55C99.16,34.73,95,30.69,89,28.74Zm-12-3.5H66.74V11.95H77c5.52,0,8.32,2.72,8.32,6.53C85.32,22.52,82.52,25.24,77,25.24Z"/>
	  <polygon class="cls-5" points="66.74 33.49 55.07 33.49 55.07 56.97 66.74 56.97 66.74 47.56 66.74 33.49"/>
	</g>

</svg>
