<svg xmlns="http://www.w3.org/2000/svg" width="200" height="172" viewBox="0 0 200 172">
  <g fill="none" fill-rule="evenodd">
    <g fill="#D02139" transform="translate(0 21.267)">
      <polygon points=".115 129.634 32.708 129.634 32.708 96.752 .115 96.752"/>
      <polygon points=".115 81.683 32.708 81.683 32.708 48.801 .115 48.801"/>
      <polygon points=".115 33.731 32.708 33.731 32.708 .849 .115 .849"/>
    </g>
    <polygon fill="#767575" points="50.05 150.902 199.96 150.902 199.96 .193 50.05 .193"/>
    <path fill="#FFFFFE" d="M80.9843149 71.1367885L80.9843149 61.1113979 82.2331881 61.1113979 82.2331881 62.6312547C82.5524505 61.9263901 82.8451033 61.4591096 83.1111553 61.2293992 83.3772074 60.9996889 83.6761201 60.8848354 84.0079026 60.8848354 84.4711461 60.8848354 84.9437726 61.0673423 85.4257963 61.4323615L84.9562951 63.0088589C84.6119925 62.7634149 84.277085 62.6406948 83.9515625 62.6406948 83.6573403 62.6406948 83.3881623 62.7445349 83.1440204 62.9522182 82.8998786 63.1599016 82.7277299 63.4493952 82.6275691 63.8207078 82.4522878 64.4689315 82.3646484 65.1580523 82.3646484 65.8880906L82.3646484 71.1367885 80.9843149 71.1367885zM92.0205619 67.9082729L93.4478456 68.1253953C93.2099638 69.1952791 92.779592 70.0024 92.1567172 70.546782 91.5338425 71.0911641 90.7623033 71.363351 89.8420763 71.363351 88.6839676 71.363351 87.7465395 70.9212439 87.0297641 70.0370164 86.3129887 69.1527889 85.9546064 67.8768142 85.9546064 66.2090542 85.9546064 64.4783597 86.3161187 63.1583317 87.0391541 62.2489305 87.7621896 61.3395292 88.6777078 60.8848354 89.7857362 60.8848354 90.8436842 60.8848354 91.7263376 61.3316625 92.433723 62.2253302 93.1411083 63.1189979 93.4947957 64.4122792 93.4947957 66.105213L93.4854056 66.558338 87.38189 66.558338C87.4382304 67.6848628 87.6980185 68.5344636 88.161262 69.1071661 88.6245055 69.6798687 89.1879013 69.9662156 89.8514663 69.9662156 90.8906342 69.9662156 91.6136588 69.2802416 92.0205619 67.9082729zM87.4664002 65.1612026L92.0299519 65.1612026C91.9673514 64.2927087 91.7826828 63.6444947 91.4759405 63.2165411 91.0314771 62.5934912 90.4649514 62.2819708 89.7763462 62.2819708 89.1566015 62.2819708 88.6276354 62.5415711 88.1894321 63.0607794 87.7512288 63.5799878 87.5102206 64.2801218 87.4664002 65.1612026zM95.1222386 71.9675177L96.474402 72.2129604C96.5370025 72.7479023 96.7248011 73.1459561 97.0378035 73.4071336 97.3508059 73.6683111 97.7858726 73.7988979 98.3430168 73.7988979 98.9502414 73.7988979 99.4338228 73.6525778 99.7937755 73.3599331 100.153728 73.0672884 100.399431 72.6314746 100.530892 72.0524786 100.612273 71.7000463 100.652963 70.9574322 100.652963 69.8246141 100.35248 70.258861 100.014443 70.5861147 99.6388401 70.8063849 99.2632373 71.0266551 98.8469504 71.1367885 98.3899669 71.1367885 97.4133996 71.1367885 96.6027356 70.7214281 95.9579507 69.8906948 95.2192651 68.9340928 94.8499279 67.6533981 94.8499279 66.0485724 94.8499279 64.9723951 95.0126867 64.0315408 95.3382091 63.2259813 95.6637316 62.4204217 96.0909734 61.8288477 96.6199474 61.4512417 97.1489214 61.0736356 97.742052 60.8848354 98.399357 60.8848354 98.8813806 60.8848354 99.3211423 61.0044089 99.7186553 61.2435594 100.116168 61.4827099 100.468291 61.8414302 100.775033 62.3197313L100.775033 61.1113979 102.052076 61.1113979 102.052076 69.7774135C102.052076 71.3193049 101.926877 72.4190661 101.676475 73.0767299 101.426073 73.7343938 101.016047 74.2535944 100.446382 74.6343471 99.8767179 75.0150999 99.191253 75.2054734 98.3899669 75.2054734 97.3320189 75.2054734 96.518225 74.9191265 95.9485607 74.346424 95.3788964 73.7737214 95.1034584 72.9807606 95.1222386 71.9675177zM96.2772115 65.9447313C96.2772115 67.260059 96.4931799 68.2197933 96.9251232 68.823963 97.3570665 69.4281327 97.8860325 69.730213 98.5120373 69.730213 99.138042 69.730213 99.670138 69.434426 100.108341 68.8428432 100.546545 68.2512604 100.765643 67.3104061 100.765643 66.0202521 100.765643 64.7615652 100.540285 63.8254309 100.089561 63.2118211 99.6388379 62.5982113 99.091092 62.2914109 98.4463071 62.2914109 97.8703827 62.2914109 97.3648915 62.5982113 96.9298182 63.2118211 96.4947449 63.8254309 96.2772115 64.7363919 96.2772115 65.9447313zM104.346211 59.2516974L104.346211 57.2975958 105.726544 57.2975958 105.726544 59.2516974 104.346211 59.2516974zM104.346211 71.1367885L104.346211 61.1113979 105.726544 61.1113979 105.726544 71.1367885 104.346211 71.1367885zM107.523008 66.1240932C107.523008 64.3933988 107.88452 63.0875308 108.607556 62.20645 109.330591 61.3253692 110.246109 60.8848354 111.354138 60.8848354 112.443386 60.8848354 113.354209 61.3253692 114.086635 62.20645 114.81906 63.0875308 115.185267 64.3587854 115.185267 66.0202521 115.185267 67.8201743 114.82532 69.1606557 114.105415 70.0417365 113.385509 70.9228173 112.468426 71.363351 111.354138 71.363351 110.258629 71.363351 109.346241 70.9212439 108.616946 70.0370164 107.88765 69.1527889 107.523008 67.8484942 107.523008 66.1240932zM108.940901 66.1240932C108.940901 67.4205407 109.17565 68.384995 109.645153 69.0174852 110.114657 69.6499753 110.696832 69.9662156 111.391698 69.9662156 112.042743 69.9662156 112.601443 69.6468286 113.067817 69.0080451 113.534191 68.3692615 113.767374 67.4079538 113.767374 66.1240932 113.767374 64.8339392 113.532626 63.8726315 113.063122 63.2401414 112.593618 62.6076513 112.011443 62.2914109 111.316578 62.2914109 110.659273 62.2914109 110.099007 62.6092246 109.635763 63.2448615 109.17252 63.8804983 108.940901 64.8402326 108.940901 66.1240932zM117.000511 71.1367885L117.000511 61.1113979 118.249384 61.1113979 118.249384 62.5368536C118.549866 61.9830314 118.917639 61.5692443 119.352712 61.2954799 119.787785 61.0217156 120.287016 60.8848354 120.850421 60.8848354 121.288624 60.8848354 121.693956 60.9713688 122.066429 61.1444383 122.438902 61.3175077 122.739379 61.544068 122.967871 61.8241258 123.196363 62.1041836 123.366947 62.467624 123.479627 62.9144578 123.592308 63.3612916 123.648648 64.0472657 123.648648 64.9724005L123.648648 71.1367885 122.258924 71.1367885 122.258924 65.0384813C122.258924 64.3021494 122.196325 63.7640689 122.071124 63.4242234 121.945923 63.084378 121.750299 62.821631 121.484247 62.6359747 121.218195 62.4503184 120.909893 62.3574917 120.55933 62.3574917 119.895765 62.3574917 119.366799 62.6060786 118.972416 63.1032599 118.578033 63.6004412 118.380844 64.4531888 118.380844 65.6615281L118.380844 71.1367885 117.000511 71.1367885zM131.295096 69.9001349C130.831853 70.3847293 130.349836 70.749743 129.849032 70.995187 129.348229 71.2406309 128.828653 71.363351 128.290288 71.363351 127.438922 71.363351 126.759717 71.1053241 126.252653 70.5892625 125.745589 70.0732009 125.492061 69.3777868 125.492061 68.5029995 125.492061 67.9240035 125.611 67.4110963 125.848882 66.9642625 126.086764 66.5174287 126.412282 66.1681483 126.825445 65.9164109 127.238608 65.6646736 127.864603 65.47902 128.70345 65.3594448 129.830258 65.1958155 130.656572 65.000722 131.182416 64.7741583L131.191806 64.3399135C131.191806 63.6539292 131.069737 63.1724887 130.825595 62.8955776 130.481292 62.4927978 129.952326 62.2914109 129.238681 62.2914109 128.593896 62.2914109 128.11188 62.4251444 127.792617 62.6926154 127.473355 62.9600863 127.238607 63.4619802 127.088365 64.198312L125.726812 63.9717495C125.920873 62.8955722 126.313685 62.1120514 126.90526 61.6211635 127.496834 61.1302757 128.343493 60.8848354 129.445261 60.8848354 130.302888 60.8848354 130.975833 61.0468889 131.464117 61.3710008 131.9524 61.6951126 132.260703 62.0963131 132.389034 62.5746141 132.517365 63.0529151 132.581529 63.7514758 132.581529 64.6703172L132.581529 66.9359422C132.581529 68.5218876 132.611264 69.5209553 132.670735 69.9331753 132.730205 70.3453952 132.847579 70.7465956 133.022861 71.1367885L131.576797 71.1367885C131.432816 70.7906497 131.338916 70.3784359 131.295096 69.9001349zM131.182416 66.105213C130.675352 66.3569504 129.921028 66.5709239 128.91942 66.7471401 128.337236 66.8478351 127.930339 66.9626885 127.698717 67.0917039 127.467095 67.2207193 127.287122 67.4032262 127.158791 67.6392299 127.03046 67.8752337 126.966295 68.1474207 126.966295 68.455799 126.966295 68.9341 127.113404 69.3164204 127.407626 69.6027716 127.701848 69.8891229 128.108745 70.0322964 128.628329 70.0322964 129.122873 70.0322964 129.572025 69.9032829 129.975798 69.6452521 130.379571 69.3872213 130.681614 69.0426609 130.881935 68.6115607 131.082257 68.1804604 131.182416 67.5526998 131.182416 66.7282599L131.182416 66.105213zM134.885054 71.1367885L134.885054 57.2975958 136.265388 57.2975958 136.265388 71.1367885 134.885054 71.1367885zM144.212317 67.9082729L145.6396 68.1253953C145.401719 69.1952791 144.971347 70.0024 144.348472 70.546782 143.725597 71.0911641 142.954058 71.363351 142.033831 71.363351 140.875722 71.363351 139.938294 70.9212439 139.221519 70.0370164 138.504744 69.1527889 138.146361 67.8768142 138.146361 66.2090542 138.146361 64.4783597 138.507873 63.1583317 139.230909 62.2489305 139.953944 61.3395292 140.869463 60.8848354 141.977491 60.8848354 143.035439 60.8848354 143.918092 61.3316625 144.625478 62.2253302 145.332863 63.1189979 145.68655 64.4122792 145.68655 66.105213L145.67716 66.558338 139.573645 66.558338C139.629985 67.6848628 139.889773 68.5344636 140.353017 69.1071661 140.81626 69.6798687 141.379656 69.9662156 142.043221 69.9662156 143.082389 69.9662156 143.805414 69.2802416 144.212317 67.9082729zM139.658155 65.1612026L144.221707 65.1612026C144.159106 64.2927087 143.974438 63.6444947 143.667695 63.2165411 143.223232 62.5934912 142.656706 62.2819708 141.968101 62.2819708 141.348356 62.2819708 140.81939 62.5415711 140.381187 63.0607794 139.942984 63.5799878 139.701975 64.2801218 139.658155 65.1612026zM147.051073 68.1442755L148.422016 67.8799526C148.503397 68.5848172 148.725625 69.1087378 149.088708 69.4517299 149.451791 69.7947221 149.933807 69.9662156 150.534772 69.9662156 151.135736 69.9662156 151.600538 69.8167488 151.92919 69.5178107 152.257843 69.2188726 152.422166 68.8396988 152.422166 68.3802781 152.422166 67.9837918 152.281318 67.6754181 151.999615 67.4551479 151.805554 67.3041055 151.336057 67.1153053 150.591112 66.8887417 149.514384 66.5551897 148.794489 66.2719894 148.431406 66.0391323 148.068324 65.8062752 147.786626 65.4947549 147.586304 65.104562 147.385983 64.7143691 147.285823 64.2706886 147.285823 63.7735073 147.285823 62.9176002 147.558131 62.2221862 148.102755 61.6872443 148.64738 61.1523024 149.401704 60.8848354 150.365751 60.8848354 150.972976 60.8848354 151.506637 60.9949689 151.96675 61.2152391 152.426864 61.4355093 152.778986 61.7312962 153.023128 62.1026089 153.26727 62.4739215 153.436289 63.0057087 153.530189 63.6979865L152.178026 63.924549C152.052825 62.8294914 151.461259 62.2819708 150.403311 62.2819708 149.802347 62.2819708 149.35476 62.4031176 149.060538 62.6454148 148.766316 62.8877121 148.619207 63.197659 148.619207 63.5752651 148.619207 63.9465777 148.760056 64.239218 149.041758 64.4531948 149.210779 64.5790635 149.711575 64.7804504 150.544162 65.0573615 151.68975 65.4286741 152.431555 65.7228877 152.769597 65.9400112 153.10764 66.1571347 153.370558 66.4529217 153.558359 66.827381 153.746161 67.2018403 153.84006 67.6470941 153.84006 68.1631557 153.84006 69.1197577 153.538017 69.8938385 152.933923 70.4854214 152.329828 71.0770042 151.505079 71.3727911 150.459651 71.3727911 148.500257 71.3727911 147.364075 70.29663 147.051073 68.1442755zM80.4668329 95.1297573L80.4668329 75.7548875 83.5035667 75.7548875 83.5035667 82.7330125C83.9680622 82.0810127 84.4785614 81.5920202 85.0350796 81.2660203 85.5915978 80.9400204 86.1897364 80.7770229 86.8295132 80.7770229 88.1791794 80.7770229 89.3206819 81.3893649 90.254055 82.6140672 91.187428 83.8387695 91.6541076 85.644958 91.6541076 88.032687 91.6541076 90.4116051 91.1764731 92.242023 90.2211899 93.5239956 89.2659067 94.8059681 88.144123 95.4469448 86.8558053 95.4469448 86.1985003 95.4469448 85.5499691 95.2442992 84.9101923 94.8390021 84.2704155 94.4337049 83.7270515 93.8433896 83.2800841 93.0680385L83.2800841 95.1297573 80.4668329 95.1297573zM83.4772746 87.8080125C83.4772746 89.0150932 83.5912058 89.9358088 83.8190715 90.570187 84.0469372 91.2045652 84.3712028 91.6869497 84.791878 92.0173549 85.2125532 92.3477602 85.6551319 92.5129604 86.1196274 92.5129604 86.7856964 92.5129604 87.3553522 92.1627361 87.8286118 91.4622768 88.3018714 90.7618176 88.5384976 89.6538751 88.5384976 88.1384161 88.5384976 86.5436599 88.2996804 85.391664 87.8220388 84.682394 87.3443972 83.973124 86.7374947 83.6184943 86.0013131 83.6184943 85.3001878 83.6184943 84.7042402 83.9621106 84.2134525 84.6493536 83.7226648 85.3365967 83.4772746 86.3894724 83.4772746 87.8080125zM96.5515415 85.3762417L93.8040204 84.768299C94.137055 83.3497589 94.6869919 82.3299232 95.4538477 81.7087612 96.2207035 81.0875992 97.3227683 80.7770229 98.7600751 80.7770229 100.039629 80.7770229 101.016808 80.9576418 101.691641 81.3188849 102.366474 81.680128 102.84849 82.1713232 103.137704 82.7924852 103.426919 83.4136471 103.571523 84.5436163 103.571523 86.1824266L103.545231 90.5173224C103.545231 91.7332139 103.593433 92.6385108 103.689838 93.2332404 103.786242 93.8279699 103.965903 94.4601359 104.228825 95.1297573L101.231529 95.1297573 100.837148 93.5966844C100.320069 94.2134409 99.7657497 94.6760014 99.1741752 94.9843797 98.5826007 95.292758 97.9537884 95.4469448 97.2877194 95.4469448 96.1746829 95.4469448 95.2632337 95.0702884 94.5533444 94.3169643 93.843455 93.5636402 93.4885156 92.5614259 93.4885156 91.3102911 93.4885156 90.5173184 93.6331205 89.8256804 93.9223347 89.2353562 94.2115489 88.6450321 94.6190719 88.173661 95.1449159 87.8212286 95.6707598 87.4687963 96.5120976 87.1560173 97.6689543 86.8828823 99.0712049 86.5568824 100.048384 86.2529141 100.60052 85.9709682 100.60052 85.1956171 100.545745 84.6868006 100.436194 84.4445034 100.326644 84.2022062 100.125073 84.003966 99.8314769 83.8497768 99.5378806 83.6955877 99.1237847 83.6184943 98.5891767 83.6184943 98.0458046 83.6184943 97.6185628 83.7418437 97.3074384 83.9885464 96.996314 84.235249 96.7443509 84.6978095 96.5515415 85.3762417zM100.60052 88.3895229C100.214901 88.5481175 99.6145714 88.7331417 98.7995132 88.944601 97.8617581 89.1913037 97.2482827 89.4644346 96.9590685 89.7640021 96.6698543 90.0635696 96.5252494 90.4512393 96.5252494 90.9270229 96.5252494 91.4644822 96.6851912 91.9160293 97.0050796 92.2816779 97.324968 92.6473264 97.7259181 92.8301479 98.2079417 92.8301479 98.637381 92.8301479 99.0624318 92.6825691 99.483107 92.387407 99.9037822 92.092245 100.195183 91.7420206 100.357318 91.3367234 100.519453 90.9314263 100.60052 90.1957348 100.60052 89.1296271L100.60052 88.3895229zM114.279504 95.1297573L114.279504 93.0283901C113.858829 93.7861196 113.306701 94.3786375 112.623104 94.8059617 111.939507 95.2332859 111.225246 95.4469448 110.4803 95.4469448 109.726591 95.4469448 109.051768 95.2487046 108.455811 94.8522182 107.859855 94.4557319 107.415085 93.8918486 107.121489 93.1605516 106.827893 92.4292545 106.681097 91.3675681 106.681097 89.9754604L106.681097 81.0942104 109.717831 81.0942104 109.717831 87.5436896C109.717831 89.3851484 109.763841 90.5547657 109.855864 91.0525763 109.947887 91.550387 110.151648 91.935854 110.467154 92.2089891 110.782661 92.4821241 111.163892 92.6186896 111.610859 92.6186896 112.119175 92.6186896 112.588046 92.4402734 113.017485 92.0834357 113.446924 91.726598 113.729561 91.2684428 113.865404 90.7089565 114.001247 90.1494702 114.069168 88.9181783 114.069168 87.0150437L114.069168 81.0942104 117.092755 81.0942104 117.092755 95.1297573 114.279504 95.1297573zM122.700075 85.3762417L119.952554 84.768299C120.285589 83.3497589 120.835526 82.3299232 121.602381 81.7087612 122.369237 81.0875992 123.471302 80.7770229 124.908609 80.7770229 126.188162 80.7770229 127.165341 80.9576418 127.840174 81.3188849 128.515007 81.680128 128.997024 82.1713232 129.286238 82.7924852 129.575452 83.4136471 129.720057 84.5436163 129.720057 86.1824266L129.693765 90.5173224C129.693765 91.7332139 129.741967 92.6385108 129.838371 93.2332404 129.934776 93.8279699 130.114437 94.4601359 130.377359 95.1297573L127.380063 95.1297573 126.985682 93.5966844C126.468602 94.2134409 125.914283 94.6760014 125.322709 94.9843797 124.731134 95.292758 124.102322 95.4469448 123.436253 95.4469448 122.323217 95.4469448 121.411767 95.0702884 120.701878 94.3169643 119.991989 93.5636402 119.637049 92.5614259 119.637049 91.3102911 119.637049 90.5173184 119.781654 89.8256804 120.070868 89.2353562 120.360083 88.6450321 120.767606 88.173661 121.29345 87.8212286 121.819293 87.4687963 122.660631 87.1560173 123.817488 86.8828823 125.219739 86.5568824 126.196917 86.2529141 126.749053 85.9709682 126.749053 85.1956171 126.694279 84.6868006 126.584728 84.4445034 126.475177 84.2022062 126.273607 84.003966 125.980011 83.8497768 125.686414 83.6955877 125.272318 83.6184943 124.73771 83.6184943 124.194338 83.6184943 123.767096 83.7418437 123.455972 83.9885464 123.144848 84.235249 122.892885 84.6978095 122.700075 85.3762417zM126.749053 88.3895229C126.363435 88.5481175 125.763105 88.7331417 124.948047 88.944601 124.010292 89.1913037 123.396816 89.4644346 123.107602 89.7640021 122.818388 90.0635696 122.673783 90.4512393 122.673783 90.9270229 122.673783 91.4644822 122.833725 91.9160293 123.153613 92.2816779 123.473502 92.6473264 123.874452 92.8301479 124.356475 92.8301479 124.785915 92.8301479 125.210965 92.6825691 125.631641 92.387407 126.052316 92.092245 126.343717 91.7420206 126.505852 91.3367234 126.667987 90.9314263 126.749053 90.1957348 126.749053 89.1296271L126.749053 88.3895229zM132.671878 81.0942104L135.458837 81.0942104 135.458837 83.0105516C135.958389 82.2616329 136.506135 81.702155 137.102091 81.332101 137.698048 80.9620471 138.342197 80.7770229 139.034558 80.7770229 139.77074 80.7770229 140.408316 80.9620471 140.947306 81.332101 141.486296 81.702155 141.926684 82.2616329 142.268483 83.0105516 142.776798 82.2616329 143.322353 81.702155 143.905164 81.332101 144.487974 80.9620471 145.108023 80.7770229 145.765328 80.7770229 146.545329 80.7770229 147.217961 80.9642498 147.783244 81.3387091 148.348526 81.7131685 148.777959 82.248417 149.071555 82.9444708 149.365151 83.6405247 149.511947 84.7110218 149.511947 86.1559943L149.511947 95.1297573 146.475213 95.1297573 146.475213 87.1075568C146.475213 85.7066383 146.352518 84.7749093 146.107124 84.3123419 145.861731 83.8497745 145.449826 83.6184943 144.871397 83.6184943 144.196564 83.6184943 143.6532 83.9422866 143.241289 84.589881 142.829378 85.2374754 142.623425 86.50401 142.623425 88.3895229L142.623425 95.1297573 139.586692 95.1297573 139.586692 87.4379604C139.586692 85.9136906 139.503434 84.9313003 139.336917 84.4907599 139.117815 83.9092466 138.675237 83.6184943 138.009168 83.6184943 137.5622 83.6184943 137.150295 83.7682758 136.773441 84.0678432 136.396586 84.3674107 136.124904 84.8057418 135.958386 85.3828497 135.791869 85.9599577 135.708612 86.93574 135.708612 88.310226L135.708612 95.1297573 132.671878 95.1297573 132.671878 81.0942104zM157.95881 81.0942104L157.95881 84.0546271 155.894883 84.0546271 155.894883 89.7111375C155.894883 90.9358398 155.925557 91.6450992 155.986905 91.838937 156.109602 92.1913693 156.359374 92.3675828 156.736229 92.3675828 157.016679 92.3675828 157.41982 92.2486387 157.945664 92.0107469L158.208585 94.8918667C157.507459 95.2619206 156.714323 95.4469448 155.829153 95.4469448 155.057915 95.4469448 154.440057 95.2619206 153.975562 94.8918667 153.511066 94.5218127 153.199947 93.9887668 153.042194 93.292713 152.919497 92.7816862 152.858149 91.7420264 152.858149 90.1737026L152.858149 84.0546271 151.464669 84.0546271 151.464669 81.0942104 152.858149 81.0942104 152.858149 78.3056036 155.894883 76.1381557 155.894883 81.0942104 157.95881 81.0942104zM80.0265174 112.524093C80.0265174 110.793399 80.3880297 109.487531 81.1110652 108.60645 81.8341007 107.725369 82.7496189 107.284835 83.8576472 107.284835 84.9468955 107.284835 85.8577187 107.725369 86.5901442 108.60645 87.3225698 109.487531 87.688777 110.758785 87.688777 112.420252 87.688777 114.220174 87.3288297 115.560656 86.6089243 116.441736 85.8890188 117.322817 84.9719357 117.763351 83.8576472 117.763351 82.762139 117.763351 81.8497507 117.321244 81.1204552 116.437016 80.3911597 115.552789 80.0265174 114.248494 80.0265174 112.524093zM81.4444111 112.524093C81.4444111 113.820541 81.6791593 114.784995 82.1486629 115.417485 82.6181664 116.049975 83.2003421 116.366216 83.8952073 116.366216 84.5462523 116.366216 85.1049531 116.046829 85.5713266 115.408045 86.0377001 114.769261 86.2708834 113.807954 86.2708834 112.524093 86.2708834 111.233939 86.0361352 110.272632 85.5666316 109.640141 85.0971281 109.007651 84.5149524 108.691411 83.8200871 108.691411 83.1627822 108.691411 82.6025163 109.009225 82.1392728 109.644861 81.6760293 110.280498 81.4444111 111.240233 81.4444111 112.524093zM90.7810637 117.536789L89.4946304 117.536789 89.4946304 103.697596 90.8749639 103.697596 90.8749639 108.63477C91.1691862 108.181643 91.5025287 107.843376 91.8750015 107.619959 92.2474743 107.396542 92.6621962 107.284835 93.1191797 107.284835 93.7577045 107.284835 94.3383152 107.476782 94.8610291 107.860682 95.3837431 108.244581 95.801595 108.826715 96.1145974 109.607101 96.4275997 110.387487 96.5840986 111.334635 96.5840986 112.448572 96.5840986 114.1478 96.2304112 115.458388 95.5230258 116.380376 94.8156405 117.302364 93.9893266 117.763351 93.0440595 117.763351 92.5682959 117.763351 92.1410541 117.639058 91.7623212 117.390467 91.3835884 117.141876 91.0565058 116.772143 90.7810637 116.281255L90.7810637 117.536789zM90.7622837 112.448572C90.7622837 113.486989 90.856183 114.264217 91.0439844 114.780278 91.2317858 115.29634 91.4978338 115.689673 91.8421364 115.960291 92.186439 116.230909 92.5682962 116.366216 92.9877194 116.366216 93.5573837 116.366216 94.0628749 116.043682 94.5042082 115.398605 94.9455416 114.753528 95.1662049 113.789074 95.1662049 112.505213 95.1662049 111.189885 94.9533665 110.223858 94.5276833 109.607101 94.1020001 108.990344 93.579294 108.681971 92.9595493 108.681971 92.389885 108.681971 91.8812638 109.004505 91.4336704 109.649582 90.986077 110.294659 90.7622837 111.227646 90.7622837 112.448572zM104.061526 114.308273L105.48881 114.525395C105.250928 115.595279 104.820556 116.4024 104.197682 116.946782 103.574807 117.491164 102.803268 117.763351 101.883041 117.763351 100.724932 117.763351 99.7875041 117.321244 99.0707287 116.437016 98.3539532 115.552789 97.9955709 114.276814 97.9955709 112.609054 97.9955709 110.87836 98.3570832 109.558332 99.0801187 108.64893 99.8031542 107.739529 100.718672 107.284835 101.826701 107.284835 102.884649 107.284835 103.767302 107.731663 104.474688 108.62533 105.182073 109.518998 105.53576 110.812279 105.53576 112.505213L105.52637 112.958338 99.4228546 112.958338C99.479195 114.084863 99.7389831 114.934464 100.202227 115.507166 100.66547 116.079869 101.228866 116.366216 101.892431 116.366216 102.931599 116.366216 103.654623 115.680242 104.061526 114.308273zM99.5073648 111.561203L104.070916 111.561203C104.008316 110.692709 103.823647 110.044495 103.516905 109.616541 103.072442 108.993491 102.505916 108.681971 101.817311 108.681971 101.197566 108.681971 100.6686 108.941571 100.230397 109.460779 99.7921933 109.979988 99.5511851 110.680122 99.5073648 111.561203zM107.426124 117.536789L107.426124 107.511398 108.674997 107.511398 108.674997 109.031255C108.994259 108.32639 109.286912 107.85911 109.552964 107.629399 109.819016 107.399689 110.117929 107.284835 110.449712 107.284835 110.912955 107.284835 111.385582 107.467342 111.867605 107.832361L111.398104 109.408859C111.053801 109.163415 110.718894 109.040695 110.393371 109.040695 110.099149 109.040695 109.829971 109.144535 109.585829 109.352218 109.341687 109.559902 109.169539 109.849395 109.069378 110.220708 108.894097 110.868932 108.806457 111.558052 108.806457 112.288091L108.806457 117.536789 107.426124 117.536789zM112.340075 114.544276L113.711019 114.279953C113.792399 114.984817 114.014628 115.508738 114.37771 115.85173 114.740793 116.194722 115.222809 116.366216 115.823774 116.366216 116.424739 116.366216 116.88954 116.216749 117.218193 115.917811 117.546845 115.618873 117.711169 115.239699 117.711169 114.780278 117.711169 114.383792 117.57032 114.075418 117.288618 113.855148 117.094556 113.704105 116.62506 113.515305 115.880114 113.288742 114.803386 112.95519 114.083491 112.671989 113.720409 112.439132 113.357326 112.206275 113.075628 111.894755 112.875306 111.504562 112.674985 111.114369 112.574826 110.670689 112.574826 110.173507 112.574826 109.3176 112.847134 108.622186 113.391758 108.087244 113.936382 107.552302 114.690706 107.284835 115.654754 107.284835 116.261978 107.284835 116.795639 107.394969 117.255753 107.615239 117.715866 107.835509 118.067989 108.131296 118.31213 108.502609 118.556272 108.873921 118.725291 109.405709 118.819192 110.097986L117.467028 110.324549C117.341827 109.229491 116.750262 108.681971 115.692314 108.681971 115.091349 108.681971 114.643762 108.803118 114.34954 109.045415 114.055318 109.287712 113.908209 109.597659 113.908209 109.975265 113.908209 110.346578 114.049058 110.639218 114.33076 110.853195 114.499781 110.979063 115.000578 111.18045 115.833164 111.457361 116.978753 111.828674 117.720557 112.122888 118.0586 112.340011 118.396642 112.557135 118.65956 112.852922 118.847362 113.227381 119.035163 113.60184 119.129063 114.047094 119.129063 114.563156 119.129063 115.519758 118.82702 116.293839 118.222925 116.885421 117.618831 117.477004 116.794082 117.772791 115.748654 117.772791 113.789259 117.772791 112.653077 116.69663 112.340075 114.544276zM126.54076 114.308273L127.968044 114.525395C127.730162 115.595279 127.29979 116.4024 126.676916 116.946782 126.054041 117.491164 125.282502 117.763351 124.362275 117.763351 123.204166 117.763351 122.266738 117.321244 121.549962 116.437016 120.833187 115.552789 120.474805 114.276814 120.474805 112.609054 120.474805 110.87836 120.836317 109.558332 121.559352 108.64893 122.282388 107.739529 123.197906 107.284835 124.305934 107.284835 125.363882 107.284835 126.246536 107.731663 126.953921 108.62533 127.661307 109.518998 128.014994 110.812279 128.014994 112.505213L128.005604 112.958338 121.902088 112.958338C121.958429 114.084863 122.218217 114.934464 122.68146 115.507166 123.144704 116.079869 123.7081 116.366216 124.371665 116.366216 125.410833 116.366216 126.133857 115.680242 126.54076 114.308273zM121.986599 111.561203L126.55015 111.561203C126.48755 110.692709 126.302881 110.044495 125.996139 109.616541 125.551675 108.993491 124.98515 108.681971 124.296544 108.681971 123.6768 108.681971 123.147834 108.941571 122.70963 109.460779 122.271427 109.979988 122.030419 110.680122 121.986599 111.561203zM135.501812 114.308273L136.929096 114.525395C136.691214 115.595279 136.260842 116.4024 135.637967 116.946782 135.015093 117.491164 134.243553 117.763351 133.323326 117.763351 132.165218 117.763351 131.22779 117.321244 130.511014 116.437016 129.794239 115.552789 129.435856 114.276814 129.435856 112.609054 129.435856 110.87836 129.797369 109.558332 130.520404 108.64893 131.24344 107.739529 132.158958 107.284835 133.266986 107.284835 134.324934 107.284835 135.207588 107.731663 135.914973 108.62533 136.622358 109.518998 136.976046 110.812279 136.976046 112.505213L136.966656 112.958338 130.86314 112.958338C130.91948 114.084863 131.179269 114.934464 131.642512 115.507166 132.105756 116.079869 132.669151 116.366216 133.332716 116.366216 134.371884 116.366216 135.094909 115.680242 135.501812 114.308273zM130.94765 111.561203L135.511202 111.561203C135.448601 110.692709 135.263933 110.044495 134.957191 109.616541 134.512727 108.993491 133.946201 108.681971 133.257596 108.681971 132.637851 108.681971 132.108885 108.941571 131.670682 109.460779 131.232479 109.979988 130.991471 110.680122 130.94765 111.561203zM141.955727 116.016932L142.143528 117.517908C141.761665 117.618603 141.417367 117.66895 141.110625 117.66895 140.628601 117.66895 140.240484 117.572977 139.946262 117.381027 139.65204 117.189077 139.450156 116.92633 139.340605 116.592778 139.231055 116.259226 139.17628 115.595279 139.17628 114.600916L139.17628 108.833012 138.162157 108.833012 138.162157 107.511398 139.17628 107.511398 139.17628 105.028651 140.556614 104.009119 140.556614 107.511398 141.955727 107.511398 141.955727 108.833012 140.556614 108.833012 140.556614 114.695317C140.556614 115.236553 140.597303 115.585833 140.678684 115.743169 140.797625 115.969732 141.019853 116.083012 141.345376 116.083012 141.501877 116.083012 141.705325 116.060986 141.955727 116.016932zM148.775853 116.300135C148.31261 116.784729 147.830593 117.149743 147.32979 117.395187 146.828986 117.640631 146.30941 117.763351 145.771046 117.763351 144.919679 117.763351 144.240474 117.505324 143.73341 116.989262 143.226347 116.473201 142.972819 115.777787 142.972819 114.902999 142.972819 114.324004 143.091758 113.811096 143.329639 113.364262 143.567521 112.917429 143.893039 112.568148 144.306202 112.316411 144.719365 112.064674 145.34536 111.87902 146.184207 111.759445 147.311015 111.595816 148.137329 111.400722 148.663173 111.174158L148.672563 110.739914C148.672563 110.053929 148.550494 109.572489 148.306352 109.295578 147.96205 108.892798 147.433083 108.691411 146.719438 108.691411 146.074653 108.691411 145.592637 108.825144 145.273374 109.092615 144.954112 109.360086 144.719364 109.86198 144.569123 110.598312L143.207569 110.371749C143.401631 109.295572 143.794443 108.512051 144.386017 108.021164 144.977592 107.530276 145.82425 107.284835 146.926019 107.284835 147.783645 107.284835 148.45659 107.446889 148.944874 107.771001 149.433157 108.095113 149.74146 108.496313 149.869791 108.974614 149.998122 109.452915 150.062287 110.151476 150.062287 111.070317L150.062287 113.335942C150.062287 114.921888 150.092021 115.920955 150.151492 116.333175 150.210962 116.745395 150.328336 117.146596 150.503618 117.536789L149.057554 117.536789C148.913573 117.19065 148.819674 116.778436 148.775853 116.300135zM148.663173 112.505213C148.156109 112.75695 147.401785 112.970924 146.400177 113.14714 145.817993 113.247835 145.411096 113.362689 145.179474 113.491704 144.947852 113.620719 144.767879 113.803226 144.639548 114.03923 144.511217 114.275234 144.447052 114.547421 144.447052 114.855799 144.447052 115.3341 144.594161 115.71642 144.888383 116.002772 145.182606 116.289123 145.589503 116.432296 146.109087 116.432296 146.60363 116.432296 147.052782 116.303283 147.456555 116.045252 147.860328 115.787221 148.162371 115.442661 148.362692 115.011561 148.563014 114.58046 148.663173 113.9527 148.663173 113.12826L148.663173 112.505213zM152.365811 117.536789L152.365811 103.697596 153.746145 103.697596 153.746145 117.536789 152.365811 117.536789z"/>
    <path fill="#D02139" d="M49.994378,171.088735 L49.994378,161.4013 L51.5127449,161.4013 L51.5127449,164.890363 C51.7449926,164.564363 52.0002422,164.319867 52.2785014,164.156867 C52.5567605,163.993867 52.8558297,163.912368 53.1757181,163.912368 C53.8505513,163.912368 54.4213025,164.218539 54.887989,164.83089 C55.3546756,165.443241 55.5880153,166.346336 55.5880153,167.5402 C55.5880153,168.729659 55.3491981,169.644868 54.8715565,170.285854 C54.3939149,170.926841 53.8330231,171.247329 53.1888642,171.247329 C52.8602117,171.247329 52.5359461,171.146006 52.2160577,170.943358 C51.8961693,170.740709 51.6244873,170.445551 51.4010036,170.057876 L51.4010036,171.088735 L49.994378,171.088735 Z M51.4995989,167.427863 C51.4995989,168.031403 51.5565644,168.491761 51.6704973,168.80895 C51.7844302,169.126139 51.946563,169.367331 52.1569005,169.532534 C52.3672381,169.697737 52.5885275,169.780337 52.8207752,169.780337 C53.1538098,169.780337 53.4386376,169.605225 53.6752674,169.254995 C53.9118972,168.904765 54.0302103,168.350794 54.0302103,167.593065 C54.0302103,166.795687 53.9108017,166.219689 53.6719809,165.865054 C53.4331601,165.510419 53.1297089,165.333104 52.7616181,165.333104 C52.4110554,165.333104 52.1130817,165.504912 51.8676878,165.848533 C51.6222939,166.192155 51.4995989,166.718593 51.4995989,167.427863 Z M58.08404,166.211977 L56.7102794,165.908006 C56.8767967,165.198736 57.1517652,164.688818 57.5351931,164.378237 C57.918621,164.067656 58.4696534,163.912368 59.1883068,163.912368 C59.8280836,163.912368 60.316673,164.002678 60.6540895,164.183299 C60.9915061,164.363921 61.2325143,164.609518 61.3771214,164.920099 C61.5217285,165.23068 61.5940309,165.795665 61.5940309,166.61507 L61.5808849,168.782518 C61.5808849,169.390464 61.6049857,169.843112 61.6531881,170.140477 C61.7013905,170.437842 61.7912208,170.753925 61.9226818,171.088735 L60.424034,171.088735 L60.2268434,170.322199 C59.9683035,170.630577 59.6911441,170.861857 59.3953568,171.016047 C59.0995696,171.170236 58.7851634,171.247329 58.4521289,171.247329 C57.8956107,171.247329 57.4398861,171.059001 57.0849414,170.682339 C56.7299967,170.305677 56.552527,169.80457 56.552527,169.179002 C56.552527,168.782516 56.6248295,168.436697 56.7694366,168.141535 C56.9140437,167.846373 57.1178052,167.610687 57.3807272,167.434471 C57.6436492,167.258255 58.064318,167.101865 58.6427464,166.965298 C59.3438717,166.802298 59.8324611,166.650314 60.1085291,166.509341 C60.1085291,166.121665 60.0811419,165.867257 60.0263664,165.746108 C59.971591,165.62496 59.8708058,165.52584 59.7240077,165.448745 C59.5772096,165.371651 59.3701616,165.333104 59.1028576,165.333104 C58.8311715,165.333104 58.6175506,165.394779 58.4619884,165.51813 C58.3064263,165.641481 58.1804447,165.872761 58.08404,166.211977 Z M60.1085291,167.718618 C59.9157197,167.797915 59.6155549,167.890427 59.2080258,167.996157 C58.7391483,168.119508 58.4324106,168.256074 58.2878035,168.405858 C58.1431964,168.555641 58.0708939,168.749476 58.0708939,168.987368 C58.0708939,169.256098 58.1508648,169.481871 58.310809,169.664696 C58.4707533,169.84752 58.6712283,169.938931 58.9122401,169.938931 C59.1269597,169.938931 59.3394851,169.865141 59.5498227,169.71756 C59.7601603,169.569979 59.9058607,169.394867 59.9869283,169.192218 C60.0679959,168.98957 60.1085291,168.621724 60.1085291,168.08867 L60.1085291,167.718618 Z M63.2355634,171.088735 L63.2355634,161.4013 L64.7539303,161.4013 L64.7539303,171.088735 L63.2355634,171.088735 Z M66.4480469,171.088735 L66.4480469,161.4013 L67.9664138,161.4013 L67.9664138,171.088735 L66.4480469,171.088735 Z M70.7319321,171.088735 L68.9177794,164.070962 L70.3901352,164.070962 L71.461537,168.670181 L72.4474895,164.070962 L73.9066992,164.070962 L74.8597867,168.670181 L75.9574805,164.070962 L77.4495553,164.070962 L75.6091106,171.088735 L74.1564739,171.088735 L73.1705213,166.575422 L72.1977148,171.088735 L70.7319321,171.088735 Z M78.394348,163.119399 L78.394348,161.4013 L79.9127148,161.4013 L79.9127148,163.119399 L78.394348,163.119399 Z M78.394348,171.088735 L78.394348,164.070962 L79.9127148,164.070962 L79.9127148,171.088735 L78.394348,171.088735 Z M81.6068314,171.088735 L81.6068314,161.4013 L83.1251983,161.4013 L83.1251983,171.088735 L81.6068314,171.088735 Z M91.3511719,168.855207 L92.8563927,169.165786 C92.6548192,169.870651 92.3415085,170.393785 91.9164513,170.735203 C91.4913941,171.076622 90.974322,171.247329 90.3652194,171.247329 C89.519487,171.247329 88.8665738,170.963185 88.4064603,170.394888 C87.8630882,169.734077 87.5914063,168.808956 87.5914063,167.619497 C87.5914063,166.44766 87.8652792,165.509323 88.4130334,164.804458 C88.8775289,164.209728 89.4778584,163.912368 90.21404,163.912368 C91.0334802,163.912368 91.6754384,164.216336 92.1399339,164.824282 C92.6745419,165.520336 92.9418419,166.54678 92.9418419,167.903644 L92.9352689,168.115103 L89.1426382,168.115103 C89.1514023,168.670183 89.2751929,169.099704 89.5140137,169.403677 C89.7528345,169.70765 90.0409488,169.859634 90.3783654,169.859634 C90.8647711,169.859634 91.1890366,169.524828 91.3511719,168.855207 Z M91.4366211,166.978514 C91.423475,166.432244 91.3073529,166.021446 91.0882512,165.746108 C90.8691495,165.470771 90.6084225,165.333104 90.3060622,165.333104 C89.9861738,165.333104 89.7166828,165.476277 89.4975811,165.762629 C89.2740974,166.053385 89.1645483,166.458676 89.1689303,166.978514 L91.4366211,166.978514 Z M93.7814663,169.086489 L95.2998332,168.802342 C95.4312942,169.538045 95.8388172,169.90589 96.5224144,169.90589 C96.8861231,169.90589 97.1578051,169.835405 97.3374684,169.694432 C97.5171318,169.553459 97.6069621,169.370637 97.6069621,169.145962 C97.6069621,168.991773 97.5675244,168.870626 97.4886478,168.782518 C97.4053892,168.69441 97.2410654,168.617316 96.9956716,168.551235 C95.7511742,168.22083 94.9602291,167.905848 94.6228125,167.606281 C94.2021373,167.231822 93.9918029,166.7186 93.9918029,166.0666 C93.9918029,165.4146 94.1977554,164.892568 94.6096665,164.500487 C95.0215776,164.108406 95.6197161,163.912368 96.4041001,163.912368 C97.1534277,163.912368 97.7230835,164.058846 98.1130844,164.351805 C98.5030854,164.644764 98.7769583,165.117237 98.9347115,165.769237 L97.5083669,166.093032 C97.3812879,165.52914 97.0219666,165.247199 96.4303921,165.247199 C96.0579193,165.247199 95.7928103,165.301164 95.6350571,165.409097 C95.4773039,165.517029 95.3984285,165.656899 95.3984285,165.828709 C95.3984285,165.982898 95.4707309,166.110653 95.615338,166.211977 C95.7599451,166.317707 96.2090968,166.476299 96.9628065,166.687759 C97.8085389,166.925651 98.3825766,167.2142 98.6849369,167.553416 C98.9829152,167.892632 99.131902,168.34418 99.131902,168.908071 C99.131902,169.586503 98.9007533,170.145981 98.4384488,170.586522 C97.9761443,171.027062 97.3374725,171.247329 96.5224144,171.247329 C95.7818508,171.247329 95.1771393,171.063406 94.7082617,170.695555 C94.2393842,170.327704 93.9304555,169.791354 93.7814663,169.086489 Z M105.584883,166.145897 L104.092808,166.4763 C103.983257,165.740598 103.639273,165.372752 103.060844,165.372752 C102.688372,165.372752 102.388207,165.531344 102.160341,165.848533 C101.932475,166.165723 101.818544,166.700971 101.818544,167.454295 C101.818544,168.286917 101.932475,168.875029 102.160341,169.218651 C102.388207,169.562272 102.692754,169.73408 103.07399,169.73408 C103.358823,169.73408 103.593258,169.636062 103.777303,169.440021 C103.961349,169.243981 104.092808,168.89706 104.171684,168.39925 L105.663759,168.709829 C105.357017,170.401504 104.47405,171.247329 103.014833,171.247329 C102.08146,171.247329 101.389109,170.890497 100.93776,170.176821 C100.486411,169.463146 100.260739,168.604105 100.260739,167.599673 C100.260739,166.396998 100.515989,165.481789 101.026496,164.854019 C101.537003,164.226248 102.206348,163.912368 103.034552,163.912368 C103.705003,163.912368 104.251654,164.090784 104.67452,164.447622 C105.097386,164.80446 105.400837,165.370546 105.584883,166.145897 Z M108.389839,161.4013 L108.389839,164.963052 C108.630851,164.610619 108.897056,164.3474 109.188461,164.173387 C109.479866,163.999374 109.796463,163.912368 110.138262,163.912368 C110.593993,163.912368 110.975224,164.033515 111.281967,164.275812 C111.588709,164.518109 111.807807,164.861726 111.939268,165.306672 C112.035673,165.632671 112.083875,166.187744 112.083875,166.971906 L112.083875,171.088735 L110.572081,171.088735 L110.572081,167.381606 C110.572081,166.522553 110.517306,165.985101 110.407755,165.769237 C110.254384,165.47848 109.993657,165.333104 109.625566,165.333104 C109.235565,165.333104 108.932114,165.490595 108.715204,165.805581 C108.498293,166.120567 108.389839,166.709781 108.389839,167.573241 L108.389839,171.088735 L106.871472,171.088735 L106.871472,161.4013 L108.389839,161.4013 Z M117.084219,168.855207 L118.58944,169.165786 C118.387866,169.870651 118.074555,170.393785 117.649498,170.735203 C117.224441,171.076622 116.707369,171.247329 116.098266,171.247329 C115.252534,171.247329 114.599621,170.963185 114.139507,170.394888 C113.596135,169.734077 113.324453,168.808956 113.324453,167.619497 C113.324453,166.44766 113.598326,165.509323 114.14608,164.804458 C114.610576,164.209728 115.210905,163.912368 115.947087,163.912368 C116.766527,163.912368 117.408485,164.216336 117.872981,164.824282 C118.407589,165.520336 118.674889,166.54678 118.674889,167.903644 L118.668316,168.115103 L114.875685,168.115103 C114.884449,168.670183 115.00824,169.099704 115.247061,169.403677 C115.485881,169.70765 115.773996,169.859634 116.111412,169.859634 C116.597818,169.859634 116.922084,169.524828 117.084219,168.855207 Z M117.169668,166.978514 C117.156522,166.432244 117.0404,166.021446 116.821298,165.746108 C116.602196,165.470771 116.341469,165.333104 116.039109,165.333104 C115.719221,165.333104 115.44973,165.476277 115.230628,165.762629 C115.007144,166.053385 114.897595,166.458676 114.901977,166.978514 L117.169668,166.978514 Z M125.252757,171.088735 L123.73439,171.088735 L123.73439,167.50716 C123.73439,166.789079 123.705907,166.3111 123.648941,166.073208 C123.591974,165.835316 123.485712,165.652495 123.330149,165.524738 C123.174587,165.396981 122.998213,165.333104 122.801022,165.333104 C122.546864,165.333104 122.31681,165.415704 122.110855,165.580907 C121.904899,165.746109 121.760294,165.974085 121.677036,166.264842 C121.593777,166.555599 121.552148,167.104063 121.552148,167.910252 L121.552148,171.088735 L120.033782,171.088735 L120.033782,164.070962 L121.440407,164.070962 L121.440407,165.101821 C121.690183,164.705335 121.971724,164.407975 122.28504,164.209731 C122.598355,164.011488 122.945626,163.912368 123.326863,163.912368 C123.769448,163.912368 124.143011,164.028008 124.447562,164.259292 C124.752114,164.490576 124.962448,164.787936 125.078572,165.151382 C125.194696,165.514828 125.252757,166.040164 125.252757,166.727407 L125.252757,171.088735 Z M126.861424,171.088735 L126.861424,161.4013 L128.379791,161.4013 L128.379791,164.890363 C128.612039,164.564363 128.867289,164.319867 129.145548,164.156867 C129.423807,163.993867 129.722876,163.912368 130.042764,163.912368 C130.717598,163.912368 131.288349,164.218539 131.755035,164.83089 C132.221722,165.443241 132.455062,166.346336 132.455062,167.5402 C132.455062,168.729659 132.216244,169.644868 131.738603,170.285854 C131.260961,170.926841 130.700069,171.247329 130.05591,171.247329 C129.727258,171.247329 129.402992,171.146006 129.083104,170.943358 C128.763216,170.740709 128.491534,170.445551 128.26805,170.057876 L128.26805,171.088735 L126.861424,171.088735 Z M128.366645,167.427863 C128.366645,168.031403 128.423611,168.491761 128.537544,168.80895 C128.651476,169.126139 128.813609,169.367331 129.023947,169.532534 C129.234284,169.697737 129.455574,169.780337 129.687822,169.780337 C130.020856,169.780337 130.305684,169.605225 130.542314,169.254995 C130.778943,168.904765 130.897257,168.350794 130.897257,167.593065 C130.897257,166.795687 130.777848,166.219689 130.539027,165.865054 C130.300206,165.510419 129.996755,165.333104 129.628664,165.333104 C129.278102,165.333104 128.980128,165.504912 128.734734,165.848533 C128.48934,166.192155 128.366645,166.718593 128.366645,167.427863 Z M134.951086,166.211977 L133.577326,165.908006 C133.743843,165.198736 134.018811,164.688818 134.402239,164.378237 C134.785667,164.067656 135.3367,163.912368 136.055353,163.912368 C136.69513,163.912368 137.183719,164.002678 137.521136,164.183299 C137.858552,164.363921 138.099561,164.609518 138.244168,164.920099 C138.388775,165.23068 138.461077,165.795665 138.461077,166.61507 L138.447931,168.782518 C138.447931,169.390464 138.472032,169.843112 138.520234,170.140477 C138.568437,170.437842 138.658267,170.753925 138.789728,171.088735 L137.29108,171.088735 L137.09389,170.322199 C136.83535,170.630577 136.55819,170.861857 136.262403,171.016047 C135.966616,171.170236 135.65221,171.247329 135.319175,171.247329 C134.762657,171.247329 134.306932,171.059001 133.951988,170.682339 C133.597043,170.305677 133.419573,169.80457 133.419573,169.179002 C133.419573,168.782516 133.491876,168.436697 133.636483,168.141535 C133.78109,167.846373 133.984851,167.610687 134.247773,167.434471 C134.510695,167.258255 134.931364,167.101865 135.509793,166.965298 C136.210918,166.802298 136.699507,166.650314 136.975575,166.509341 C136.975575,166.121665 136.948188,165.867257 136.893413,165.746108 C136.838637,165.62496 136.737852,165.52584 136.591054,165.448745 C136.444256,165.371651 136.237208,165.333104 135.969904,165.333104 C135.698218,165.333104 135.484597,165.394779 135.329035,165.51813 C135.173473,165.641481 135.047491,165.872761 134.951086,166.211977 Z M136.975575,167.718618 C136.782766,167.797915 136.482601,167.890427 136.075072,167.996157 C135.606195,168.119508 135.299457,168.256074 135.15485,168.405858 C135.010243,168.555641 134.93794,168.749476 134.93794,168.987368 C134.93794,169.256098 135.017911,169.481871 135.177855,169.664696 C135.3378,169.84752 135.538275,169.938931 135.779286,169.938931 C135.994006,169.938931 136.206531,169.865141 136.416869,169.71756 C136.627207,169.569979 136.772907,169.394867 136.853975,169.192218 C136.935042,168.98957 136.975575,168.621724 136.975575,168.08867 L136.975575,167.718618 Z M145.091529,166.145897 L143.599455,166.4763 C143.489904,165.740598 143.145919,165.372752 142.567491,165.372752 C142.195018,165.372752 141.894853,165.531344 141.666988,165.848533 C141.439122,166.165723 141.325191,166.700971 141.325191,167.454295 C141.325191,168.286917 141.439122,168.875029 141.666988,169.218651 C141.894853,169.562272 142.1994,169.73408 142.580637,169.73408 C142.865469,169.73408 143.099904,169.636062 143.28395,169.440021 C143.467995,169.243981 143.599454,168.89706 143.678331,168.39925 L145.170406,168.709829 C144.863663,170.401504 143.980697,171.247329 142.52148,171.247329 C141.588107,171.247329 140.895756,170.890497 140.444407,170.176821 C139.993057,169.463146 139.767386,168.604105 139.767386,167.599673 C139.767386,166.396998 140.022635,165.481789 140.533142,164.854019 C141.043649,164.226248 141.712995,163.912368 142.541199,163.912368 C143.21165,163.912368 143.7583,164.090784 144.181167,164.447622 C144.604033,164.80446 144.907484,165.370546 145.091529,166.145897 Z M147.896486,161.4013 L147.896486,164.963052 C148.137498,164.610619 148.403702,164.3474 148.695107,164.173387 C148.986513,163.999374 149.30311,163.912368 149.644908,163.912368 C150.10064,163.912368 150.481871,164.033515 150.788613,164.275812 C151.095356,164.518109 151.314454,164.861726 151.445915,165.306672 C151.54232,165.632671 151.590521,166.187744 151.590521,166.971906 L151.590521,171.088735 L150.078727,171.088735 L150.078727,167.381606 C150.078727,166.522553 150.023953,165.985101 149.914402,165.769237 C149.761031,165.47848 149.500304,165.333104 149.132213,165.333104 C148.742212,165.333104 148.438761,165.490595 148.22185,165.805581 C148.00494,166.120567 147.896486,166.709781 147.896486,167.573241 L147.896486,171.088735 L146.378119,171.088735 L146.378119,161.4013 L147.896486,161.4013 Z M156.483975,163.119399 L156.483975,161.4013 L158.002342,161.4013 L158.002342,163.119399 L156.483975,163.119399 Z M156.483975,171.088735 L156.483975,164.070962 L158.002342,164.070962 L158.002342,171.088735 L156.483975,171.088735 Z M164.902288,171.088735 L163.383921,171.088735 L163.383921,167.50716 C163.383921,166.789079 163.355438,166.3111 163.298472,166.073208 C163.241506,165.835316 163.135243,165.652495 162.979681,165.524738 C162.824119,165.396981 162.647744,165.333104 162.450553,165.333104 C162.196395,165.333104 161.966342,165.415704 161.760386,165.580907 C161.554431,165.746109 161.409826,165.974085 161.326567,166.264842 C161.243308,166.555599 161.20168,167.104063 161.20168,167.910252 L161.20168,171.088735 L159.683313,171.088735 L159.683313,164.070962 L161.089938,164.070962 L161.089938,165.101821 C161.339714,164.705335 161.621256,164.407975 161.934571,164.209731 C162.247886,164.011488 162.595157,163.912368 162.976394,163.912368 C163.41898,163.912368 163.792542,164.028008 164.097094,164.259292 C164.401645,164.490576 164.611979,164.787936 164.728103,165.151382 C164.844227,165.514828 164.902288,166.040164 164.902288,166.727407 L164.902288,171.088735 Z M167.65466,171.088735 L165.840508,164.070962 L167.312864,164.070962 L168.384265,168.670181 L169.370218,164.070962 L170.829428,164.070962 L171.782515,168.670181 L172.880209,164.070962 L174.372284,164.070962 L172.531839,171.088735 L171.079202,171.088735 L170.09325,166.575422 L169.120443,171.088735 L167.65466,171.088735 Z M175.317076,163.119399 L175.317076,161.4013 L176.835443,161.4013 L176.835443,163.119399 L175.317076,163.119399 Z M175.317076,171.088735 L175.317076,164.070962 L176.835443,164.070962 L176.835443,171.088735 L175.317076,171.088735 Z M178.52956,171.088735 L178.52956,161.4013 L180.047927,161.4013 L180.047927,171.088735 L178.52956,171.088735 Z"/>
  </g>
</svg>
