<svg xmlns="http://www.w3.org/2000/svg" xml:space="preserve" width="332.987" height="68.813"><path d="M2489.37 413.27c13.86 12.136 5.2 35.808 7.5 53.136-4.61 1.157-10.4 2.336-14.99 2.336-1.16-3.472 1.71-8.683-2.33-9.832-2.88 2.301-1.17 7.496-1.74 10.383-8.08 1.727-15.59 1.156-24.26.582v-9.816c-1.75 0-2.31 0-3.46-.582-2.3 2.32-1.15 6.929-1.15 9.816l-16.19-2.887c-1.73-11.539 1.16-21.933-1.73-32.918-1.17 2.293-3.47 5.196-7.5 4.047-13.89-7.512-28.3-15.617-42.18-24.265-2.32 0-2.32 2.316-2.32 4.046 0 2.309 2.91 1.727 4.63 2.309 18.49-.582 15.03 20.211 22.53 30.605l-8.66-1.152c-6.35 7.508 2.3 16.762 4.04 24.86-4.62 1.14-8.09-2.325-12.14-.594 1.17 7.508 6.93 13.859 8.67 21.383-5.2 2.316-10.96-.582-14.44-4.059-5.2 2.324-8.67 7.527-10.39 12.137l3.47.586v8.086c-1.75.574-6.36.574-4.64 4.621h-8.66c.58-2.891-2.29-4.047-4.63-4.047 1.18-2.891-1.72-9.246 2.34-9.246.56-1.731-1.16-1.164-1.75-2.305 0-6.934-7.51-5.773-9.24-10.391-4.04 2.883-9.25 5.762-13.86 2.883l6.35-15.605c.57-8.094-6.35 1.152-10.98-1.731l7.52-19.644c-1.74-5.782-6.36-2.891-10.98-4.043 1.17-6.934 5.77-12.133 7.51-18.481-.57-11.57 10.98-11.57 18.47-15.019-.54-1.746.59-4.055-1.72-5.199-13.28 8.082-28.31 15.007-39.87 24.835-2.88 1.149-6.34 1.149-8.65-1.156-2.31-4.047-1.18-8.672 1.16-11.543-2.9-5.781-6.93-10.992-8.67-16.765 6.92-4.047 15.02-9.825 22.53-12.141 3.46 5.785 6.36 11.566 10.41 16.191 4.03-2.886 9.81-4.625 12.69-8.668-2.88-3.464-.58-8.668 0-12.707-3.47-3.468-10.4-1.16-12.14-6.359l-6.93 1.152c-5.18.579-2.88 5.207-5.77 8.086-2.89 1.735-7.51 1.16-9.25-2.879-.57-2.894 1.17-5.781 1.74-8.093-2.31 1.152-4.61 1.734-7.51 2.886-3.47 2.313-9.24-1.734-9.82 3.469 1.74 12.133-2.89 27.145 8.08 36.399l.59 42.168-16.76 3.468v-9.816c-8.07-1.738-1.73 7.496-4.62 10.391h-22.53v-9.825l-4.04-.566c-1.15 2.883-.59 6.348-.59 9.816-5.18 0-10.4-.593-14.43-2.871l-.58-42.203 5.19-9.223c.59-41.601-2.28-83.761-1.14-124.789l-3.47-4.047-1.16-61.222-.58-.574c17.91-5.786 41.03-4.625 59.5-.571v6.922c46.8 0 90.13-.578 136.91-1.172l.59-8.07c18.46-3.457 42.17-6.938 58.92 2.891v57.187l-4.63 5.207c1.74 41.004 0 83.758 1.74 124.192zm-106.87-34.668c2.89 4.621 4.05-1.715 6.92-2.887 1.75-1.731 4.64-1.156 6.37-2.309-4.07-2.308-9.82-6.351-15.03-2.879-1.74 2.879 0 5.762 1.74 8.075zm-16.75 38.714c3.46-1.152 3.46-5.773 5.21-9.25-2.33-2.308-5.79-3.472-8.1-.586 1.15 2.895 2.89 5.79 2.89 9.836zm-16.17-39.293c0-2.308 2.3-3.464 1.15-6.339-2.9-2.907-6.95-.586-10.4 0l-2.89 2.3c6.34-1.738 6.94 10.973 12.14 4.039zm87.8-44.468-11.54.57-.59 16.754h-31.19c-1.17-4.625-.59-10.391-.59-16.176-3.45.578-11.54-2.32-11.54 2.895l.57 13.281c-10.41.59-22.52 1.726-32.92.59l-.6-16.188c-3.45-.578-8.08-.578-11.54-.578v17.328h-32.34l-.57-16.183h-12.15l.58 38.136c4.06 2.305 8.09-.578 11.57-2.3-2.33-2.329-4.07-5.219-3.48-9.258 1.15-1.149 1.71-1.735 2.89-2.883 4.03-1.148 7.51 1.148 9.23 4.613l13.29-3.465c-.58-1.726-1.14-4.043.58-5.769 1.16-2.317 4.62-2.317 6.93-1.152 2.32 1.152 2.9 2.878 3.47 5.773 6.34-1.746 15.02-2.895 20.78 1.148 4.07 2.313 5.21 6.364 5.79 10.993 0 5.757-2.87 9.804-5.79 14.425 1.76 2.313 4.64 3.469 6.37 4.633 4.04.574 5.78-2.894 8.67-4.054-3.47-4.598-6.96-10.973-5.78-17.911 2.31-4.043 4.61-8.664 9.25-10.98 5.2-2.293 12.69-1.723 17.33.598 2.88-.598 1.16-4.625 4.62-5.79 2.88-1.726 6.34 1.165 7.5 4.043v2.317c5.2 0 12.7 7.5 16.17 0 3.49-1.742 6.38.578 7.5 3.461 1.77 2.887-.56 6.351-2.87 7.519 2.31 1.739 6.36 4.039 10.4 4.039zm-16.18 47.933c1.15 1.735 2.89 4.621 2.32 8.09-1.17 2.879-5.2 3.481-8.68 2.879-1.72-1.715-2.32-2.879-2.32-5.191-4.6-.578-12.1-6.93-13.84.582-1.74 2.894-5.79.574-6.96 2.894.6 3.453 2.34 5.758 1.75 9.817l-2.3 4.621c3.45 2.886 8.08 5.765 13.29 6.929l9.23-16.754c7.51 4.043 15.6 8.086 22.54 13.286-1.75 5.773-5.21 10.984-8.68 16.168 1.18 1.168 3.47 2.32 4.07 3.468-.6-5.765 3.43-8.652 6.33-13.289.59-9.23 0-18.488.59-28.3-6.37-1.153-12.13-2.313-17.34-5.2M57.969 66.223c-6.375 2.527-13.305 3.953-19.801 3.953-15.945 0-30.688-10.34-30.688-32.332 0-20.578 12.32-31.906 30.141-31.906 5.938 0 10.89.878 15.73 2.421v29.59h7.04V4.07C52.91 1.316 44 0 36.523 0 14.743 0 0 13.418 0 36.633 0 59.07 14.742 76.008 39.055 76.008c6.816 0 13.308-.988 20.02-3.078l-1.106-6.707M119.352.879v74.25h36.628v-5.727h-29.589V42.02h28.16v-5.613h-28.16V6.711h29.589V.879h-36.628m168.082 0L280.5 48.945c-1.426 9.57-1.98 14.961-2.312 18.809h-.219c-.66-2.742-1.871-6.817-3.52-11.66L255.754.879h-8.473L229.57 52.684c-1.757 5.285-3.847 10.89-4.617 15.07h-.113c-.328-5.711-1.098-11.77-1.977-19.461L217.25.879h-7.367l10.336 74.25h9.246L247.5 22.324c1.871-5.5 3.41-10.332 4.18-14.187h.218c1.102 4.949 2.204 8.035 3.961 13.203l18.481 53.789h9.68L294.914.879h-7.48m63.246 0v74.25h36.629v-5.727h-29.59V42.02h28.16v-5.613h-28.16V6.711h29.59V.879H350.68m94.379 0h7.043v74.25h-7.043Zm114.511 0-32.89 51.926c-3.414 5.27-6.27 10.117-8.692 14.949.332-8.8.774-31.121.774-44.98V.878h-7.043v74.25h9.57l32.453-51.035c3.188-5.063 6.27-10.344 9.125-15.52-.328 10.457-.765 32.344-.765 46.758v19.797h7.035V.879h-9.567m86.567-.332c-7.367 0-12.539.437-17.375.332v74.25c5.715 0 13.523.332 20.785.332 24.418 0 38.387-11.77 38.387-36.848 0-25.527-17.485-38.066-41.797-38.066zm2.531 69.187c-4.293 0-9.68-.215-12.871-.332V7.148c3.301-.437 8.141-.77 11.332-.77 19.801 0 33.437 9.794 33.437 31.786 0 21.121-11 31.57-31.898 31.57M742.715.879v74.25h36.633v-5.727h-29.59V42.02h28.16v-5.613h-28.16V6.711h29.59V.879h-36.633m192.719 0-28.489 35.09h-.328V.879h-7.043v74.25c4.508.223 8.801.332 16.61.332 13.421 0 23.984-4.621 23.984-18.266 0-13.64-11.113-20.789-25.305-21.004 2.203-2.422 4.731-5.285 6.711-7.707L944.785.88Zm-21.231 68.965c-2.859 0-5.168-.11-7.586-.324V41.582c1.317-.117 3.629-.227 7.149-.227 12.097 0 19.027 6.055 19.027 14.63 0 10.343-6.707 13.859-18.59 13.859M1025.2 0c-22 0-32.567 14.96-32.567 37.285 0 24.973 15.627 38.723 34.437 38.723 20.35 0 32.67-13.637 32.67-37.285C1059.74 13.856 1044.12 0 1025.2 0Zm.99 70.066c-13.86 0-25.96-11.328-25.96-31.343 0-19.25 8.47-32.676 25.85-32.676 13.75 0 26.07 11.219 26.07 31.465 0 20.68-9.68 32.554-25.96 32.554m109.45-.769V.879h-7.04v68.418h-22.99v5.832h53.02v-5.832h-22.99M1259.27.879v35.644h-42.45V.88h-7.04v74.25h7.04V42.344h42.45v32.785h7.04V.879h-7.04m66.66 0v74.25h36.63v-5.727h-29.59V42.02h28.17v-5.613h-28.17V6.711h29.59V.879h-36.63m142.24 0-32.89 51.926c-3.42 5.27-6.27 10.117-8.69 14.949.33-8.8.77-31.121.77-44.98V.878h-7.04v74.25h9.57l32.45-51.035a315.97 315.97 0 0 0 9.12-15.52c-.32 10.457-.76 32.344-.76 46.758v19.797h7.04V.879h-9.57m86.23-.332c-4.5 0-11.44.223-17.04.332v74.25c4.72 0 10.77.223 19.69.223 16.17 0 23.42-6.829 23.42-17.383 0-8.25-5.83-15.403-14.52-17.825v-.105c11.66-1.648 16.28-9.465 16.28-17.383 0-7.59-4.07-22.11-27.83-22.11zm1.33 69.187c-3.86 0-7.92-.105-11.34-.215V42.13c2.42-.11 4.51-.11 7.48-.11 13.87 0 21.35 5.391 21.35 14.739 0 7.48-3.53 12.976-17.49 12.976zm-3.86-33.101c-1.43 0-5.5 0-7.48-.11V6.933c2.21-.331 5.61-.663 10.67-.663 14.09 0 19.92 6.933 19.92 16.054 0 11.223-10.24 14.309-23.11 14.309M1664.84 0c-22.88 0-27.06 12.871-27.06 25.305v49.824h7.04V26.062c0-10.996 3.74-20.34 20.68-20.34 14.19 0 21.34 5.938 21.34 22.547v46.86h6.93V28.926c0-18.809-9.67-28.926-28.93-28.926m124.41.879-28.49 35.09h-.33V.879h-7.04v74.25c4.52.223 8.8.332 16.61.332 13.42 0 23.98-4.621 23.98-18.266 0-13.64-11.1-20.789-25.3-21.004 2.2-2.422 4.73-5.285 6.72-7.707L1798.6.88Zm-21.23 68.965c-2.86 0-5.16-.11-7.59-.324V41.582c1.32-.117 3.63-.227 7.15-.227 12.1 0 19.03 6.055 19.03 14.63 0 10.343-6.71 13.859-18.59 13.859m136.4-3.621c-6.38 2.527-13.31 3.953-19.8 3.953-15.95 0-30.69-10.34-30.69-32.332 0-20.578 12.33-31.906 30.14-31.906 5.94 0 10.89.878 15.73 2.421v29.59h7.04V4.07c-7.48-2.754-16.39-4.07-23.87-4.07-21.78 0-36.52 13.418-36.52 36.633 0 22.437 14.74 39.375 39.05 39.375 6.82 0 13.31-.988 20.02-3.078l-1.1-6.707" style="fill:#000;fill-opacity:1;fill-rule:nonzero;stroke:none" transform="matrix(.13333 0 0 -.13333 0 68.813)"/><path d="M1255.68 227.008h248.5v248.398h-248.5zm496.9 0h248.504v248.398H1752.58Z" style="fill:#ff3600;fill-opacity:1;fill-rule:evenodd;stroke:none" transform="matrix(.13333 0 0 -.13333 0 68.813)"/><path d="M2369.21 512.621c-2.3-5.195 6.36-1.144 4.62-5.766-5.77 1.719-2.32-5.781-7.53-4.05 1.76 5.769-6.91 1.152-4.6 6.922h4.05l.55 3.48 2.91-.586m3.47-16.172c-2.31-1.144-7.51-.578-11.54-.578.56 1.172 1.15 4.043 3.45 4.043 2.89 0 6.37 0 8.09-3.465m-6.38-4.043c-1.13-2.297-6.32-2.879-4.6-6.933-3.48 0-3.48 3.472-3.48 6.359 2.92.574 5.79 1.734 8.08.574m10.43-2.297c0-2.332-.58-5.211-3.47-4.05-1.75 1.718-.58 4.609-2.89 6.347 2.31 0 5.2.586 6.36-2.297" style="fill:#fad500;fill-opacity:1;fill-rule:nonzero;stroke:none" transform="matrix(.13333 0 0 -.13333 0 68.813)"/><path d="M2370.96 486.059c0-1.161-.59-2.313.55-2.883 4.64.57 8.1 1.722 12.14-1.172-2.89 4.637 4.64 3.469 4.05 6.941 1.15 1.164 2.32 1.723 3.47 1.164l-4.62-10.996c-12.72 1.739-27.16 1.739-39.86.59l-4.05 9.242c1.14.582 2.31 0 3.47-.582 0-4.054 5.77-1.16 5.19-5.773 1.73 0 2.88 1.719 4.06 2.883 2.86-1.164 6.34-4.047 9.23-1.727-2.89 2.895.58 4.031 1.71 6.363 3.49 1.141 4.07-2.332 4.66-4.05" style="fill:#fad500;fill-opacity:1;fill-rule:nonzero;stroke:none" transform="matrix(.13333 0 0 -.13333 0 68.813)"/><path d="m2357.08 488.363-1.72-1.16c0 .574-.59 0-1.18 0l.59 2.906c1.16-.582 1.16-1.164 2.31-1.746m22.53-.586c0-.574 0-1.136-.59-1.136l-1.14 1.722c.57 0 1.14 0 1.73-.586m5.78-11.55-1.16-2.289c-11.55 0-24.25 1.14-35.83 0l-.57 2.289c11.56 2.312 25.43 1.16 37.56 0m-24.25-4.039c2.29-4.625-5.78-4.043-4.06-8.661h-1.15c0 2.313.56 5.215-1.75 6.348-1.72 1.145-4.03 1.145-5.2-.582-.58-2.309-.58-4.613.6-6.348-1.75-1.734-.6 2.325-1.75 2.895-1.72 1.723-2.88 2.902-1.14 4.609 5.19.571 9.24 2.328 14.45 1.739" style="fill:#fad500;fill-opacity:1;fill-rule:nonzero;stroke:none" transform="matrix(.13333 0 0 -.13333 0 68.813)"/><path d="M2368.63 469.293c.58-2.887 6.35-4.023 3.46-8.656 2.31-1.727 5.19 1.16 7.52 1.726 1.15-1.726 3.46-3.453 5.78-3.453-2.32 6.93 6.93 4.035 6.93 9.235 1.15.597 1.74.597 2.9.597l-4.63-13.293c-15.02 2.297-31.79 2.297-46.81.563-1.72 4.625-3.45 9.258-5.19 13.863 3.47 0 5.79-4.035 8.1-6.348-1.16-1.164-.58-2.316-.58-2.89 4.04-3.473 6.35 6.347 9.82 0h4.62c0 1.726-1.75 5.203 1.15 5.769 1.16 0 2.31 1.157 1.73 1.739-.57 1.73.58 2.875 1.74 4.043 2.31.589 3.46-1.739 3.46-2.895" style="fill:#fad500;fill-opacity:1;fill-rule:nonzero;stroke:none" transform="matrix(.13333 0 0 -.13333 0 68.813)"/><path d="M2387.7 468.145c.59-2.305-3.47-2.875-4.05-5.782h-1.15c.57 1.735 2.3 3.477 1.15 5.782-.58 2.304-3.47 1.73-5.2 1.73-2.3-1.133-2.3-3.469-1.72-5.777v-.571h-1.75c1.75 4.618-4.02 4.618-3.47 8.086 5.77 0 12.72.575 16.19-3.468m-33.52-1.739c0-.566-.54-2.308-1.72-2.879-1.73.571-2.88 2.313-2.31 4.036 1.15 1.73 3.49.582 4.03-1.157" style="fill:#fad500;fill-opacity:1;fill-rule:nonzero;stroke:none" transform="matrix(.13333 0 0 -.13333 0 68.813)"/><path d="M2381.93 466.984c0-.578 0-1.714-1.17-2.304-1.15-.582-1.74.59-2.31 1.16 0 .566-.57 1.723.57 2.305 1.16 0 2.32 0 2.91-1.161" style="fill:#fad500;fill-opacity:1;fill-rule:nonzero;stroke:none" transform="matrix(.13333 0 0 -.13333 0 68.813)"/><path d="M2275.05 457.164c5.21-.578 9.82-1.715 13.87-1.715l.57 9.821 6.35-1.743v-32.355c-15.58 4.609-36.97 6.933-52.56 1.168l-.59 32.34c1.17 1.16 4.06.59 5.23.59v-9.258l14.43 1.152 1.16 10.399 11.54-.579v-9.82m197.56 3.473v-5.77l13.3-2.312c1.15 2.312.56 6.922.56 10.39l5.21-.582-.56-32.918c-16.77 5.2-36.42 5.2-53.17.578l-.57 31.774c1.16 1.73 4.06 1.73 6.36 1.73l.56-9.816 13.89 1.156c1.16 2.297.57 4.61 0 6.93.57 1.148-.58 2.883 1.16 3.473 4.62-1.172 14.42 3.472 13.26-4.633" style="fill:#ff3600;fill-opacity:1;fill-rule:nonzero;stroke:none" transform="matrix(.13333 0 0 -.13333 0 68.813)"/><path d="m2391.17 451.969.55-2.321c-15.57 2.907-34.64 2.907-50.82.582 3.48 6.356 13.87 2.325 20.24 4.637 10.37-.597 20.79 0 30.03-2.898m-29.47-3.461c-.56-2.324-4.05-4.035-4.05-7.52v-1.152h-1.72c0 2.316 0 5.781-2.9 6.937-2.3.582-4.05-1.156-4.63-2.89l.58-4.629c-.58 0-.58 0-1.15-.57-.57 4.629-4.62 5.199-7.5 7.5 6.93 1.73 14.44 2.324 21.37 2.324" style="fill:#fad500;fill-opacity:1;fill-rule:nonzero;stroke:none" transform="matrix(.13333 0 0 -.13333 0 68.813)"/><path d="M2371.51 443.313c2.32-2.325 0-5.208-1.72-5.778 5.19-3.472 10.39 3.453 15.6-1.754 3.46 0 1.74 6.371 6.93 4.055 0 2.316 1.74 4.047 3.47 4.637l2.89.562c-.59-4.609-3.46-9.82-5.79-13.863-16.16 4.609-35.81 3.473-52.56.586l-6.93 15.015c2.31 0 5.78-1.738 6.36-4.046 1.14-2.301 4.62.586 5.19-2.891 1.16-1.731-1.17-3.469-1.17-4.621 4.62-2.313 7.52 6.937 12.15 1.734 2.29 0 4.62 0 6.36.586-1.15 1.719-2.9 3.453-2.31 5.778 5.19-.586 2.31 7.488 7.5 5.195 1.15-2.324 1.73-4.035 4.03-5.195" style="fill:#fad500;fill-opacity:1;fill-rule:nonzero;stroke:none" transform="matrix(.13333 0 0 -.13333 0 68.813)"/><path d="M2392.32 445.617c.57-.582-1.15-2.304-1.73-2.89-4.62.586-3.46-5.192-6.94-4.622-1.72 2.321 2.32 4.047 0 6.368-1.15 2.3-4.04 2.3-5.77 1.144-2.31-1.144-1.73-3.465-1.73-5.781h-1.17c1.75 4.637-3.47 5.781-4.02 8.672 7.49 0 14.43-1.153 21.36-2.891m-38.14-2.89c0-1.149-.54-1.149-1.15-1.739-1.15 0-2.3 0-2.3 1.164-1.75 3.465 4.04 2.883 3.45.575" style="fill:#fad500;fill-opacity:1;fill-rule:nonzero;stroke:none" transform="matrix(.13333 0 0 -.13333 0 68.813)"/><path d="M2381.93 442.727c0-1.149 0-2.301-1.17-2.891-1.15.59-2.31.59-2.88 1.742-.6 2.895 2.88 1.735 4.05 1.149m-69.9-9.239c.56-2.316-1.16-4.043-2.89-4.629-1.74 0-3.47 0-4.04 1.731 0 2.312 0 4.625 2.87 5.191 1.74 0 4.06-.566 4.06-2.293m117.26-2.316c-1.15-1.727-2.88-4.633-5.77-2.895-1.75 2.313-2.32 4.625.57 6.368 2.32 0 5.2-1.157 5.2-3.473" style="fill:#fad500;fill-opacity:1;fill-rule:nonzero;stroke:none" transform="matrix(.13333 0 0 -.13333 0 68.813)"/><path d="M2294.7 428.277c-.58-3.468-3.47-6.925-6.36-10.394-12.12 2.324-28.32 4.629-41.01 0-1.74 3.469-3.47 7.523-4.64 11.562 15.6 4.618 36.41 5.2 52.01-1.168" style="fill:#ff3600;fill-opacity:1;fill-rule:nonzero;stroke:none" transform="matrix(.13333 0 0 -.13333 0 68.813)"/><path d="M2392.32 427.707c0-2.301-2.9-2.898-4.62-1.73-15.02 2.882-30.62 2.882-45.64.562l-1.16 2.32c16.18 3.481 35.83 4.043 51.42-1.152m-13.87-33.512c.57-1.738-.57-2.879-2.3-3.453-21.38 10.969-42.75 24.844-63.56 36.965.58 1.152 2.33 4.633 4.63 2.316l61.23-35.828" style="fill:#fad500;fill-opacity:1;fill-rule:nonzero;stroke:none" transform="matrix(.13333 0 0 -.13333 0 68.813)"/><path d="M2490.52 426.539c-1.15-3.453-3.46-7.496-5.78-10.953-12.13 4.621-27.73 3.457-40.44.578-2.3 3.461-5.76 6.922-6.92 10.965 16.17 5.211 36.97 4.629 53.14-.59" style="fill:#ff3600;fill-opacity:1;fill-rule:nonzero;stroke:none" transform="matrix(.13333 0 0 -.13333 0 68.813)"/><path d="m2420.62 427.129-46.79-26.57-3.46 1.726c15.02 9.824 32.34 19.633 49.1 28.305l1.15-3.461m-93.58-11.543c-2.3-1.172-1.72-7.52-5.78-4.641-8.09-2.879 4.06-6.922-3.45-10.965-2.89 1.172-5.22 2.305-8.1 4.043.58 2.301 2.32 4.043 3.46 5.782 1.16-.582 2.9-1.739 3.47.57 3.47 2.895-3.47 4.613 1.17 7.508l-1.74 1.742c-2.31 0-2.9-5.785-5.78-2.309-1.15 0-2.32-1.73-2.32-3.476 3.48-.57 0-5.199-1.15-7.516-2.29 1.156-8.65 2.317-6.36 5.785.59 6.36 6.94 0 6.36 6.934-2.29 1.738.58 4.609 2.32 6.934 5.78-2.891 12.12-6.352 17.9-10.391m98.8 4.039c-3.49-1.156 0-4.039.57-5.785 2.88 1.148 4.03-1.731 5.21-4.035-1.77-1.164-4.07-3.481-6.37-3.481-1.16 1.156-1.73 2.317-2.9 4.051 3.49 1.168 1.74 3.465 1.17 5.789-2.9 0-4.64.559-6.36 3.461-1.14 0-2.32-1.156-2.88-2.309l1.74-4.046c-.6 0-1.74 0-1.74-1.161 0-1.734 1.74-2.886 2.3-4.629l2.3 1.161 2.32-4.618-5.78-4.043c-1.14.579-3.47 2.305-3.47 4.614 1.74.586 2.33 2.316 1.17 3.472-.6 1.157-1.17 3.477-2.89 2.309-1.73-.57-4.05 2.895-4.05 5.211 5.2 2.883 10.98 6.926 17.34 9.223l2.32-5.184" style="fill:#fad500;fill-opacity:1;fill-rule:nonzero;stroke:none" transform="matrix(.13333 0 0 -.13333 0 68.813)"/><path d="M2287.76 414.414v-1.144c-11.54 3.453-27.15 3.453-39.28 0-.56 0 0 1.144 0 1.718 11.54 5.219 27.74 3.481 39.28-.574" style="fill:#ff3600;fill-opacity:1;fill-rule:nonzero;stroke:none" transform="matrix(.13333 0 0 -.13333 0 68.813)"/><path d="M2362.86 416.164c-.57-2.324-1.16-4.621-2.88-5.789-1.18-1.152-2.9.57-4.62 1.168l1.72 6.34c1.14-1.16 5.21 1.16 5.78-1.719m16.16-4.621c-1.14-1.168-3.45-4.633-5.76-1.738-1.17 2.304-2.89 4.035-2.3 7.511 1.72.567 4.02 0 5.19.567.58-2.297 1.13-4.613 2.87-6.34" style="fill:#fad500;fill-opacity:1;fill-rule:nonzero;stroke:none" transform="matrix(.13333 0 0 -.13333 0 68.813)"/><path d="M2484.74 412.109v-1.734c-12.69 3.465-27.73 4.613-40.44.57-.56.598 0 1.746 0 2.325 12.14 4.046 28.89 3.453 40.44-1.161m-197.56-2.304v-20.227c-5.19 0-9.25-4.621-14.42-7.488 1.71-4.649 6.34-9.844 9.23-14.457l5.19 2.312.58-2.89c-1.73-24.844-.58-50.258-.58-75.114-11.54-5.765-27.16-4.601-39.26-1.136l-1.74 2.886c1.15 37.539 1.15 76.836 2.3 116.114 10.96 4.609 27.16 2.886 38.7 0" style="fill:#ff3600;fill-opacity:1;fill-rule:nonzero;stroke:none" transform="matrix(.13333 0 0 -.13333 0 68.813)"/><path d="m2484.18 406.91.56-1.152-1.73-115.524c-11.56-5.199-27.73-5.785-39.85-.593-1.72 25.996 1.14 53.148.58 80.304l6.94-4.054 8.08 13.293c-4.06 4.039-10.97 5.773-14.46 9.808v19.074c12.71 4.043 27.75 2.879 39.88-1.156" style="fill:#ff3600;fill-opacity:1;fill-rule:nonzero;stroke:none" transform="matrix(.13333 0 0 -.13333 0 68.813)"/><path d="M2351.88 401.152c-2.9-1.172-1.15-4.062-1.73-6.367 3.49-8.676 13.28-16.762 9.83-27.73-1.76-4.051-5.8-5.778-10.4-5.778-5.8 0-10.99 1.149-16.18 3.457 0 1.731.57 4.621 1.14 6.95 4.64-2.907 10.41-5.219 16.19-4.051 5.76 2.894 2.91 8.082 1.15 11.551-3.48 7.504-12.7 16.746-6.35 25.41 2.3-.571 4.62-1.719 6.35-3.442m39.29-2.906c0-13.289-21.96-19.062-9.83-31.781 5.21-.574 10.38 1.168 15.01 3.48 1.74-1.168 1.17-4.054 2.33-5.789-6.96-3.465-16.75-8.082-23.11-1.73-3.48 2.887-5.2 7.519-5.2 12.133 1.72 8.097 9.24 13.289 13.28 20.796 0 2.313 0 5.204-1.72 6.356 2.3 5.199 8.66 1.164 9.24-3.465" style="fill:#fad500;fill-opacity:1;fill-rule:nonzero;stroke:none" transform="matrix(.13333 0 0 -.13333 0 68.813)"/><path d="M2355.36 398.246c-.59-.578-1.72-.578-2.9-.578.57 1.148 1.72 1.73 2.9.578m24.82.57c0-.57.58-.57.58-1.148h-1.74v1.148h1.16" style="fill:#fff;fill-opacity:1;fill-rule:nonzero;stroke:none" transform="matrix(.13333 0 0 -.13333 0 68.813)"/><path d="M2362.86 394.785c-1.72-1.726-5.21-4.629-7.5-3.469-2.33 1.743 0 3.469 1.72 4.039 1.72 1.735 4.62 1.145 5.78-.57m-46.22-5.207c.58-1.73-.57-3.469-2.31-3.469-1.74 0-2.3 1.157-3.46 1.739.58 1.73-.58 3.468 1.72 4.054 1.74 0 4.05.555 4.05-2.324" style="fill:#fad500;fill-opacity:1;fill-rule:nonzero;stroke:none" transform="matrix(.13333 0 0 -.13333 0 68.813)"/><path d="M2270.99 369.355c-1.13-1.722-2.87-1.148-4.01-1.148-4.06 5.199-1.17 12.723-2.32 19.641 1.15 1.144 1.73 2.308 3.46 2.308 6.35-4.621 1.74-13.867 2.87-20.801" style="fill:#000;fill-opacity:1;fill-rule:nonzero;stroke:none" transform="matrix(.13333 0 0 -.13333 0 68.813)"/><path d="M2420.62 386.688c0-.579-.59-1.731-1.74-1.731-2.3-.582-2.86.578-4.04 2.309.58 2.89 5.78 2.89 5.78-.578" style="fill:#fad500;fill-opacity:1;fill-rule:nonzero;stroke:none" transform="matrix(.13333 0 0 -.13333 0 68.813)"/><path d="M2466.83 385.535c-.58-5.765 2.32-15.008-2.3-19.644-1.15 0-2.9 1.164-3.46 2.886v17.332c1.15 3.469 5.18 2.313 5.76-.574" style="fill:#000;fill-opacity:1;fill-rule:nonzero;stroke:none" transform="matrix(.13333 0 0 -.13333 0 68.813)"/><path d="M2344.95 384.957c.58-1.156-.57-1.156-1.17-1.734l-1.72 2.886c1.72 2.313 2.32 0 2.89-1.152m44.47 2.309c-.57-1.157-1.13-2.891-2.87-2.891 1.15.582 1.74 2.891 2.87 2.891m-97.61-10.379c-.58-1.172-1.16-1.172-1.73-1.758-2.9 2.312-4.63 6.359-6.94 9.828 4.62 4.621 5.2-5.773 8.67-8.07m49.09 7.488c.58-1.719 1.16-3.445-.57-4.605-1.15-1.168-3.46-2.329-5.19-.586-1.17 1.152-.6 4.039-.6 5.191 1.17 2.313 4.64 2.313 6.36 0m57.19-1.719c0-2.886-1.74-4.054-4.03-5.215-2.34.582-4.04 1.161-4.64 2.895 0 2.887 1.17 5.199 2.9 5.773 2.3 0 5.77-.574 5.77-3.453m-65.27-4.054c-.58-5.196-2.9-10.395-4.03-15.598l-16.76 5.203c.56 5.777 1.73 11.563 4.61 16.75 5.21-1.734 12.73-1.734 16.18-6.355m-21.95 0c-.58-2.313-1.16-4.043-1.73-5.766-5.2 5.766-16.76 1.723-19.06 10.387 6.94 2.312 15.02-.567 20.79-4.621m-29.47 4.621c0-1.133-2.88-1.735-4.62-2.887v.594c.59 1.16 2.89 3.445 4.62 2.293m138.63-16.168-17.32-4.629c-1.15 5.781-5.19 12.133-2.89 17.344 5.2 1.16 10.98 5.187 16.76 2.886l3.45-15.601m27.76 13.281c-2.34-1.152-2.34-4.621-4.63-6.352l-2.32.575c1.73 2.882 2.32 6.371 4.61 8.664 1.17 0 3.49-1.133 2.34-2.887m-6.35 2.32c-1.76-8.672-12.71-5.215-18.51-10.972-1.73 1.722-1.16 4.031-1.73 5.757 6.35 3.489 12.71 6.36 20.24 5.215" style="fill:#fad500;fill-opacity:1;fill-rule:nonzero;stroke:none" transform="matrix(.13333 0 0 -.13333 0 68.813)"/><path d="M2326.46 380.336c1.74 0 2.33-1.152 3.46-2.313 1.16-4.039-5.18-4.617-1.72-8.078-1.16-1.168-1.16-2.312-2.88-2.89-3.47.578-4.65 3.472-8.68 2.89-1.72.582-1.16 3.461 0 4.614 1.73 1.73-1.16 5.777 2.32 7.531 3.46 1.133 4.03-6.375 7.5-1.754" style="fill:#000;fill-opacity:1;fill-rule:nonzero;stroke:none" transform="matrix(.13333 0 0 -.13333 0 68.813)"/><path d="M2282.56 381.488c-1.16-1.152-2.89-2.304-4.63-2.304.59.586 2.33 2.906 4.63 2.304m172.14-3.465c-.58-.582-3.46 1.161-4.61 2.907 1.71 0 3.46-2.328 4.61-2.907" style="fill:#fad500;fill-opacity:1;fill-rule:nonzero;stroke:none" transform="matrix(.13333 0 0 -.13333 0 68.813)"/><path d="M2414.84 379.184c-.56-4.055-.56-5.2 1.74-8.086-.56-1.153-1.16-2.321-2.3-3.465-4.65 4.051-6.93-5.781-9.82.574 2.3 4.039-4.64 8.082 1.15 10.395 4.62-5.196 4.62 6.933 9.23.582" style="fill:#000;fill-opacity:1;fill-rule:nonzero;stroke:none" transform="matrix(.13333 0 0 -.13333 0 68.813)"/><path d="M2283.72 379.77c-.58-1.168-2.88-2.883-4.62-2.883 1.16 1.136 2.89 2.883 4.62 2.883m170.4-4.055c-.57-.586-4.03 1.726-5.18 3.469 1.74-.582 4.02-2.297 5.18-3.469m-168.67 1.726c-1.16-.554-3.46-2.882-5.19-2.312 1.14 1.758 2.88 2.312 5.19 2.312m168.1-3.457c-2.31-1.148-4.04 3.457-5.76 1.145 1.15-1.145 3.45-1.723 4.01-3.445-1.71 1.152-5.18 1.722-5.18 4.031 2.32 2.887 4.62-1.156 6.93-1.731m-171.56-1.148c-.59 1.723 2.3 2.293 3.46 2.879l-2.89-2.879h-.57m5.19 1.148c-.57-2.3-2.89-2.3-4.62-2.886.58 1.148 2.89 2.886 4.62 2.886m163.5-4.039c-1.74-.59-4.06 1.153-5.79 2.891 1.73 1.148 4.62-1.738 5.79-2.891m-141.54-4.632c.57-1.157-.57-2.309-1.17-2.887-2.87-.574-4.03.578-4.62 2.887-.59 1.742 1.18 2.32 2.32 3.464 2.3.578 3.47-1.144 3.47-3.464m117.84 0c.57-1.723-.57-2.887-1.73-3.461-1.73 0-2.9 0-3.48 1.738-1.15 1.723 1.16 2.875 2.32 3.465 1.75 0 2.89-.59 2.89-1.742m-92.44-6.348c.6-1.742-1.14-2.891-2.88-3.461-1.74 0-2.29 1.144-2.87 2.293-1.16 1.746.58 2.316 1.7 3.48 2.33.575 3.48-1.164 4.05-2.312m68.76-1.742c-.59-1.719-2.88-2.887-4.05-1.149-1.16.574-.57 1.723-.57 2.321 1.14 2.296 5.19 1.718 4.62-1.172" style="fill:#fad500;fill-opacity:1;fill-rule:nonzero;stroke:none" transform="matrix(.13333 0 0 -.13333 0 68.813)"/><path d="M2331.66 330.082c7.52-.578 15.03-1.727 22.52-.578v15.59c6.96.57 15.03.57 21.97 0v-15.59c6.92-1.738 15.02-.574 22.53-1.149 1.14 5.2 0 10.961.57 16.165h20.22v-16.165c5.78-1.738 12.15 1.149 17.91-.589v-37.532l-4.63-6.953v-45.64h-32.33c-1.74 19.086.55 36.968-1.17 54.886-1.73 10.969-12.12 22.524-22.52 25.993-10.98 4.046-24.27 2.304-32.95-4.614-24.82-14.449-12.12-49.101-16.15-74.519h-31.2l.59 43.894-5.21 8.086v38.137c6.36 2.879 19.64-5.207 18.48 5.777v10.973h21.37v-16.172" style="fill:#ff3600;fill-opacity:1;fill-rule:nonzero;stroke:none" transform="matrix(.13333 0 0 -.13333 0 68.813)"/><path d="M2269.27 313.328c-.57-1.148-2.29-1.148-3.46-.574-2.3 5.766-2.3 15.601 0 20.801 1.73 1.148 4.05-1.172 5.18-2.887-.56-5.797.59-12.148-1.72-17.34m195.83-2.312c-.57-1.153-2.3-.567-4.03-.567-2.88 5.188-1.17 12.699-1.72 19.633 1.12 1.148 1.72 2.301 3.45 2.883 6.35-5.199 1.73-15.016 2.3-21.949" style="fill:#000;fill-opacity:1;fill-rule:nonzero;stroke:none" transform="matrix(.13333 0 0 -.13333 0 68.813)"/><path d="M2395.22 296.57c5.2-19.05 0-36.961 1.72-58.328h-6.35c-1.17 19.059 2.3 37.539-1.17 56.035-2.87 8.071-11.54 15.008-19.63 16.739-11.57 2.312-23.1-3.461-28.89-12.719-1.14-4.606-4.03-8.063-3.46-12.688l-1.15-46.222c-1.15-1.145-2.89-.578-4.63-.578l-1.17 1.75c4.05 27.14-9.82 68.152 24.87 76.238 16.15 4.027 34.06-4.617 39.86-20.227m-109.19-8.09c1.73 0 2.31-2.304 3.46-3.445-13.85-5.797-31.79-5.797-45.63 0l1.73 3.445c12.11-4.031 28.31-4.031 40.44 0m195.85-1.722c2.3.582 2.86-1.723 4.03-2.887-11.56-7.516-32.36-6.351-45.63-1.156l2.29 4.043c11.55-4.625 27.16-4.625 39.31 0" style="fill:#ff3600;fill-opacity:1;fill-rule:nonzero;stroke:none" transform="matrix(.13333 0 0 -.13333 0 68.813)"/><path d="M2290.08 282.133c.57-17.328.57-36.387-.59-51.992-15.02-3.457-32.9-2.883-47.38.582 0 17.91 1.17 32.34.58 50.832 4.06-.575 8.11-1.731 12.73-2.317 10.97-2.883 23.68-.566 34.66 2.895m196.98-1.727c1.72-17.91-1.73-32.926-.59-51.414-14.42-4.637-32.92-3.465-47.93-.586v50.832c10.4-3.457 22.53-3.457 34.07-2.883 5.2 1.165 9.82 2.883 14.45 4.051" style="fill:#ff3600;fill-opacity:1;fill-rule:nonzero;stroke:none" transform="matrix(.13333 0 0 -.13333 0 68.813)"/></svg>