<?xml version="1.0" encoding="UTF-8"?>
<svg width="152px" height="68px" viewBox="0 0 152 68" version="1.1" xmlns="http://www.w3.org/2000/svg" xmlns:xlink="http://www.w3.org/1999/xlink">
    <title>logo_stadt_bern</title>
    <defs>
        <polygon id="path-1" points="0 0 41.964 0 41.964 28.65 0 28.65"></polygon>
        <polygon id="path-3" points="0 -7.10542736e-15 41.99 -7.10542736e-15 41.99 51.85 0 51.85"></polygon>
    </defs>
    <g id="logo_stadt_bern" stroke="none" stroke-width="1" fill="none" fill-rule="evenodd">
        <g id="Group-4" transform="translate(0.120000, 0.196000)">
            <mask id="mask-2" fill="white">
                <use xlink:href="#path-1"></use>
            </mask>
            <g id="Clip-2"></g>
            <path d="M7.77,22.918 C7.398,23.14 7.026,23.584 6.952,24.034 C6.878,24.592 7.1,25.076 7.51,25.408 C8.736,26.304 9.966,27.198 11.196,28.092 C11.196,28.276 11.196,28.464 11.196,28.65 L10.896,28.464 L6.728,25.636 C6.206,25.224 5.61,24.702 5.76,23.956 C5.834,23.584 6.096,23.25 6.466,23.1 C6.838,22.918 7.324,22.842 7.77,22.918" id="Fill-1" fill="#1A1919" mask="url(#mask-2)"></path>
            <polyline id="Fill-3" fill="#1A1919" mask="url(#mask-2)" points="34.594 0 34.594 9.58 30.394 9.58 30.394 0 23.026 0 23.026 9.58 18.832 9.58 18.832 0 11.464 0 11.464 9.58 7.264 9.58 7.264 0 -0.106 0 -0.106 11.066 1.48 11.066 1.48 1.488 5.678 1.488 5.678 11.066 13.048 11.066 13.048 1.488 17.244 1.488 17.244 11.066 24.612 11.066 24.612 1.488 28.808 1.488 28.808 11.066 36.178 11.066 36.178 1.488 40.378 1.488 40.378 11.066 41.964 11.066 41.964 0 34.594 0"></polyline>
        </g>
        <path d="M15.244,35.7 C15.058,35.028 14.684,34.36 14.126,33.91 C12.564,34.286 10.962,34.656 9.4,35.066 C9.172,35.14 8.99,35.25 8.764,35.324 C9.36,34.132 9.286,32.346 8.43,31.304 L5.004,34.208 C5.898,35.438 6.754,36.704 7.646,37.93 C7.908,38.23 8.28,38.34 8.614,38.488 L13.904,39.348 L15.318,39.57 L15.318,36.48 L15.244,35.7" id="Fill-5" fill="#1A1919"></path>
        <path d="M7.072,30.054 C6.896,29.972 6.496,29.776 6.496,29.776 C6.824,30.288 7.154,30.764 7.482,31.202 L7.982,30.78 C7.758,30.444 7.212,30.124 7.072,30.054" id="Fill-6" fill="#1A1919"></path>
        <path d="M5.75,30.444 C6.042,30.92 6.406,31.362 6.736,31.834 L7.298,31.358 C6.924,30.82 6.264,30.742 5.75,30.444" id="Fill-7" fill="#1A1919"></path>
        <path d="M6.568,31.972 C6.196,31.378 5.564,31.304 5.042,31.042 C5.334,31.518 5.666,31.992 6.028,32.432 L6.564,31.984 C6.564,31.98 6.568,31.976 6.568,31.972" id="Fill-8" fill="#1A1919"></path>
        <path d="M4.298,31.636 C4.59,32.112 4.954,32.588 5.282,33.062 L5.844,32.588 C5.434,32.042 4.814,31.894 4.298,31.636" id="Fill-9" fill="#1A1919"></path>
        <path d="M3.626,32.268 L4.576,33.66 L5.14,33.182 C4.766,32.674 4.178,32.456 3.626,32.268" id="Fill-10" fill="#1A1919"></path>
        <path d="M20.024,47.208 L21.72,47.458 L21.748,46.774 C21.106,46.696 20.564,47.062 20.024,47.208" id="Fill-11" fill="#1A1919"></path>
        <path d="M21.438,47.688 C20.88,47.688 20.508,48.062 20.024,48.21 C20.528,48.282 21.102,48.386 21.676,48.43 L21.708,47.688 L21.438,47.688" id="Fill-12" fill="#1A1919"></path>
        <path d="M20.582,48.844 L19.95,49.14 L21.638,49.356 L21.67,48.652 C21.282,48.624 20.898,48.668 20.582,48.844" id="Fill-13" fill="#1A1919"></path>
        <path d="M19.876,50.07 L21.602,50.292 L21.63,49.586 C20.976,49.488 20.462,49.852 19.876,50.07" id="Fill-14" fill="#1A1919"></path>
        <path d="M19.876,50.964 C20.414,51.074 20.988,51.144 21.564,51.218 L21.59,50.516 C20.938,50.418 20.424,50.746 19.876,50.964" id="Fill-15" fill="#1A1919"></path>
        <path d="M10.754,41.32 C11.322,41.39 11.892,41.46 12.46,41.536 L12.484,40.868 C11.838,40.786 11.298,41.14 10.754,41.32" id="Fill-16" fill="#1A1919"></path>
        <path d="M10.716,42.29 L12.426,42.508 L12.45,41.796 C11.804,41.714 11.26,42.07 10.716,42.29" id="Fill-17" fill="#1A1919"></path>
        <path d="M12.094,42.734 C11.574,42.774 11.166,43.032 10.68,43.218 C11.262,43.328 11.844,43.402 12.392,43.442 L12.416,42.734 L12.094,42.734" id="Fill-18" fill="#1A1919"></path>
        <path d="M12.058,43.664 C11.5,43.664 11.126,44.04 10.642,44.152 L12.168,44.374 L12.356,44.406 L12.384,43.664 C12.258,43.664 12.158,43.664 12.058,43.664" id="Fill-19" fill="#1A1919"></path>
        <path d="M10.642,45.082 L12.326,45.3 L12.348,44.628 C11.7,44.5 11.154,44.824 10.642,45.082" id="Fill-20" fill="#1A1919"></path>
        <path d="M28.008,56.282 L29.082,54.922 L28.512,54.55 C28.088,55 28.156,55.696 28.008,56.282" id="Fill-21" fill="#1A1919"></path>
        <path d="M28.864,56.8 C29.196,56.364 29.596,55.886 29.892,55.446 L29.28,55.05 C28.876,55.5 29.008,56.222 28.864,56.8" id="Fill-22" fill="#1A1919"></path>
        <path d="M29.646,57.286 C29.974,56.882 30.378,56.41 30.706,55.972 L30.076,55.562 C29.688,56.042 29.758,56.7 29.646,57.286" id="Fill-23" fill="#1A1919"></path>
        <path d="M30.392,57.844 C30.754,57.374 31.15,56.938 31.48,56.472 L30.864,56.074 C30.47,56.554 30.538,57.218 30.392,57.844" id="Fill-24" fill="#1A1919"></path>
        <path d="M31.212,58.292 L32.266,56.98 L31.678,56.598 C31.282,57.046 31.212,57.704 31.212,58.292" id="Fill-25" fill="#1A1919"></path>
        <g id="Group-29" transform="translate(0.120000, 16.150000)">
            <mask id="mask-4" fill="white">
                <use xlink:href="#path-3"></use>
            </mask>
            <g id="Clip-27"></g>
            <path d="M13.994,11.204 C13.658,11.204 13.384,10.932 13.384,10.596 C13.384,10.26 13.658,9.986 13.994,9.986 C14.33,9.986 14.604,10.26 14.604,10.596 C14.604,10.932 14.33,11.204 13.994,11.204 Z M34.588,26.658 L34.702,26.732 C35.22,26.882 35.742,26.994 36.264,27.03 L36.192,26.882 L35.928,24.796 C35.854,23.604 34.74,22.822 33.844,22.19 L23.084,14.888 C22.826,14.74 22.6,14.556 22.304,14.516 C22.492,14.368 22.6,14.146 22.6,13.924 C22.6,13.588 22.38,13.286 22.084,13.138 L18.956,11.462 C18.696,11.314 18.396,11.278 18.1,11.24 L18.322,11.092 C18.51,10.942 18.588,10.76 18.636,10.524 C18.71,10.114 18.658,9.752 18.398,9.416 C18.138,9.118 17.87,8.908 17.264,8.978 C16.908,9.028 16.596,9.24 16.424,9.752 C16.35,9.974 16.386,10.27 16.424,10.458 C16.312,10.31 16.312,10.122 16.162,10.014 C15.42,9.602 14.714,9.192 14.004,8.856 C13.818,8.744 13.596,8.708 13.446,8.818 C13.26,8.932 13.22,9.154 13.146,9.342 L13.038,9.188 C11.546,8.334 10.022,7.516 8.532,6.698 C8.642,6.846 8.792,6.994 8.83,7.218 L8.866,9.376 C9.76,10.048 10.726,10.606 11.62,11.314 C11.806,11.424 11.918,11.61 11.994,11.834 C12.104,12.17 12.03,12.58 11.846,12.842 C11.62,13.102 11.36,13.326 10.986,13.252 C10.206,12.95 9.536,12.392 8.866,11.834 C8.866,12.318 8.866,12.842 8.902,13.36 L14.786,17.458 C15.492,18.128 15.866,18.948 15.976,19.878 L15.974,25.28 L15.974,26.284 L16.162,27.214 C15.714,26.472 15.006,25.686 14.224,25.276 C13.854,25.128 13.48,24.904 13.07,24.87 C13.056,25.382 13.038,25.9 13.014,26.42 L12.924,28.89 C12.924,29.038 12.92,29.186 12.92,29.334 L16.534,29.892 C16.944,29.932 17.464,30.046 17.724,29.71 L21.858,24.162 L21.896,24.162 C21.858,24.31 21.744,24.424 21.744,24.572 L22.562,24.682 L22.822,24.534 C22.562,24.904 22.302,25.28 22.12,25.69 C21.858,26.396 21.932,27.292 22.34,27.924 L25.576,33.174 L25.576,33.248 L25.094,32.576 C24.384,31.608 23.384,31.05 22.34,30.718 L22.23,33.182 L22.158,34.956 L22.142,35.222 L26.248,35.78 L26.58,35.744 C26.806,35.67 26.956,35.444 27.066,35.222 L28.482,31.796 C28.146,31.276 27.852,30.752 27.588,30.232 C27.104,29.224 26.884,27.924 27.218,26.768 L27.252,26.584 L24.91,25.206 L24.612,24.982 L27.702,25.542 C27.96,25.616 28.296,25.576 28.484,25.428 C28.146,26.06 27.934,26.646 27.822,27.428 C27.676,28.882 28.384,29.998 28.976,31.15 L31.584,35.396 C31.956,35.99 32.542,36.228 33.17,36.452 L33.134,36.452 C32.278,36.19 31.16,36.154 30.306,36.486 C29.676,36.748 29.12,37.264 28.75,37.854 L32.506,40.28 L34.362,37.94 C34.846,37.232 35.594,36.674 35.594,35.744 L34.702,27.104 C34.702,26.92 34.588,26.808 34.588,26.658 L34.588,26.658 Z" id="Fill-26" fill="#1A1919" mask="url(#mask-4)"></path>
            <path d="M33.668,45.53 L1.436,23.768 C1.436,15.44 1.436,2.55 1.436,1.556 C1.854,1.556 5.072,1.556 9.494,1.556 L40.432,22.168 C40.432,27.012 40.432,30.796 40.432,30.796 C40.432,36.68 37.802,41.952 33.668,45.53 Z M1.436,30.796 C1.436,30.796 1.436,28.686 1.436,25.608 L32.412,46.524 C29.188,48.884 25.228,50.296 20.936,50.296 C10.184,50.296 1.436,41.548 1.436,30.796 Z M40.432,20.334 L12.244,1.556 C23.458,1.556 39.464,1.556 40.432,1.556 C40.432,2.42 40.432,12.296 40.432,20.334 Z M-0.12,-7.10542736e-15 L-0.12,30.796 C-0.12,42.404 9.326,51.85 20.936,51.85 C32.546,51.85 41.99,42.404 41.99,30.796 L41.99,-7.10542736e-15 L-0.12,-7.10542736e-15 L-0.12,-7.10542736e-15 Z" id="Fill-28" fill="#1A1919" mask="url(#mask-4)"></path>
        </g>
        <path d="M59.604,52.528 C59.604,53.138 59.568,54.994 61.962,54.994 C63.474,54.994 64.428,54.274 64.428,53.176 C64.428,52.024 63.618,51.826 61.962,51.43 C58.866,50.654 57.174,49.736 57.174,47.486 C57.174,45.344 58.704,43.454 62.322,43.454 C63.672,43.454 65.274,43.76 66.246,44.984 C66.984,45.92 66.984,46.966 66.984,47.396 L64.302,47.396 C64.266,46.946 64.122,45.416 62.196,45.416 C60.9,45.416 60.054,46.118 60.054,47.18 C60.054,48.388 61.008,48.604 62.88,49.072 C65.13,49.612 67.344,50.224 67.344,52.762 C67.344,55.102 65.4,56.99 61.8,56.99 C56.814,56.99 56.778,53.788 56.76,52.528 L59.604,52.528" id="Fill-30" fill="#383837"></path>
        <path d="M75.156,56.56 C74.292,56.794 73.518,56.848 73.086,56.848 C70.404,56.848 70.404,55.154 70.404,54.4 L70.404,49.412 L68.658,49.412 L68.658,47.65 L70.404,47.65 L70.404,45.866 L73.05,44.894 L73.05,47.65 L75.21,47.65 L75.21,49.412 L73.05,49.412 L73.05,53.518 C73.068,54.346 73.068,54.868 74.256,54.868 C74.652,54.868 74.832,54.85 75.156,54.814 L75.156,56.56" id="Fill-31" fill="#383837"></path>
        <path d="M79.494,53.876 C79.494,54.49 79.908,55.174 80.79,55.174 C81.276,55.174 81.672,54.94 81.924,54.65 C82.392,54.076 82.428,53.374 82.428,52.4 C80.718,52.258 79.494,52.798 79.494,53.876 Z M82.77,56.686 C82.68,56.126 82.68,55.712 82.68,55.444 C81.672,56.9 80.466,56.9 79.962,56.9 C78.648,56.9 78.054,56.524 77.694,56.182 C77.154,55.642 76.902,54.904 76.902,54.184 C76.902,53.462 77.154,52.13 78.828,51.358 C79.944,50.854 81.546,50.854 82.428,50.854 C82.428,50.26 82.41,49.97 82.302,49.646 C82.068,48.982 81.366,48.892 81.114,48.892 C80.736,48.892 80.34,49.052 80.106,49.396 C79.908,49.702 79.908,49.99 79.908,50.206 L77.298,50.206 C77.316,49.72 77.37,48.748 78.324,48.064 C79.152,47.47 80.214,47.326 81.078,47.326 C81.834,47.326 83.418,47.45 84.318,48.494 C84.93,49.232 84.948,50.314 84.948,50.728 L84.966,54.38 C84.966,55.154 85.02,55.93 85.182,56.686 L82.77,56.686 L82.77,56.686 Z" id="Fill-32" fill="#383837"></path>
        <path d="M91.806,55.138 C92.58,55.138 93.208,54.67 93.498,54.112 C93.894,53.356 93.93,52.42 93.93,51.97 C93.93,50.188 93.156,49.216 91.95,49.216 C90.168,49.216 89.97,51.358 89.97,52.276 C89.97,53.788 90.474,55.138 91.806,55.138 Z M93.838,43.688 L96.522,43.688 L96.522,55.208 C96.522,55.75 96.558,56.344 96.594,56.686 L93.894,56.686 L93.822,55.372 C93.642,55.696 93.46,56.038 92.904,56.396 C92.238,56.83 91.536,56.866 91.14,56.866 C88.708,56.866 87.27,55.192 87.27,52.348 C87.27,49.342 88.908,47.47 91.284,47.47 C92.92,47.47 93.606,48.388 93.838,48.712 L93.838,43.688 L93.838,43.688 Z" id="Fill-33" fill="#383837"></path>
        <path d="M104.674,56.56 C103.812,56.794 103.038,56.848 102.606,56.848 C99.922,56.848 99.922,55.154 99.922,54.4 L99.922,49.412 L98.176,49.412 L98.176,47.65 L99.922,47.65 L99.922,45.866 L102.57,44.894 L102.57,47.65 L104.73,47.65 L104.73,49.412 L102.57,49.412 L102.57,53.518 C102.586,54.346 102.586,54.868 103.776,54.868 C104.17,54.868 104.352,54.85 104.674,54.814 L104.674,56.56" id="Fill-34" fill="#383837"></path>
        <path d="M115.062,54.598 L116.952,54.598 C118.23,54.598 119.67,54.598 119.67,52.852 C119.67,50.998 117.996,50.998 116.664,50.998 L115.062,50.998 L115.062,54.598 Z M115.062,48.982 L117.006,48.982 C117.798,48.982 119.238,48.982 119.238,47.306 C119.238,45.686 117.87,45.686 116.952,45.686 L115.062,45.686 L115.062,48.982 Z M112.398,43.688 L117.258,43.688 C118.014,43.688 119.472,43.688 120.462,44.3 C121.65,45.056 121.92,46.316 121.92,47.072 C121.92,47.56 121.83,48.404 121.164,49.018 C121.074,49.124 120.444,49.702 119.688,49.9 L119.688,49.936 C121.668,50.296 122.442,51.736 122.442,53.104 C122.442,54.634 121.542,55.658 120.534,56.162 C119.526,56.686 117.762,56.686 117.258,56.686 L112.398,56.686 L112.398,43.688 L112.398,43.688 Z" id="Fill-35" fill="#383837"></path>
        <path d="M130.38,51.142 C130.38,50.728 130.342,49.108 128.796,49.108 C127.626,49.108 127.14,50.08 127.086,51.142 L130.38,51.142 Z M126.996,52.814 C126.996,53.408 126.996,55.244 128.848,55.244 C129.516,55.244 130.18,54.994 130.434,53.986 L132.864,53.986 C132.828,54.418 132.738,55.192 131.998,55.966 C131.332,56.668 130.146,57.028 128.814,57.028 C128.04,57.028 126.564,56.884 125.61,55.892 C124.782,55.03 124.44,53.806 124.44,52.348 C124.44,50.872 124.8,49.108 126.33,48.046 C127.032,47.576 127.896,47.288 128.886,47.288 C130.18,47.288 131.73,47.792 132.558,49.486 C133.17,50.728 133.134,52.06 133.098,52.814 L126.996,52.814 L126.996,52.814 Z" id="Fill-36" fill="#383837"></path>
        <path d="M135.364,49.826 C135.364,49.396 135.292,48.08 135.24,47.56 L137.742,47.56 L137.794,49.306 C138.136,48.532 138.73,47.432 140.89,47.54 L140.89,49.936 C138.19,49.684 138.028,51.068 138.028,52.204 L138.028,56.686 L135.364,56.686 L135.364,49.826" id="Fill-37" fill="#383837"></path>
        <path d="M142.184,49.216 C142.184,49.18 142.184,48.19 142.132,47.56 L144.688,47.56 L144.758,48.928 C145.01,48.514 145.732,47.342 147.712,47.342 C149.494,47.342 150.248,48.424 150.484,49.052 C150.68,49.612 150.736,50.08 150.736,51.772 L150.736,56.686 L148.016,56.686 L148.016,51.034 C148.016,50.654 148.016,50.33 147.874,50.044 C147.674,49.646 147.26,49.27 146.578,49.27 C146.002,49.27 145.48,49.54 145.192,49.97 C145.03,50.206 144.868,50.654 144.868,51.358 L144.868,56.686 L142.184,56.686 L142.184,49.216" id="Fill-38" fill="#383837"></path>
    </g>
</svg>