<svg version="1.0" xmlns="http://www.w3.org/2000/svg" viewBox="0 0 225 69.1" style="enable-background:new 0 0 225 69.1" xml:space="preserve"><path d="M88.2 34.4c-.8-1.3-2.3-2-3.9-2-2.2 0-4.5 1-4.5 3.6 0 2 1.1 2.8 4.5 3.9 3.3 1 6.4 2.1 6.4 6.3 0 4.2-3.6 6.2-7.5 6.2-2.5 0-5.1-.8-6.5-2.9l2.2-1.8c.9 1.6 2.7 2.4 4.5 2.4 2.2 0 4.6-1.3 4.6-3.7 0-2.6-1.8-3.1-5.5-4.3-3-1-5.3-2.3-5.3-5.8 0-4.1 3.5-6.1 7.2-6.1 2.4 0 4.4.7 5.9 2.5l-2.1 1.7zm21.2-1.4h-7v18.9h-2.5V33h-7v-2.3h16.6V33zm7-2.4h2.4l9 21.2h-2.9l-2.2-5.2h-10.6l-2.2 5.2H107l9.4-21.2zm1.1 3.3L113 44.3h8.7l-4.2-10.4zm13-3.3h8.2c4.2 0 10.4 2.8 10.4 10.6s-6.2 10.6-10.4 10.6h-8.2V30.6zm2.5 18.9h4.8c4.9 0 8.5-2.5 8.5-8.3 0-5.8-3.7-8.3-8.5-8.3H133v16.6zM166.5 33h-7v18.9H157V33h-7v-2.3h16.6V33z" style="fill:#13a538"/><path d="M170.8 30.6h5.1l3.4 13.6h.1l4.4-13.6h4.3l4.4 14h.1l3.6-14h4.7l-6.2 21.2h-4.2l-4.7-14.7h-.1L181 51.8h-4l-6.2-21.2zm32.3 0h4.7v21.2h-4.7V30.6zm8.6 0h4.7v16.9h8.7v4.3h-13.3V30.6z" style="fill:#333"/><radialGradient id="a" cx="43.258" cy="35.083" r="39.384" gradientTransform="matrix(-.4709 .8822 -1.0586 -.565 101.397 16.245)" gradientUnits="userSpaceOnUse"><stop offset=".16" style="stop-color:#333"/><stop offset=".82" style="stop-color:#13a538"/></radialGradient><path d="M6.2 25 0 20.7l6.2-5.4V25zM7.8 8l-.2 17.7L17 12.5 7.8 8zM3 33.4l6 3.2-2.4-9.8L3 33.4zm5.3-5.9 2.5 9.4 18.4-4-20.9-5.4zM30 31.6 18.3 13.7 9.2 26.2 30 31.6zM19.3 12.7l11.6 17.5-3.2-22.3-8.4 4.8zm8.8 21.9L13.2 38l8 3.1 6.9-6.5zM33.7 0l-4.6 6.9L32 27.5 33.7 0zm8.2 6L35.1.7 33.3 29l8.6-23zM45 24.9l-.3 25 5.4.9L45 24.9zM31.3 57l-.1-23.6-8.2 8.1L31.3 57zm-10.7-4.9 9.2 5.1-8-14.6-1.2 9.5zM32.8 58l7.1 2.3-7.3-27 .2 24.7zM52.4 8.2l-9-1.7-8 20.9 17-19.2zm7.9.8-5.1-5.4-4.5 23.3L60.3 9zm10-8L62 8.1l13.9 3.2L70.3 1zm4.5 11.6-13.2-3L51.3 29l23.5-16.4zM49.1 26.7l3.3-16.3-8.6 9.9 5.3 6.4zm26.1-12.4L52.4 30.1l25.1-2.2-2.3-13.6zm1.4-1.4L79 27.1l7.9-6.2-10.3-8zM42 61l6.8.9-14.2-25.8L42 61zm1.1-13.1.3-23.6L33 30.8l10.1 17.1zm8 .3 4.7-11.9-9-9.9 4.3 21.8zm2.2-16.5 5.2 4.6 17.3-6.7-22.5 2.1zM65 35.6l-5.4 2.1 4.4 3.8 1-5.9zM49.9 52.2l-5.1-.7 3.3 6.4 1.8-5.7zm0 5.4 14.8-3.4-7.6-16.5-7.2 19.9zm16.3-4 6.7-1.9-13.7-12.4 7 14.3zM55.1 69.1l6.5-12.4-12.1 2.8 5.6 9.6z" style="fill:url(#a)"/></svg>