<svg xmlns="http://www.w3.org/2000/svg" viewBox="0 0 77.95 56.72"><g data-name="Ebene 2"><path d="M7.57 17.15h.7a2.45 2.45 0 0 1 2.56 2.5c0 .89-.39 1.61-1.31 1.61s-1.33-.74-1.47-1.74l-.17-1.21a3 3 0 0 0-.31-1.16M3.34 18.9c0 1.87.88 3.27 2.64 3.44V21a1.8 1.8 0 0 1-1.5-2c0-1 .45-1.82 1.36-1.82.7 0 .88.47 1 1.08l.25 1.87c.18 1.42.89 2.56 2.45 2.56a2.54 2.54 0 0 0 2.55-2.75 3 3 0 0 0-1.61-2.76h1.43v-1.37H6.13c-1.85 0-2.79 1.16-2.79 3.09m5.42 10.52c-2.44 0-2.9 2.29-3.31 4.06-.32 1.42-.66 2.74-2.14 2.74s-2-1.16-2-2.55.69-2.49 2.03-2.54v-1.45c-2.21.08-3.34 1.87-3.34 4s1.11 3.91 3.37 3.91S6.3 35.72 6.71 34c.29-1.25.6-3.09 2.21-3.09 1.22 0 1.94 1.1 1.94 2.54a2.8 2.8 0 0 1-2.78 3.09v1.53c2.83-.08 4.08-2.34 4.08-4.56s-1.16-4.09-3.4-4.09M10.64 0v1.05c0 1-.48 1.11-1.17 1.11H4.71v-2H3.49v2H.36l.39 1.38h2.74v1.6h1.22v-1.6h4.84c1.94 0 2.31-1.13 2.31-2.34V0Zm0 23.59v1.05c0 .95-.48 1.11-1.17 1.11H4.71v-2H3.49v2H.36l.39 1.37h2.74v1.61h1.22v-1.61h4.84c1.94 0 2.31-1.12 2.31-2.33v-1.2ZM12 10.15a2.79 2.79 0 0 0-1.81-2.52h1.64V6.3H.09v1.38h4.78a2.89 2.89 0 0 0-1.52 2.48v.17c0 2.58 2.18 3.81 4.36 3.81s4.35-1.21 4.35-3.79c-.01-.01-.06-.2-.06-.2Zm-4.36 2.6c-1.59 0-3.08-.75-3.11-2.51s1.52-2.53 3.11-2.53 3.09.78 3.13 2.54-1.48 2.5-3.09 2.5Zm48.94 37.31V31.84h-4.37v7.72a10.83 10.83 0 0 1-.69 4.78 4 4 0 0 1-3.54 2 4.18 4.18 0 0 1-2.11-.55c-1.53-.87-1.46-2.66-1.46-4.15v-9.8H40v10.49c0 2-.11 4.05 1.06 5.76.73 1.09 2.22 2.41 5.25 2.41a8.17 8.17 0 0 0 5.86-2.3v1.86Zm-19.53 0v-4.34H23.53l13.52-17.31v-4.08H18.17v4.3H31L17 46.12v3.94Zm36.66-9.69a4.67 4.67 0 0 1-1.24 3.43 4.21 4.21 0 0 1-3.24 1.2 4.84 4.84 0 0 1-2.18-.47 4.58 4.58 0 0 1-1.17-.88 5 5 0 0 1-1.17-3.46 5.15 5.15 0 0 1 1.29-3.6 4.33 4.33 0 0 1 3.2-1.39 4.17 4.17 0 0 1 4.22 3.13 5.82 5.82 0 0 1 .29 2m4.23 6.45v-15H73.6v1.93a5.54 5.54 0 0 0-1.27-1.31 6.65 6.65 0 0 0-3.86-1.17 8 8 0 0 0-7.62 5.14 11.08 11.08 0 0 0-.62 3.9c0 5 2.62 7.18 4.56 8a7.93 7.93 0 0 0 3.31.73 8.32 8.32 0 0 0 5.5-1.93c0 2 0 3.55-.47 4.5s-1.6 1.71-3.79 1.71c-.33 0-2.33 0-3.28-1.35a2.33 2.33 0 0 1-.44-.91h-4.81a8.68 8.68 0 0 0 1.13 3c1.13 1.61 3.14 2.74 7.22 2.74s6.48-1.24 7.61-2.77c1.39-1.86 1.17-5 1.17-7.13" data-name="Ebene 1"/></g></svg>