<svg xmlns="http://www.w3.org/2000/svg" viewBox="0 0 660.31 250.17"><defs><clipPath id="a"><path style="fill:none" d="M0 0v250.17h212.33V0"/></clipPath></defs><path style="stroke:#1d1d1b;stroke-width:3px;fill:none" d="M210.05 102.37h450.26"/><path d="M2.28 2.27v141.97C2.4 201.51 48.87 247.9 106.16 247.9s103.77-46.39 103.89-103.66V2.27H2.28" style="stroke:#1d1d1b;stroke-width:3px;fill:#e63027"/><g style="clip-path:url(#a);fill:none"><path d="M2.28 2.27v141.97C2.4 201.51 48.87 247.9 106.16 247.9s103.77-46.39 103.89-103.66V2.27H2.28Z" style="stroke-width:.7px;stroke:#1d1d1b;fill:none"/></g><path d="M117.79 15.42c-.37 1.21 0 2.44.85 3.28 3.85 1.22 7.33-1.32 10.34-3.28 0 .84-.66 1.41-.66 2.25-.75.47-.56 1.6-.38 2.26.47 1.6 1.96 2.26 3.49 2.35 1.96.09 3.74-.19 5.23-1.13.66-.28 1.24-.57 1.9-.57.19.57-.96.57-1.24 1.13-.54.75-.83 1.88-.44 2.73l1.68 2.44c1.87 1.68 4.89 2.34 7.15 1.12l2.06-.76.19.28c-1.22 1.13-1.7 3.01-1.32 4.8.85 1.97 2.93 2.44 4.62 3.1 1.29 0 2.35-.18 3.48-.66l.19.1c-1.6 2.25-2.74 5.26-1.05 7.7 1.14 1.79 3.12 3.29 5.26 3.19l2.27-.75c-1.04.75-1.97 1.6-2.53 2.72-.49 1.14 0 2.17 0 3.29.93 1.79 2.64 3.76 4.89 3.48 1.03-.09 1.96-.56 3-1.03-1.5 1.97-3.48 3.67-3.86 6.1.2 1.42.29 3.2 1.69 4.04.77 1.23 2.09 1.97 3.49 1.88.28.19.09.57-.09.75-1.41.66-2.07 2.25-2.35 3.66-.09 1.03.09 1.98.47 2.91 1.32 1.6 2.82 2.91 4.89 3.1l.11.28c-1.51.18-2.64 1.32-3.49 2.35-.75 2.06.09 4.22.94 5.92.93.75 2.17.75 3.19 1.13v.28c-1.59.85-3.75 2.17-3.85 4.04-.47.75-.19 1.69.09 2.44.47 1.6 2.17 1.88 3.57 2.16.28.76-.74.38-1.02.85-1.79.66-3.67 2.35-3.67 4.42-.1.95.47 1.51.85 2.26.75.56 1.6.56 2.45.84-.56.57-1.6.75-2.54.75-1.89.38-3.68.94-4.98 2.25.09 1.88.38 3.86.65 5.83.86 1.87 3.2 1.69 4.71 2.72l1.7.57c3.38 2.16 7.13 3.28 10.05 6.2 1.12.84 2.33 1.41 3.39 2.54-.58 3.76-1.8 7.14-3.03 10.53-1.02 3.1-2.62 6.02-3.74 9.02-.47.38-.56.84-.66 1.32-2.45 4.69-4.89 9.49-7.9 13.98-.75.58-.75 1.52-1.41 2.17-1.32-.19-1.97-1.4-3.11-1.96-.65-.28-1.01-1.13-1.77-.94-.76 1.4-1.59 2.91-2.43 4.31 0-.08-.13-.18-.13-.18-1.29 2.36-2.25 4.89-3.57 7.34-1.5 3.09-3.94 5.73-5.53 8.73-3.39 4.89-8.19 8.47-12.13 12.77-2.64 2.17-4.41 4.79-6.39 7.53-1.42 2.16-2.91 4.24-4.32 6.39-1.31 3.47-3.57 6.57-5.45 9.77-1.79 2.16-2.91 4.6-4.97 6.56-1.32 2.07-3.39 3.12-4.91 5.09-1.03.83-2.23.28-3.27-.19-3.86-1.89-3.2-6.58-4.43-9.88-.09-2.79-.27-5.91 0-8.81.19-2.54.38-5.18-.27-7.71-.19-2.26-1.51-4.23-3.11-5.73-1.7-2.06-4.13-3.19-6.2-4.79-1.51-2.73-4.8-3.85-5.92-6.77-1.7-2.92-3.94-5.53-5.08-8.74.46-.66 1.4-.83 1.96-1.13 3.29-1.69 7.8-.83 11.65-1.4 4.89-.47 9.59.27 14.37.46l3.29.1c.85.46 2.07 0 2.92.37 2.81.65 6.01.55 8.91.93 1.42-.38 3.02-.55 3.85-1.98.85-1.49 2.72-1.58 3.21-3.28 1.4-2.44 2.45-5.07 2.81-7.88v-5.27c-.1-.27-.27-.65-.56-.94-1.12.29-1.32 1.69-2.35 2.07l-2.44-1.78c-2.64-1.13-4.99-2.91-7.62-4.14-1.13-.57 0-1.79.38-2.45.18-1.04.64-1.98.64-3.11-.64.1-1.59 0-2.25-.27-.66-.94.56-1.5.47-2.35l.19-1.59c.29-5.07 1.13-11.09-1.97-15.14-1.13-2.54-3.85-3.76-5.53-5.54-2.45-2.17-5.45-3.95-8.18-5.74l-.19.19c.1 3.01-.09 5.91-1.13 8.55-.74 3.11-3 5.46-5.17 8l-3.29 2.06c-.38.09-.83 0-1.13.37-1.87-.65-2.43-2.99-3.75-4.41-1.5-1.78-2.62-3.94-3.56-6.01l-1.13-1.68c-.56.37-1.32-.09-1.6-.66-3.49-6.68-4.89-14.28-7.61-21.14.1-.86-.56-1.32-.85-1.98-11.08-4.89-21.89-10.81-32.32-17.39-1.13-.75-2.45-1.22-3.57-2.06-3.11-2.17-6.3-4.04-8.93-6.77-1.41-.94-3.01-2.26-4.05-3.57-2.72-2.44-5.54-5.26-7.7-8.18-.94-.93-1.22-2.34-1.03-3.75.56-1.32 1.79-2.44 3.37-2.44 1.79.75 3.02 2.91 5.07 2.63-1.21-1.78-3.37-2.73-5.07-4.13-.45-1.13-.28-2.45.09-3.57 1.7-1.69 4.13-2.63 6.3-3.67 3.58-1.13 7.79-.94 11.56-1.5 7.06-.56 14.67-.56 21.24-2.82 1.88-.38 3.86-.75 5.74-1.42 1.87-.75 3.85-.66 5.73-1.4 3.38-.46 6.67-1.22 10.06-1.68 2.71-1.42 2.33-4.8 4.41-6.78.37-1.5 1.68-2.63 2.81-3.66 1.41-.86 2.81-1.98 4.53-2.63-.09.65-.94 1.02-.57 1.78.48.75 1.39.38 2.07.38.74-.38 1.4-.29 2.15-.84l4.89-4.98c.77-.57 1.6-1.04 2.45-1.6-.38.66-.66 1.41-.56 2.26 1.03 1.04 2.54.56 3.77.37 2.72-1.6 5.53-2.9 8.09-5.07.37.56-.49.75-.49 1.13" style="fill:#1d1d1b"/><path d="M116.86 20.59c1.21.57 2.44.85 3.75.94l.18.38c-4.69 5.27-7.23 11.65-10.06 17.76-.92.47-1.89-.29-2.81-.47l-2.17-1.04c.28-3 1.6-5.73 2.54-8.55 1.4-3.37 2.9-6.67 5.26-9.67.93-1.98 2.24.37 3.29.65m-7.22 1.5c-.86 2.44-2.35 4.8-3.48 7.33-1.21 2.16-2.07 4.51-2.83 6.86l-.74 1.04c-1.6-.38-3.39-.57-4.99-1.23-.48-1.97 1.13-3.28 1.5-5.17 1.13-3.47 2.71-6.86 4.98-9.96 1.51 1.23 3.68 1.13 5.55 1.13m18.53 2.07 3.1.48-.18.56c-2.73 2.82-4.9 6.01-7.14 9.02 0 .66-.75.75-.75 1.32-.85 1.41-1.98 2.62-2.36 4.13-.75 1.22-1.03 2.63-2.16 3.67-1.97-.1-3.38-1.6-5.07-2.26-.29-.85.65-1.51.74-2.35.38-1.78 1.04-3.29 1.98-4.88-.19-.66.66-.94.66-1.6 1.32-3.01 3-5.92 5.08-8.65 1.03-.66 1.03-2.16 2.26-2.53 1.12 1.31 2.24 2.44 3.85 3.1m6.76 1.59c.83 2.06 2.34 4.22 4.68 4.79l.85.57c-.85 1.51-2.62 2.44-3.77 3.76-3.93 3.85-7.04 8.26-9.95 12.59l-.66.18c-1.41-1.02-3.1-1.68-4.41-2.81l-.19-.47 2.17-4.89 2.26-3.58.08-.74c.94-1.31 2.07-2.63 2.83-4.04 1.98-1.88 3.38-4.6 5.36-6.21.76-.27.57.57.76.85m-37.04.75c-.57 3.09-2.74 5.73-3.29 8.82-1.89.56-3.85-.08-5.83-.27.19-3.21 1.89-5.84 3.94-8.38 1.23-1.12 2.55.76 4.04 0l1.13-.18m45.87 6.12c-.1.84 1.03 1.6 1.59 2.26.84.94 1.88 1.5 2.92 2.16-.1.57-.85.57-1.21.93-4.05 2.92-7.53 6.76-10.73 10.43l-3.09 3.66c-.86 0-1.59-.66-2.16-1.13-.57-.57-1.6-.85-1.98-1.68 2.44-5.36 6.49-9.88 10.42-14.48l3.48-3.01c.66-.19.48.57.76.85m-52.16 5.74c3.37.28 6.86 1.32 10.33 1.79 7.53 2.07 14.67 5.08 21.42 9.12 3.01 1.68 5.92 3.94 8.75 6.1 6.22 5.36 11.56 11.56 15.79 18.42 1.42 2.35 2.54 4.7 3.77 7.14 1.68 2.92 2.89 6.21 3.85 9.49 1.51 2.82 1.68 6.02 2.8 8.93 1.05 4.22 2.07 8.46 2.83 12.69.29 2.25.66 4.42.76 6.77.39 2.53.19 5.63.39 8.27-.2 1.58-.39 3.47-.2 4.98-.85 4.71-.38 9.39-1.79 13.9.19 2.92-1.13 5.45-1.49 8.19-1.98 6.2-4.61 12.12-7.99 17.75-2.16 3.29-4.51 6.41-7.14 9.32-.94 1.49-2.92 2.34-3.86 3.85-1.21.45-1.48 1.88-2.72 2.53l-4.8 5.08c-6 7.79-9.95 16.27-15.49 24.24-1.51 1.61-2.91 3.58-4.52 5.09-.85.66-1.61 1.96-2.73 1.4-1.12-.84-1.43-2.26-1.12-3.39 1.31-1.02 1.7-2.6 2.81-3.93 6.02-8.56 13.36-16.45 20.68-24.24 1.42-1.41 3.02-2.64 4.04-4.23.74-.56 1.61-1.32 1.79-2.16-.17-.49-.74-.75-1.13-.57l-1.41.76c.2-.38.47-1.13-.27-1.4-1.81.18-2.83 1.86-4.34 2.72-8.54 6.85-16.44 14.56-23.77 22.92-.56-1.79 0-3.85.19-5.75 6.29-5.53 12.97-10.14 19.54-15.12 2.17-1.79 4.7-2.81 6.68-4.78.19-.58-.18-1.24-.75-1.32-.95.46-.66-.58-1.02-.94-.3-.39-.96-.39-1.24-.1-5.74 3.58-11.56 6.97-17.58 9.97-.75.27-1.41.66-2.15.93-1.79.66-3.38 1.79-5.27 2.26-.95-.85-1.68-2.07-2.44-3 .19-.3.83-.76 1.4-.96 6.03-1.4 11.65-3.95 17.49-5.91 2.81-1.6 6.02-2.25 8.73-4.05.19-.37.1-.93-.08-1.33l-.67-.38c.38-.36.75-.93.28-1.4-.28-.56-.93-.47-1.4-.28-6.48 2.06-13.15 3.38-20.02 4.61-4.78.94-9.5 1.6-14.66 1.9-1.41-1.24-2.63-2.82-3.39-4.44v-.27c1.23-.38 2.92-.29 4.15-.29 5.92 0 11.56-.09 17.28-.09.87-.09 1.6-.09 2.44-.28l7.9-.55 7.04-1.05c.38-.38 1.05-.94.86-1.7-.76-.83-1.98.11-2.92-.27 3.86-1.04 7.43-4.13 9.4-7.72 1.32-2.53 2.36-5.37 2.43-8.35.39-2.34 0-5.08-.27-7.62-.58-.56.08-1.78-.66-2.44-.11-1.21-.65-2.44-.77-3.57-1.85-4.13-3.36-8.35-6-12.12-.66-1.68-2.16-2.91-2.72-4.68-5.83-6.78-12.7-12.79-20.01-17.67-4.71-3.21-9.69-5.73-14.47-8.74-1.51-.38-2.64-1.51-4.04-2.07-1.97-1.22-4.33-2.06-6.39-3.2-2.92-2.15-6.31-3.09-9.21-5.07-2.45-.93-4.79-1.97-7.14-3.29-1.88-1.12-4.14-1.68-5.93-3-2.07-.94-3.94-2.35-5.92-3.48 0-.75 1.32-.09 1.88-.56 4.52-.28 8.83-1.7 12.59-4.04 2.16-.85 3.76-2.73 5.73-3.95 3.09-2.07 6.2-4.32 9.01-6.95.19-.39-.28-.66-.56-.66-5.08 2.44-9.76 6.1-14.65 8.93-1.79 1.4-3.85 2.06-5.83 2.91-5.36 1.6-11.74 1.6-16.81-.66-3.96-2.07-7.52-5.17-11.1-7.81-1.4-1.49-3.1-2.82-4.61-4.23-2.45-2.25-4.88-4.22-7.04-6.39-.57-.93-1.32-1.88-1.32-3.09 1.04-.75 1.79.66 2.54 1.04 1.61.74 3.1 1.68 4.98 1.78 1.23 1.51 1.51 3.39 2.82 4.89 1.88 2.82 4.51 4.98 7.5 6.1.3.09.85.19.94-.28-1.02-1.31-2.63-2.15-3.85-3.38-4.59-4.23-4.21-11.47-9.67-14.75-.47-.76-1.43-.47-1.7-1.32-.37-1.79 1.78-1.89 2.72-2.63l4.05-1.31c3.19-.57 6.48-.85 9.76-1.04 5.08-.19 10.16-.28 15.23-1.22 6.86-2.07 14.1-3.29 21.05-5.08 1.7-.28 3.57-.47 5.19-.38.93-.28 1.96.19 2.99 0l4.23.19m59 1.57c-.17 2.91 1.7 5.36 4.15 6.68l-.11.38c-5.62 2.62-10.05 7.32-14.65 11.45-1.41-.18-1.8-1.88-2.92-2.45l-1.49-1.59c1.88-4.04 4.96-7.41 8.07-10.62 1.97-2.07 4.32-4.04 6.87-5.26.38.38 0 1.04.08 1.41m5.66 8.93c.19 1.78-.12 3.94 1.6 5.26l1.95 1.97c-1.59 1.21-3.46 2.25-5.17 3.28-2.99 1.88-5.53 4.23-8.45 6.11-1.77-1.13-2.81-2.91-4.13-4.51.38-1.23 1.42-2.07 2.17-3.1 2.53-3.29 5.91-5.54 9-8.08 1.15-.19 1.9-1.79 3.03-.93" style="fill:#fff"/><path d="M64.14 58.83c-.28.66-.65 1.32-.38 1.98-.76 3.57-1.79 7.04-2.63 10.52-1.13 1.79-3.01 2.54-4.88 2.83-3.68-.57-7.35-1.32-9.78-4.04-.09-.29-.19-.85.28-.85 3.58.75 7.04 3.01 10.71 1.98 1.78-.84 2.34-2.82 2.72-4.51 1.32-3.49 2.17-7.15 3.57-10.73l.28-.08c1.03.75 0 1.97.09 2.91" style="fill:#1d1d1b"/><path d="M160.26 58.27c.19.84.09 1.78-.08 2.53.18 2.16 1.69 3.86 3.2 5.36-2.07 1.5-4.6 2.26-6.68 3.85-1.77 1.03-3.19 2.63-5.17 3.48-1.59-.66-1.59-2.35-2.72-3.48-.19-.65-.84-1.31-.75-1.97 3.38-3.95 7.71-7.04 11.92-9.77h.28m2.92 10.61c-.19 2.07.19 4.14 1.32 5.74.08.75.93 1.22.85 1.97-3.3 1.41-6.68 2.72-9.68 4.79-.66.47-.85-.38-1.14-.75-.66-1.32-.93-2.72-1.77-3.94v-.29c2.92-2.91 6.37-6.1 10.24-7.7l.19.18" style="fill:#fff"/><path d="M94.21 72.08c6.01.94 11.65 2.82 17 5.65.57.75.46 1.96.28 2.82-.46.75-.93 1.31-1.39 1.96-2.45 3.48-6.12 6.11-9.69 8.08-4.88 1.6-11.38 2.16-15.79-.93-2.45-1.6-4.79-4.33-7.14-6.11l-2.91-2.16v-.75c1.59-1.78 2.62-3.57 3.19-5.82.1-.75.29-1.88 1.03-2.36 5.08-.75 10.16-.94 15.42-.38" style="fill:#1d1d1b"/><path d="M107.74 78.76c.46.28.94.65.94 1.22-.09.38 0 .94-.58.94l-6.19-3c-2.35-1.04-4.89-1.51-7.33-2.18-2.26-.64-4.69-.64-6.86-1.4-.47.28-1.14 0-1.79 0-.08-.19.19-.09.28-.19 7.52.09 14.95 1.59 21.52 4.6m-26.49-3.28.28.1-.28-.1m2.17.47-1.42-.2c.37 0 1.04-.28 1.42.2m13.52 2.34c.95.66 2.25.48 3.1 1.13 2.26.94 4.42 1.88 6.39 3.48.28.38.1.85-.28 1.13-1.32 1.78-2.07-.75-3.28-1.04-.95-.75-2.07-1.13-3.01-1.88l-3.84-1.79c-3.77-1.59-7.71-2.44-11.74-3.38 4.32.09 8.63 1.12 12.67 2.34m-11.29-.35c2.45.36 4.79 1.22 7.05 2.06 2.55 1.13 5.08 2.35 7.45 3.86 1.11.37 1.86 1.31 2.9 2.06.18.47-.28.85-.66 1.04-.76.47-1.51-.19-2.17-.56-4.04-3.1-8.46-5.82-13.15-7.34-1.04-1.12-2.81-.28-3.86-1.4l-1.12-.48c1.12.39 2.53 0 3.56.76m5.64 4.87c2.54 1.41 5.18 3.2 7.23 5.36-.18.47-.83.47-1.22.65-2.06-.94-3.75-3.02-5.73-4.13-3.19-2.36-6.77-4.23-10.15-6.11.93.19 1.88.47 2.72.84l7.14 3.38m74.9 2.74-.17.27c-2.54 1.23-5.17 1.99-7.81 3.02-1.11-1.22-1.41-3.02-1.87-4.61l.18-.37c2.83-1.69 5.36-3.95 8.55-4.89-.47 2.16-.09 4.61 1.13 6.58M83.12 81.1c.66.85 1.69 1.32 2.74 1.69 2.43 2.08 5.25 3.86 7.5 6.2-2.71 1.13-3.85-2.34-5.73-3.66-2.73-2.07-5.53-4.51-8.46-6.02l.19-.18c1.23.84 2.44 1.31 3.76 1.97m-2.91.85c2.53 1.6 5.26 3.84 7.24 6.21-1.13-.09-2.27-.85-3.3-1.7-1.41-1.59-3.47-3.2-4.79-4.79l-1.12-.85.09-.19c.66.38 1.22.84 1.88 1.32m85.5 6.38c-.75 1.7-1.21 4.42.38 5.93-1.4.93-3.29 1.04-4.88 1.69-.29.09-.57.48-.94.28-.47-1.51-1.02-3.01-1.4-4.51.93-1.4 2.53-1.78 3.94-2.54.95-.2 1.78-.86 2.91-.86m-.01 8.39c-.66 1.41-1.68 3.19-.84 4.79l.37.85c-.95.56-2.16.84-3.29.75-.28-1.22-.75-2.54-.85-3.95l.19-.55c1.31-.57 2.35-1.52 3.75-1.89h.66m-79.48 7.42c.94 3.2 1.7 6.3 2.81 9.39 1.05 1.79 1.62 3.86 2.92 5.55.75 2.44 2.91 4.32 4.12 6.48l2.44 2.92c.09.66-.56 1.03-1.02 1.22-1.42 0-1.78-1.5-2.91-2.26-1.32-1.88-2.54-3.66-3.48-5.64-1.13-1.69-1.87-3.57-2.34-5.54-1.22-2.54-1.41-5.36-2.54-8.08-.19-1.22-.37-2.45-.85-3.67.1-1.41-.47-2.44-.28-3.85.85.94.56 2.44 1.13 3.48m4.7 2.06c.37 1.6 1.78 2.83 2.25 4.41 1.7 2.06 3.3 4.23 5.17 6.21l4.79 4.32c.75.84 0 1.69-.08 2.44-.28.28-.66.47-.85.19-5.09-4.61-8.57-9.87-11.37-15.7-.09-1.22-.94-2.25-.75-3.38.57.28.36 1.03.84 1.5m2.91.39c.38 1.12 1.5 1.88 2.43 2.64 2.26 2.81 5.08 4.88 7.71 6.94.96.66.28 1.78.19 2.55l-.45-.09c-2.26-1.32-4.24-3.48-6.12-5.37-.56-.57-.94-1.22-1.59-1.69-1.51-2.06-3.21-4.41-3.96-6.76.94.28 1.03 1.31 1.79 1.78M85 110.89c.66 1.6.86 3.57 1.6 5.07 0 .28.1.38-.09.57-.38-.75-.94-1.41-.85-2.45-.28-1.03-.85-2.06-.85-3.2-.66-.46-.27-1.41-.75-2.07-.08-.95-1.64-7.32-1.55-8.26.66 1.5 2.11 8.72 2.49 10.33m16.63-1.31c-.18.75.76.28 1.13.57l1.21 1.12c.09.66.67 1.6 0 1.98-1.49-.18-2.34-1.98-3.75-2.35-1.13-1.6-3.11-2.44-3.95-4.13-.09-.1-.46 0-.36-.28 2.06.66 3.85 1.98 5.72 3.09" style="fill:#fff"/><path d="M89.7 109.77c.65.75.65 1.97 1.51 2.53 2.53 4.98 6.38 9.12 10.05 13.34 0 .48-.28 1.13-.85 1.32-3.84-3.48-6.96-8.08-9.02-12.69-.83-.56-.55-1.7-1.13-2.54-.09-.94-1.23-1.51-.84-2.72.09.19.48.46.28.75m79.03 7.62c-1.22.19-2.64-.38-3.85-.46-.47 0-.19-.57-.38-.86.28-.57 1.21-.27 1.68 0 .76.48 1.79.48 2.54 1.32m4.14 3c1.3.66 2.63 1.23 4.04 1.88 1.05.76 2.44.94 3.39 2.17 0 .28-.27 1.12-.76.66-4.51-2.17-8.93-4.6-14.18-5.08-.47-.18-.85-.74-.3-1.13 2.73.19 5.26.66 7.81 1.5m-2.54 2.64c1.98.56 3.75 1.59 5.73 2.35.94.75 2.07 1.31 3.19 1.97.09.09.09.28.09.47-2.8-.66-5.35-2.26-8.16-3.1-2.07-.57-4.05-1.32-6.12-1.79-.18-.19-.18-.66 0-.84l.3-.2c1.59.29 3.37.57 4.97 1.14m8.19 7.05c.1.19.37.37.27.65-.83 0-1.79-.46-2.64-.84-1.21-.75-2.71-.86-3.85-1.69-2.44-.56-4.79-1.32-7.24-1.89-.09-.27-.27-.66 0-1.03.66-.56 1.79-.28 2.64 0 3.77 1.22 7.4 2.54 10.82 4.8m-4.34.94c1.41.37 2.64 1.21 3.69 2.05.09.49-.3.94-.75.67-3.76-1.88-8.09-2.71-12.05-4.04-.09-.38-.27-.75-.18-1.13l.65-.38c3.01.56 6.02 1.22 8.64 2.83m-48.01 3.56c0 1.62-.19 3.12-.47 4.71l-.28.38-.28-.38c.28-2.73.09-5.65.19-8.45.38-.66-.57-1.24-.29-1.88 1.6 1.22 1.43 3.94 1.13 5.62m46.42-.65c1.49.46 3.11 1.02 4.32 2.08 0 .46-.19.93-.55 1.02-3.77-1.51-7.33-3.39-11.29-4.33-.18-.27-.47-.74 0-1.02 2.64.47 5.37.75 7.52 2.26m-43.6 2.33c-.28 1.98-.28 4.15-.75 6.11-.38 2.15-.66 4.51-1.51 6.49-1.13-.75-.09-2.17 0-3.21.76-4.04 1.32-8.35 1.7-12.41.56.86 1.04 1.88.56 3.01m42.11.2c1.49.85 3.18 1.42 4.4 2.73.29.28-.18.55-.27.75-3.57-1.23-6.96-2.64-10.43-3.94-.2-.39-.28-1.05.18-1.24 2.17.3 4.14 1.05 6.12 1.7m-39.86 1.79c.39 2.63-.09 5.35-.46 7.98-.29 1.33-.39 3.02-1.22 3.96-1.6-.56-.38-2.54-.47-3.76.83-2.82.83-5.62 1.4-8.64.48-.19.48.37.75.47m42.38 3.37c.19.28.66.45.55.95l-.37.19c-3.2-1.13-6.2-2.72-9.39-3.77-.11-.27-.11-.37-.11-.65l.28-.28c3.3.56 6.22 1.78 9.03 3.57m-.64 3.57c-.09.36-.2.65-.47.83-1.97-.56-3.76-1.59-5.64-2.25l-2.81-1.41c-.11-.38-.11-.66-.11-1.02.66-.56 1.6 0 2.37.18 2.34.85 4.59 2.16 6.66 3.67m-39.47-1.05c.17 2.45-.09 4.8-.85 7.05-.09.57-.75.37-1.13.19-.46-2.15.66-3.94.84-5.92-.1-1.21.68-2.15.49-3.39.75.49.2 1.43.66 2.08m37.21 3.29c.38.38.84.85.47 1.32-.66.28-1.24-.47-1.88-.56-1.88-.75-3.49-2.36-5.54-2.81-.19-.3-.19-.86.28-.86 2.34.56 4.51 1.69 6.67 2.92m-.95 3.74c.1.37-.37.57-.66.68-1.23-.68-2.64-1.24-3.58-2.27-.94-.19-1.87-.85-2.34-1.5l.08-.47c2.45.47 4.9 1.49 6.5 3.56m-34.59-1.22-.66.96c-.27-.49 0-1.05.2-1.42l.19-1.32c.56.28.47 1.13.27 1.78m32.43 3.11c.09.46 1.03.94.37 1.5-1.13.46-1.68-1.13-2.73-1.22-.83-1.12-2.35-1.12-2.81-2.36 0-.56.56-.65.94-.38 1.21.56 2.64 1.03 3.66 2.07l.56.38m-1.13 3.48c.1.47-.37.75-.75.85-1.42-.74-3-1.68-4.04-2.92l.28-.94c1.6.67 3.39 1.61 4.51 3.01m-51.67 17.77c3.66.38 7.05 1.02 10.8 1.21-.38.19-.85.19-1.13.11-5.43 1.21-10.79 1.13-16.36 1.59-3.17.09-6.29.09-9.29.28-1.61-.09-3.38-.19-4.79 0l-5.26-.28c-.47-.75-1.03-1.7-.65-2.63.92-.58 2.24-.28 3.37-.58 5.63-.27 11.1-.46 16.73-.08l3.85.28 2.73.09m13.82 5.55c-6.11 3.38-12.88 5.62-19.64 7.79-2.83.94-5.56 1.88-8.46 2.45-1.61-1.04-3.3-1.98-4.6-3.66l.09-.47c8.54-1.32 17.19-2.45 25.46-4.43 2.24-.66 4.79-1.11 7.05-1.79l.09.11m1.88 10.81c-.18.93-1.31 1.13-1.69 1.97-2.83 2.44-4.98 5.45-7.61 8.18-4.41 5.07-8.44 10.15-12.42 15.5-.27.56-.73 1.05-1.21 1.5-.94-1.21-.76-3.09-.85-4.79 2.82-4.04 6.29-7.51 9.79-11.09 3.65-3.56 7.42-7.04 11.18-10.42 2.53-1.5 4.59-3.95 7.24-5.54-1.42 1.4-2.92 3.37-4.43 4.69m-5.26-3.39c-1.4 1.51-3.28 3.01-5.17 4.04l-.38.58c-2.34 1.4-4.41 3.55-6.68 4.98-.74.92-1.66 1.21-2.62 1.96l-3.29 2.64c-.76-.38-.29-1.61-.85-2.26-.28-.76-.47-1.78-.28-2.53 6.49-2.92 12.98-6.02 19.17-9.4h.09" style="fill:#fff"/><path d="M54.73 51.93c0 3.13-2.54 5.67-5.65 5.67s-5.67-2.54-5.67-5.67 2.55-5.65 5.67-5.65 5.65 2.54 5.65 5.65" style="fill:#1d1d1b"/><path d="M53.07 51.93c0 2.21-1.79 4-3.99 4s-4-1.79-4-4 1.77-3.99 4-3.99 3.99 1.79 3.99 3.99" style="fill:#fff"/><path d="M52.39 51.93c0 1.84-1.48 3.34-3.31 3.34s-3.34-1.5-3.34-3.34 1.49-3.32 3.34-3.32 3.31 1.49 3.31 3.32m233.45-27.92h-6.78l-.76-2.3c-2.4-7.21-7.81-11.32-16.15-11.53-14.18-.33-25.56 11.77-24.95 32.88.62 21.06 10.42 30.85 28.32 30.43 3.84-.08 7.48-.66 10.81-1.66l3.58-1.09V47.07h-17.73v-5.48h24.06V75.5l-5.22 1.13c-7.11 1.56-12.76 2.2-17.67 2.28-19.13.27-30.93-10.85-32.92-33-.15-1.5-.2-3-.2-4.5-.04-13.89 5.53-24.93 13.85-30.8 6.16-4.38 13.42-6.35 20.26-5.73 10.34.92 18.5 7.85 20.84 16.62l.68 2.53Zm53.95 29.78h-36.92l.37 3.47c1.11 10.62 7.23 16.58 15.49 16.91 7.11.27 12.21-3.59 13.93-10.4l.5-1.99h5.5l-.49 2.48c-1.85 9.23-9.04 14.94-19.98 14.53-13.25-.49-21.93-10.03-21.62-26.05.33-17.08 9.82-26.61 22.77-26.53 12.17.06 19.98 8.14 20.36 23.78l.08 3.8Zm-5.88-5.05-.22-2.9c-.74-9.31-6.73-14.77-14.61-14.86-8.04-.08-13.73 4.75-15.78 14.86l-.6 2.9h31.21Zm22.58-21.34-.04 6.7.06.04 2.33-2.44c3.55-3.7 7.73-5.45 13.4-5.41 6.52.04 11.13 2.53 14.28 7.36l1.63 2.51 1-1.64c2.51-4.13 6-6.56 10.87-7.64 2.14-.47 4.31-.62 6.49-.45 10.07.84 15.61 7.19 15.61 17.51l.02 33.6h-6.1V48.65c0-1.11-.02-2.22-.04-3.31-.23-9.45-4.4-13.95-11.98-13.89-5.24.02-9.43 2.34-11.96 6.47-1.73 2.86-2.24 5.1-2.24 10.85l.06 28.62h-6.27l-.02-31.34-.04-1.93c-.34-8.2-5.3-13.11-12.21-12.93-2.5.06-4.99.76-7.2 2.05-4.12 2.4-6.01 5.49-6.84 11.75-.1.7-.15 1.42-.19 2.14l-.04 4.93v25.23h-6.31V40.14c0-4.46-.2-8.57-.62-12.74h6.33Zm120.07 26.39h-36.93l.37 3.47c1.11 10.62 7.24 16.58 15.5 16.91 7.11.27 12.21-3.59 13.93-10.4l.49-1.99h5.52l-.5 2.48c-1.85 9.23-9.04 14.94-19.97 14.53-13.26-.49-21.93-10.03-21.62-26.05.33-17.08 9.82-26.61 22.77-26.53 12.16.06 19.98 8.14 20.36 23.78l.08 3.8Zm-5.88-5.05-.23-2.9c-.74-9.31-6.71-14.77-14.61-14.86-8.03-.08-13.72 4.75-15.78 14.86l-.6 2.9h31.21ZM487.3 6.01h6.56v7.23h-6.56V6.01Zm0 21.55h6.56v49.67h-6.56V27.56Zm25.93-.08-.05 7.97.07.02 1.25-1.69c3.52-4.64 8.82-7.21 15.48-7.25 1.09 0 2.18.06 3.27.21 8.98 1.19 14.29 7.11 14.29 17.49v33.29h-5.96l-.04-32.49-.06-1.95c-.34-7.44-4.65-11.69-12-11.96-9.79-.35-15.9 6.19-15.9 21.23V77.3h-6.29V41.13l-.46-13.64h6.41Zm83.45 8.37.08-.02-.08-29.67h6.25v71.08h-6.25l.06-8.36-.08-.02-1.38 1.77c-4.21 5.28-9.2 7.97-14.59 8.3-12.78.8-23.11-9.23-22.95-26.59.12-15.62 9.95-25.71 21.7-26.02 6.66-.18 12.74 2.92 16.07 7.81l1.17 1.73Zm-15.95 38.32c8.55-.1 16.2-8.24 15.86-23.38-.08-4.05-.57-6.74-1.47-9.02-2.82-7.19-8.24-10.95-14.63-10.87-8.19.08-16.01 7.87-16.22 21.62-.25 13.93 7.28 21.8 16.46 21.66Zm76.77-20.38h-36.93l.38 3.47c1.11 10.62 7.23 16.58 15.49 16.91 7.11.27 12.21-3.59 13.93-10.4l.5-1.99h5.5l-.49 2.48c-1.85 9.23-9.04 14.94-19.98 14.53-13.25-.49-21.92-10.03-21.62-26.05.33-17.08 9.83-26.61 22.77-26.53 12.17.06 19.98 8.14 20.36 23.78l.08 3.8Zm-5.88-5.05-.22-2.9c-.74-9.31-6.73-14.77-14.61-14.86-8.04-.08-13.73 4.75-15.79 14.86l-.6 2.9h31.22ZM238.3 127.36l17.31 66.17h.08l21.21-66.03h7.46l21.6 66.1h.08l16.89-66.03h6.75l-19.98 71h-8.36l-20.63-64.9h-.08l-20.76 64.82h-9.27l-19.52-71.14h7.23Zm133.71 47.63h-36.93l.37 3.47c1.11 10.63 7.24 16.58 15.5 16.91 7.11.27 12.21-3.6 13.93-10.4l.49-1.99h5.51l-.5 2.48c-1.85 9.23-9.04 14.94-19.97 14.53-13.26-.49-21.93-10.02-21.62-26.05.32-17.07 9.82-26.61 22.77-26.53 12.17.06 19.98 8.14 20.36 23.77l.08 3.8Zm-5.88-5.05-.23-2.9c-.74-9.31-6.71-14.78-14.61-14.86-8.03-.08-13.72 4.75-15.78 14.86l-.59 2.9h31.21Zm52.89-12.41.08-.02-.06-8.65h6.04l-.02 40.36-.05 4.91c-.04 2.86-.25 5.9-.68 9.23-1.18 9.17-8.47 15.43-21.58 15.52-11.96.08-18.63-5.43-19.5-12.5l-.23-1.89h6.41l.31 1.4c1.17 5.22 5.07 8.16 12.87 8.24 9.39.08 14.03-3.53 15.57-11.01.21-.92.33-1.87.38-2.81l.49-10.79-.08-.02-1.62 2.03c-4.07 5.08-8.87 7.42-15.39 7.4-12.7-.08-21.76-9.53-21.83-24.74-.08-15.99 10.13-26.53 23.02-26.43 6.02.04 11.17 2.8 14.38 7.5l1.5 2.28Zm-15.64 36.6c9.11-.18 15.97-7.42 15.92-20.5 0-1.03-.04-2.08-.11-3.13-.87-11.86-8.1-18.63-16.47-17.94-1.27.1-2.51.35-3.7.74-7.54 2.41-12.28 8.98-12.7 19.44-.51 13.75 7.11 21.6 17.05 21.39Zm71.41-36.6.08-.02-.06-8.65h6.04l-.02 40.36-.05 4.91c-.04 2.86-.25 5.9-.68 9.23-1.18 9.17-8.47 15.43-21.59 15.52-11.96.08-18.63-5.43-19.5-12.5l-.23-1.89h6.41l.31 1.4c1.17 5.22 5.08 8.16 12.87 8.24 9.39.08 14.03-3.53 15.57-11.01.21-.92.33-1.87.38-2.81l.49-10.79-.08-.02-1.62 2.03c-4.07 5.08-8.87 7.42-15.39 7.4-12.7-.08-21.76-9.53-21.83-24.74-.08-15.99 10.13-26.53 23.02-26.43 6.01.04 11.17 2.8 14.38 7.5l1.5 2.28Zm-15.64 36.6c9.11-.18 15.97-7.42 15.92-20.5 0-1.03-.04-2.08-.11-3.13-.87-11.86-8.1-18.63-16.47-17.94-1.27.1-2.51.35-3.7.74-7.54 2.41-12.28 8.98-12.7 19.44-.51 13.75 7.11 21.6 17.05 21.39Zm35.14-66.91h6.55v7.23h-6.55v-7.23Zm0 21.55h6.55v49.67h-6.55v-49.67Zm23.21 35.26.15 1.69c.39 4.83 3.12 7.79 8.88 8.79.68.12 1.38.18 2.08.22 1.04.04 2.11-.02 3.18-.18 6.39-.99 9.84-4.65 10.17-9.37.24-3.98-1.89-6.53-8.79-8.88-.78-.27-1.59-.54-2.37-.76l-7.8-2.33c-7.43-2.15-10.65-6.35-10.06-12.66.7-7.62 6.87-12.89 17.39-13.07 9.47-.16 14.99 3.98 16.58 12.04l.45 2.26h-6.41l-.18-1.62c-.52-4.71-3.8-7.73-9.6-8.08-7.6-.5-12.35 3.76-12.42 8.65-.06 4.17 2.69 6.84 12.56 9.37 2.13.53 4.46 1.17 6.78 1.87 6.82 2.04 10.45 6.75 10.3 12.68-.21 8.32-7.22 14.78-19.01 15.01-10.78.22-16.92-5.05-17.76-13.38l-.22-2.27h6.1Z" style="fill:#1d1d1b"/></svg>