<?xml version="1.0" encoding="utf-8"?>
<!-- Generator: Adobe Illustrator 16.0.0, SVG Export Plug-In . SVG Version: 6.00 Build 0)  -->
<!DOCTYPE svg PUBLIC "-//W3C//DTD SVG 1.1//EN" "http://www.w3.org/Graphics/SVG/1.1/DTD/svg11.dtd">
<svg version="1.1" id="willisau" xmlns="http://www.w3.org/2000/svg" xmlns:xlink="http://www.w3.org/1999/xlink" x="0px" y="0px"
	 width="164px" height="76px" viewBox="0 0 164 76" enable-background="new 0 0 164 76" xml:space="preserve">
<g>
	<polygon fill="#E63329" points="24.696,0 41.603,47.297 59.065,0.011 	"/>
	<polygon fill="#E63329" points="73.982,0.012 90.89,47.311 108.358,0.023 	"/>
	<polygon fill="#FFD300" points="132.506,47.478 115.596,0.181 98.13,47.469 	"/>
	<polygon fill="#FFD300" points="83.417,47.478 66.517,0.181 49.051,47.469 	"/>
	<polygon fill="#FFD300" points="34.376,47.478 17.469,0.181 0,47.469 	"/>
	<g>
		<path d="M76.565,57.375L72.84,74.815C72.668,75.624,71.947,76,71.224,76c-0.753,0-1.474-0.404-1.646-1.156L66.576,61.88
			l-3.005,12.963C63.399,75.624,62.675,76,61.954,76s-1.473-0.404-1.645-1.185l-3.727-17.441c-0.027-0.116-0.027-0.202-0.027-0.316
			c0-0.78,0.604-1.358,1.416-1.358c0.604,0,1.153,0.348,1.325,1.098l2.717,12.617l3.002-12.561c0.173-0.778,0.865-1.154,1.561-1.154
			c0.689,0,1.357,0.376,1.558,1.154l3.005,12.561l2.714-12.617c0.144-0.75,0.721-1.098,1.328-1.098c0.809,0,1.413,0.578,1.413,1.358
			C76.594,57.172,76.594,57.258,76.565,57.375z"/>
		<path d="M83.785,76c-0.695,0-1.388-0.462-1.388-1.387V63.121c0-0.924,0.692-1.386,1.388-1.386c0.661,0,1.386,0.462,1.386,1.386
			v11.492C85.171,75.538,84.446,76,83.785,76z M83.785,59.049c-0.695,0-1.356-0.462-1.356-1.357v-0.606
			c0-0.924,0.661-1.386,1.356-1.386c0.692,0,1.386,0.462,1.386,1.386v0.606C85.171,58.587,84.478,59.049,83.785,59.049z"/>
		<path d="M95.996,75.914c-2.509,0-3.926-1.445-3.926-3.958v-14.87c0-0.808,0.58-1.386,1.389-1.386c0.78,0,1.385,0.578,1.385,1.358
			v14.898c0,0.665,0.492,1.214,1.152,1.214c0.78,0,1.386,0.548,1.386,1.355C97.382,75.335,96.805,75.914,95.996,75.914z"/>
		<path d="M106.394,75.914c-2.51,0-3.923-1.445-3.923-3.958v-14.87c0-0.808,0.577-1.386,1.385-1.386c0.78,0,1.386,0.578,1.386,1.358
			v14.898c0,0.665,0.491,1.214,1.152,1.214c0.78,0,1.385,0.548,1.385,1.355C107.778,75.335,107.202,75.914,106.394,75.914z"/>
		<path d="M114.97,76c-0.688,0-1.385-0.462-1.385-1.387V63.121c0-0.924,0.696-1.386,1.385-1.386c0.668,0,1.389,0.462,1.389,1.386
			v11.492C116.358,75.538,115.638,76,114.97,76z M114.97,59.049c-0.688,0-1.356-0.462-1.356-1.357v-0.606
			c0-0.924,0.668-1.386,1.356-1.386c0.696,0,1.389,0.462,1.389,1.386v0.606C116.358,58.587,115.666,59.049,114.97,59.049z"/>
		<path d="M127.532,76h-0.492c-1.849,0-3.781-1.156-4.618-2.974c-0.116-0.232-0.145-0.434-0.145-0.636
			c0-0.78,0.692-1.329,1.417-1.329c1.413,0,1.385,2.195,3.346,2.195h0.492c1.617,0,2.25-0.665,2.25-1.589
			c0-1.589-1.525-1.675-2.714-1.935c-1.989-0.404-4.506-1.183-4.506-3.666v-0.49c0-2.832,3.121-3.842,4.97-3.842h0.112
			c2.573,0,4.479,1.473,4.479,2.483c0,0.665-0.576,1.271-1.329,1.271c-1.097,0-1.3-1.011-3.149-1.011h-0.112
			c-1.272,0-2.193,0.548-2.193,1.185v0.288c0,2.079,7.22,0.346,7.22,5.717C132.559,74.932,129.67,76,127.532,76z"/>
		<path d="M147.688,76c-0.953,0-1.762-0.578-2.165-1.068c-0.809,0.634-1.821,1.068-2.918,1.068h-0.26
			c-2.397,0-4.735-1.357-4.735-4.332v-0.144c0-4.072,4.591-4.13,6.641-4.621c0.348-0.086,0.376-0.346,0.376-0.548
			c0-1.155-0.837-1.877-1.877-1.877h-0.201c-0.836,0-1.504,0.29-1.877,1.126c-0.231,0.578-0.752,0.836-1.216,0.836
			c-0.721,0-1.441-0.576-1.441-1.356c0-0.174,0.028-0.375,0.113-0.606c0.956-2.107,2.86-2.743,4.421-2.743h0.201
			c2.309,0,4.65,1.646,4.65,4.36v6.381c0,0.404,0.027,0.694,0.46,0.781c0.78,0.174,1.128,0.78,1.128,1.386
			C148.987,75.306,148.523,76,147.688,76z M144.626,69.415c-2.021,0.521-4.331,0.435-4.331,2.195c0,0.953,0.749,1.647,2.05,1.647
			h0.26c1.125,0,2.021-0.895,2.021-2.021V69.415z"/>
		<path d="M162.615,76c-0.521,0-1.037-0.144-1.385-0.75C160.418,76,159.813,76,159.209,76h-0.26c-2.833,0-4.767-2.109-4.767-4.765
			v-8.114c0-0.924,0.696-1.386,1.385-1.386c0.668,0,1.385,0.462,1.385,1.386v8.114c0,1.126,0.872,2.021,1.997,2.021h0.26
			c1.125,0,2.021-0.895,2.021-2.021v-8.114c0-0.924,0.692-1.386,1.385-1.386S164,62.197,164,63.121v11.492
			C164,75.538,163.308,76,162.615,76z"/>
	</g>
</g>
</svg>
