<svg xmlns="http://www.w3.org/2000/svg" version="1.1" width="1000" height="591" viewBox="-9 -499 932.9725952148438 579"><defs><pattern id="uncounted" patternUnits="userSpaceOnUse" width="4" height="4"><path d="M-1,1 l2,-2 M0,4 l4,-4 M3,5 l2,-2" stroke="#999" stroke-width="1"/></pattern></defs><g class="municipality" style="fill: rgba(0, 0, 0, 0);"><path d="M397.68767254352707,-263.3354333543336L391.7494409154958,-260.00420004200043L381.8401884452989,-264.04104041040415L367.6579711518499,-266.34506345063454L361.46354463077574,-270.7659076590766L349.46813374580046,-270.42030420304206L336.98778252756534,-273.8667386673867L338.4334537097363,-292.55332553325536L340.1170201497328,-292.21252212522126L345.5977608973302,-312.47832478324784L348.03161238123823,-311.8687186871869L361.4086457251237,-302.7630276302763L369.1768408748902,-306.9150691506915L375.0967728677041,-304.9134491344914L376.0758033518325,-308.28788287882884L386.4699961552893,-307.69747697476976L386.41509724963726,-310.5727057270573L392.8931681165804,-310.8559085590856L393.6526029781006,-313.6207362073621L399.25229135461075,-312.5119251192512L399.4261378891756,-316.2847628476285L404.44938775633915,-317.80637806378064L405.5565156869891,-315.10395103951043L405.46501751090227,-314.3215432154322L406.31595054850925,-311.6767167671677L406.35254981894394,-309.3726937269373L406.70024288807366,-306.7230672306723L405.9408080265535,-304.4382443824438L403.40630854895005,-302.03822038220386L403.19586274395044,-301.01101011010115L403.15926347351575,-296.8205682056821L403.9186983350359,-293.7725377253773L403.5984547187322,-291.7517175171752L407.05708577481204,-291.16131161311614L402.37237915916955,-282.83802838028384Z" fill="#f3a381" class="counted"/><path d="M330.3267153084487,-436.98196981969824L325.36751416454587,-430.8475084750848L319.8501741465138,-415.23295232952336L318.60579895173373,-409.8040980409805L310.60885836175026,-406.1464614646147L307.7541152678431,-402.3736237362374L303.0328093817659,-405.38325383253834L296.3717421626492,-401.92241922419225L295.49335967221623,-405.5416554165542L291.11059703766006,-411.6377163771638L286.27034352267003,-410.87930879308794L278.7674930835551,-416.34176341763424L274.44877917225966,-412.2569225692257L264.17353399771565,-424.4682446824469L266.0400967898857,-429.99309993099934L263.6977434820645,-433.8955389553896L257.6863133131638,-434.19314193141935L262.5082671929365,-437.98517985179853L265.24406265793084,-438.8587885878859L266.25969241249396,-437.38997389973906L278.77664290116377,-440.8988089880899L287.7983630633191,-451.1517115171152L287.36832163571125,-452.5821258212583L296.50898942677935,-458.44298442984433L303.6366973439385,-460.5646056460565L307.20512621132247,-464.85104851048516L309.65727733044787,-464.66384663846645L319.0266905617329,-473.70713707137077L325.3949636173719,-477.5135751357514L330.2352171323619,-480.00000000000006L343.44755375929117,-464.3134431344314L339.08309075995237,-454.0365403654037L337.6923184834335,-454.0605406054061L335.31336590517753,-455.0781507815079L332.38542427040096,-442.1372213722138Z" fill="#8ec2dd" class="counted"/><path d="M403.973597240688,-321.10401104011044L406.4531978126394,-326.43686436864374L403.79060088851446,-327.2240722407224L403.4520576369934,-343.30423304233045L404.3670393978611,-350.5139051390514L405.1356240769899,-352.5107251072511L411.7417923904546,-364.07404074040744L437.39788096518424,-355.80835808358086L440.8839614740901,-351.71391713917143L450.4455208751573,-351.00831008310087L462.59647865948006,-341.8642186421865L467.4916310801221,-332.09612096120964L465.26822540121367,-328.03528035280357L465.72571628164746,-326.22566225662257L468.59875901077197,-324.26724267242673L474.3539942866297,-322.72162721627217L468.59875901077197,-318.9535895358954L474.18014775206484,-317.16317163171635L474.0246008527173,-315.65595655956565L464.1976967409985,-310.6687066870669L459.07379888013946,-312.0175201752018L453.6845563086289,-306.7806678066781L444.8458324986471,-309.90549905499057L436.84889190866363,-310.4959049590496L418.73225304348364,-319.82719827198275L414.77038201892657,-320.93120931209313L411.89733928980206,-318.9535895358954Z" fill="#f3a280" class="counted"/><path d="M285.5383581139759,-375.46935469354696L291.94323044004966,-376.530165301653L302.5112697780713,-372.8149281492815L303.6549969791559,-353.8067380673807L302.5570188661147,-350.4755047550476L298.54939875351425,-350.34110341103417L298.36640240134074,-337.769777697777L296.92988103677845,-337.7313773137732L278.93218980051125,-336.62736627366274L272.4175196631334,-338.5521855218553L271.65808480161326,-340.93300933009334L269.18763404727054,-340.5682056820568L267.9798581229252,-349.35229352293527L266.91847928031865,-348.6658866588666L264.45717834358464,-363.4836348363484L256.1125446844714,-372.7525275252753L250.0462156099187,-377.03897038970393L248.10645427687925,-388.14628146281467L251.05269554687317,-386.13506135061357L256.295541036645,-374.14934149341497L259.7724717279421,-373.659736597366L267.8243112235777,-378.28218282182826L275.28141257464927,-379.29979299793L278.2368036622518,-375.11415114151146L281.10069657376766,-376.4437644376444L282.9764091835464,-373.3525335253353L284.6416759883256,-373.8469384693847Z" fill="#72b2d4" class="counted"/><path d="M371.27214910727724,-408.7576875768758L370.35716734640954,-401.4808148081481L366.5508432212,-401.67281672816733L365.26986875598527,-405.00405004050043L342.51427236320615,-405.479254792548L338.57070097386645,-404.90804908049085L336.7224378169137,-401.87921879218794L328.9908419375819,-404.92724927249276L329.69537789345,-406.2424624246243L319.8501741465138,-415.23295232952336L325.36751416454587,-430.8475084750848L330.3267153084487,-436.98196981969824L343.73119810516016,-439.20919209192095L350.1086209784078,-438.239582395824L357.90426558100046,-435.89715897158976L365.2332694855505,-435.8203582035821L375.38956703118174,-432.4507245072451L373.1204122642299,-427.0026700267003L374.31903837096655,-422.7738277382774L369.65263139054144,-412.18492184921854Z" fill="#69add1" class="counted"/><path d="M459.51299012535594,-454.95814958149583L447.04178872472954,-449.95169951699523L440.22517460626534,-450.41250412504127L433.893500821061,-429.1146911469115L425.38417044499164,-433.06033060330606L425.68611442607795,-435.7435574355744L426.2625529354246,-448.5836858368584L425.93315950151225,-450.58050580505807L424.85348102368835,-452.5821258212583L420.8275612758706,-456.7533675336754L420.06812641435044,-459.7437974379744L419.994927873481,-467.75987759877603L422.4379291749977,-468.71028710287106L427.836321564117,-471.28311283112834L433.7013546512788,-473.4623346233463L436.62929628605536,-474.01914019140196L441.3140029016979,-473.51513515135156L443.3910114988675,-472.9151291512916L447.69142577494557,-470.7503075030751L449.34754276211606,-469.50709507095075L452.13823713276247,-466.4254642546426L454.4714406229751,-463.35823358233586L455.77986454101585,-461.3374133741338Z" fill="#f3a280" class="counted"/><path d="M371.27214910727724,-408.7576875768758L374.1268922011844,-409.4248942489425L374.01709438988024,-405.53685536855374L376.89013711900475,-405.0808508085081L377.04568401835223,-403.29043290432907L378.10706286095876,-402.6616266162662L378.66520173508803,-393.02793027930284L379.29653915008674,-387.1718717187172L375.1242223205301,-386.0726607266073L372.60802247814405,-368.379683796838L369.68923066097614,-369.42609426094265L368.06971294424034,-366.4356643566436L359.88062618447464,-370.05490054900554L356.5500925749163,-373.8613386133862L357.59317178230543,-376.05496054960554L350.31906678340744,-379.32859328593287L341.754837501686,-389.269492694927L343.4109544888565,-391.53991539915404L338.89094459017014,-393.3111331113312L340.89475464647035,-397.6119761197612L335.5055120749597,-399.6903969039691L336.7224378169137,-401.87921879218794L338.57070097386645,-404.90804908049085L342.51427236320615,-405.479254792548L365.26986875598527,-405.00405004050043L366.5508432212,-401.67281672816733L370.35716734640954,-401.4808148081481Z" fill="#7bb7d6" class="counted"/><path d="M329.6587786230153,-260.3066030660307L329.5581306293198,-264.669846698467L322.3572241712912,-266.34506345063454L312.173477172834,-262.78342783427837L295.37441204330344,-261.0506105061051L290.74460433331296,-287.86847868478685L293.178455817221,-296.5325653256533L298.8421929169919,-297.19977199772L303.94779114263355,-311.4655146551466L307.8822127143646,-315.2383523835239L313.2165563802231,-316.4575645756458L317.5627197443446,-318.9535895358954L318.4960011404296,-321.20001200012L324.3610342275914,-319.1215912159122L324.0224909760704,-317.97917979179795L333.0991100438777,-313.39033390333907L345.5977608973302,-312.47832478324784L340.1170201497328,-292.21252212522126L338.4334537097363,-292.55332553325536L336.98778252756534,-273.8667386673867L338.5158020682144,-268.4618846188462L333.88599435822397,-263.3354333543336Z" fill="#82bbd9" class="counted"/><path d="M462.59647865948006,-341.8642186421865L450.4455208751573,-351.00831008310087L440.8839614740901,-351.71391713917143L437.39788096518424,-355.80835808358086L411.7417923904546,-364.07404074040744L405.1356240769899,-352.5107251072511L401.0273559706941,-355.40515405154053L402.4364278824303,-357.4835748357484L402.3174802535175,-360.6660066600666L403.72655216525374,-363.3684336843369L401.3658992222151,-364.3188431884319L401.3658992222151,-370.72210722107224L388.70255165180646,-376.2805628056281L383.1760618161657,-375.13815138151386L383.6335526965995,-380.6438064380644L386.79938958920167,-382.3766237662377L386.88173794767977,-385.12705127051277L392.38077833049454,-393.2679326793268L397.1569831222238,-400.909609096091L401.0639552411288,-405.8056580565806L403.5161063602541,-405.99285992859933L403.07691511503765,-408.7960879608797L407.6335242841587,-417.3065730657307L412.96786795001725,-420.2970029700297L413.8828497108849,-421.5354153541536L414.7154831132745,-425.2506525065251L415.17297399370835,-425.8986589865899L417.1401847795739,-426.6762667626677L419.53743699304715,-428.1066810668107L423.5725065584736,-426.58506585065857L422.8862702378229,-412.58332583325836L423.04181713717037,-407.3656736567366L424.7894323004276,-401.1016110161102L425.5580169795565,-395.67275672756733L426.0155078599903,-390.68070680706813L429.8767308908519,-386.92706927069275L437.5900271349664,-383.87903879038794L439.4565899271365,-375.04215042150423L446.547698573861,-371.67251672516727L460.72991586730996,-355.0451504515045Z" fill="#e05753" class="counted"/><path d="M462.59647865948006,-341.8642186421865L460.72991586730996,-355.0451504515045L446.547698573861,-371.67251672516727L439.4565899271365,-375.04215042150423L437.5900271349664,-383.87903879038794L429.8767308908519,-386.92706927069275L426.0155078599903,-390.68070680706813L425.5580169795565,-395.67275672756733L424.7894323004276,-401.1016110161102L423.04181713717037,-407.3656736567366L422.8862702378229,-412.58332583325836L423.5725065584736,-426.58506585065857L425.38417044499164,-433.06033060330606L433.893500821061,-429.1146911469115L440.22517460626534,-450.41250412504127L447.04178872472954,-449.95169951699523L459.51299012535594,-454.95814958149583L461.39785255274336,-451.5933159331594L462.73372592361017,-448.9388893888939L464.2800450994766,-446.3948639486395L465.35057375969177,-445.3724537245373L468.46151174664186,-443.0828308283083L470.3280745388119,-442.17082170821715L471.7645959033742,-441.81081810818114L477.0989395692327,-441.2924129241293L479.0661503550982,-440.72600726007266L481.71959746161446,-439.32919329193294L482.6254294048735,-438.56598565985666L483.54041116574115,-437.04437044370445L484.620089643565,-434.59634596345967L485.52592158682404,-431.4523145231453L485.91021392638845,-429.1050910509106L487.3741847437767,-425.86985869858705L489.30479625920754,-422.5434254342544L491.40925430920316,-420.0618006180062L493.07452111398237,-418.83298832988334L495.8835151198461,-417.82497824978253L500.43097447135847,-415.6313563135632L502.6177808798322,-414.7145471454715L498.235018245276,-403.7656376563766L496.15800964810643,-389.7686976869769L496.50570271723615,-371.37011370113703L501.10806097440053,-358.529985299853L496.8808452391919,-356.81636816368166L489.5518413346418,-336.9105691056911L480.12752919770475,-333.809738097381L471.3986031990271,-335.29295292952935L469.3398942370748,-334.5489454894549L467.4916310801221,-332.09612096120964Z" fill="#70b1d3" class="counted"/><path d="M285.5383581139759,-375.46935469354696L285.36451157941104,-382.7558275582756L290.4152108994006,-388.2806828068281L291.3759417483117,-389.85509855098553L296.10639745199757,-400.0744007440075L296.3717421626492,-401.92241922419225L303.0328093817659,-405.38325383253834L307.7541152678431,-402.3736237362374L310.60885836175026,-406.1464614646147L318.60579895173373,-409.8040980409805L319.8501741465138,-415.23295232952336L329.69537789345,-406.2424624246243L328.9908419375819,-404.92724927249276L336.7224378169137,-401.87921879218794L335.5055120749597,-399.6903969039691L340.89475464647035,-397.6119761197612L338.89094459017014,-393.3111331113312L343.4109544888565,-391.53991539915404L341.754837501686,-389.269492694927L350.31906678340744,-379.32859328593287L357.59317178230543,-376.05496054960554L356.5500925749163,-373.8613386133862L359.88062618447464,-370.05490054900554L368.06971294424034,-366.4356643566436L371.080002937495,-364.90924909249094L370.32056807597485,-359.979599795998L344.45403369624563,-355.0067500675007L324.3244349571567,-355.95715957159575L319.6763276119489,-354.7955479554796L316.64773798347693,-352.68352683526837L311.69768665718277,-352.05472054720553L303.6549969791559,-353.8067380673807L302.5112697780713,-372.8149281492815L291.94323044004966,-376.530165301653Z" fill="#85bdda" class="counted"/><path d="M329.6587786230153,-260.3066030660307L333.88599435822397,-263.3354333543336L338.5158020682144,-268.4618846188462L336.98778252756534,-273.8667386673867L349.46813374580046,-270.42030420304206L361.46354463077574,-270.7659076590766L367.6579711518499,-266.34506345063454L381.8401884452989,-264.04104041040415L391.7494409154958,-260.00420004200043L397.68767254352707,-263.3354333543336L399.19739244895874,-260.3066030660307L401.8416897378663,-257.86817868178684L394.5492851037509,-249.77529775297756L391.57559438093097,-239.2775927759278L390.7155115257153,-232.75432754327545L392.56377468266805,-227.37827378273784L388.1627124128945,-227.05187051870521L386.41509724963726,-234.3479434794348L377.4665756283514,-232.34632346323465L371.8394377990152,-237.05037050370507L368.6095521831523,-230.47910479104794L362.927515448164,-226.3846638466385L363.22030961164165,-238.06318063180635L360.12767125990894,-238.55758557585577L355.7540584429614,-243.10803108031084L352.1673299403601,-241.9656196561966L347.78456730580393,-247.9848798487985L333.8493950877892,-252.43932439324396Z" fill="#7db9d7" class="counted"/><path d="M403.973597240688,-321.10401104011044L404.44938775633915,-317.80637806378064L399.4261378891756,-316.2847628476285L399.25229135461075,-312.5119251192512L393.6526029781006,-313.6207362073621L392.8931681165804,-310.8559085590856L386.41509724963726,-310.5727057270573L386.4699961552893,-307.69747697476976L376.0758033518325,-308.28788287882884L375.0967728677041,-304.9134491344914L369.1768408748902,-306.9150691506915L361.4086457251237,-302.7630276302763L348.03161238123823,-311.8687186871869L356.88863582643734,-325.9616596165962L356.4585943988295,-330.94890948909494L359.45973457447553,-333.9777397773978L371.59239272358093,-337.9041790417904L373.7060005911852,-341.58101581015814L377.84171815030714,-343.14103141031416L376.7620396724833,-344.5714457144572L381.4009972000824,-346.72186721867223L383.9354966776859,-358.3763837638377L370.32056807597485,-359.979599795998L371.080002937495,-364.90924909249094L368.06971294424034,-366.4356643566436L369.68923066097614,-369.42609426094265L372.60802247814405,-368.379683796838L375.1242223205301,-386.0726607266073L379.29653915008674,-387.1718717187172L379.71743076008585,-385.3574535745358L386.88173794767977,-385.12705127051277L386.79938958920167,-382.3766237662377L383.6335526965995,-380.6438064380644L383.1760618161657,-375.13815138151386L388.70255165180646,-376.2805628056281L401.3658992222151,-370.72210722107224L401.3658992222151,-364.3188431884319L403.72655216525374,-363.3684336843369L402.3174802535175,-360.6660066600666L402.4364278824303,-357.4835748357484L401.0273559706941,-355.40515405154053L405.1356240769899,-352.5107251072511L404.3670393978611,-350.5139051390514L403.4520576369934,-343.30423304233045L403.79060088851446,-327.2240722407224L406.4531978126394,-326.43686436864374Z" fill="#7db8d7" class="counted"/><path d="M274.44877917225966,-412.2569225692257L265.30811138119157,-403.60723607236076L254.71262259034387,-403.5064350643507L252.62646417556556,-406.06006060060605L253.5963448420853,-411.469714697147L249.84491962252784,-417.8105781057811L248.6737429686172,-420.72420724207245L250.11941415078812,-427.5354753547536L257.6863133131638,-434.19314193141935L263.6977434820645,-433.8955389553896L266.0400967898857,-429.99309993099934L264.17353399771565,-424.4682446824469Z" fill="#86beda" class="counted"/><path d="M370.32056807597485,-359.979599795998L383.9354966776859,-358.3763837638377L381.4009972000824,-346.72186721867223L376.7620396724833,-344.5714457144572L377.84171815030714,-343.14103141031416L373.7060005911852,-341.58101581015814L371.59239272358093,-337.9041790417904L359.45973457447553,-333.9777397773978L356.4585943988295,-330.94890948909494L356.88863582643734,-325.9616596165962L348.03161238123823,-311.8687186871869L345.5977608973302,-312.47832478324784L333.0991100438777,-313.39033390333907L324.0224909760704,-317.97917979179795L324.3610342275914,-319.1215912159122L318.4960011404296,-321.20001200012L317.5627197443446,-318.9535895358954L313.2165563802231,-316.4575645756458L307.8822127143646,-315.2383523835239L303.94779114263355,-311.4655146551466L303.46285080937366,-324.2864428644287L298.0736082378631,-324.0560405604056L296.92988103677845,-337.7313773137732L298.36640240134074,-337.769777697777L298.54939875351425,-350.34110341103417L302.5570188661147,-350.4755047550476L303.6549969791559,-353.8067380673807L311.69768665718277,-352.05472054720553L316.64773798347693,-352.68352683526837L319.6763276119489,-354.7955479554796L324.3244349571567,-355.95715957159575L344.45403369624563,-355.0067500675007Z" fill="#72b2d4" class="counted"/><path d="M229.02908456278817,-252.5737257372574L244.08053452906145,-257.5849758497585L250.75075156578683,-257.5849758497585L259.80907099837685,-255.46815468154685L263.88988965184666,-255.46815468154685L268.11710538705535,-257.1481714817148L271.7587327953087,-260.00420004200043L276.42513977573384,-260.6330063300633L295.37441204330344,-261.0506105061051L312.173477172834,-262.78342783427837L322.3572241712912,-266.34506345063454L329.5581306293198,-264.669846698467L329.6587786230153,-260.3066030660307L319.65802797673155,-258.1945819458195L316.98628123499793,-255.87135871358717L316.0347002036956,-252.9385293852939L318.79794512151597,-249.58329583295836L318.6240985869511,-245.9448594485945L316.55623980739017,-240.38640386403867L317.65421792043134,-232.82152821528217L303.84714314893813,-224.7286472864729L274.65007515965056,-218.34938349383495L259.2234826714215,-226.86466864668648L241.37218851689315,-253.04893048930492Z" fill="#509dc8" class="counted"/><path d="M283.52539824006703,-161.15201152011522L270.1392150785729,-173.74253742537428L284.57762726506485,-181.64821648216483L300.0957179293806,-196.15876158761588L312.3198742545728,-201.5876158761588L319.27373563716714,-207.74127741277414L322.421272894552,-211.3989139891399L318.16660770651725,-214.63414634146343L317.46207175064916,-218.44538445384455L318.44110223477753,-219.69339693396935L319.9142228697745,-222.59742597425978L320.89325335390294,-224.02304023040233L324.0407906112877,-224.13824138241384L327.46282239693284,-224.44544445444456L330.5097116606222,-223.87423874238743L333.1814584023558,-222.91902919029192L337.1707788797389,-219.48219482194824L341.19669862755666,-218.03258032580328L346.68658919276277,-212.82452824528247L347.8486160290647,-210.53970539705398L349.9256246262343,-208.76848768487687L350.70335912297185,-204.8276482764828L350.8955052927541,-196.8259682596826L350.31906678340744,-194.1619416194162L349.6145308275393,-192.23712237122373L348.5531519849328,-187.73947739477396L348.80019706036705,-185.39705397053973L349.75177809166945,-182.3490234902349L349.2210886703662,-180.44820448204484L349.36748575210504,-179.30099300993012L350.5112129531896,-177.77937779377797L351.2706478147098,-175.49455494554948L353.8874956507914,-172.75372753727538L355.06782212231064,-172.5617256172562L358.4166553670864,-172.69612696126964L359.6518807442577,-172.25452254522546L363.10136198272886,-169.6288962889629L364.5653328001171,-168.0448804488045L365.5626629194629,-165.0208502085021L366.8527872022863,-162.65442654426545L346.4212444821111,-159.97119971199714L329.9607226041016,-161.89601896018962L314.00344069456935,-161.36321363213634L289.2806335159247,-156.71196711967121Z" fill="#65aacf" class="counted"/><path d="M186.02494180200736,-236.2727627276273L176.19803769028852,-236.02316023160233L172.42831283551368,-234.76554765547658L161.9883709440135,-229.31749317493177L143.8717320788335,-223.13983139831402L141.36468205405606,-223.77343773437735L138.07074771493242,-229.619896198962L141.79472348166388,-235.13515135151354L141.24573442514327,-239.02319023190233L148.62048741773674,-244.72084720847212L147.8519027386079,-252.20412204122044L150.90794181990594,-256.92256922569226L156.48933056119876,-256.78336783367837L172.37341392986164,-262.09222092220926L175.47520209920305,-252.0217202172022Z" fill="#eba88a" class="counted"/><path d="M229.02908456278817,-252.5737257372574L241.37218851689315,-253.04893048930492L259.2234826714215,-226.86466864668648L260.1384644322892,-220.3846038460385L271.2371931916141,-206.82446824468246L267.3393708903178,-186.14106141061413L261.81288105467706,-185.96825968259685L257.94250820620675,-189.58749587495876L238.99323593863718,-190.02430024300244L229.62382270735216,-193.49473494734949L223.14575184040902,-196.97956979569798L221.8556275575856,-200.3108031080311L222.807208588888,-205.490054900549L225.9455960286641,-208.44208442084422L226.7324803430103,-221.1478114781148L221.1876908721522,-229.8166981669817L220.5929527275882,-235.39435394353947L218.42444595433182,-237.58317583175835L203.47364398175398,-237.87117871178714L197.62691052980952,-240.40560405604057L205.98984382414008,-245.33525335253356L214.7645189108611,-247.90807908079083L223.28299910453916,-249.05049050490507Z" fill="#de5150" class="counted"/><path d="M397.68767254352707,-263.3354333543336L402.37237915916955,-282.83802838028384L410.7902113591522,-279.96279962799633L417.34148076696476,-277.24117241172416L423.023517501953,-274.1547415474155L432.4478296388901,-264.8426484264843L429.8401316204172,-262.0586205862059L426.8298416271626,-262.6874268742688L427.46117904216123,-252.5737257372574L424.43258941368924,-244.28884288842892L423.07841640760506,-236.7287672876729L418.41200942717995,-227.14787147871482L419.0067475717439,-220.55740557405576L417.0395367858784,-215.41655416554167L417.0395367858784,-211.32211322113224L417.78067201218124,-200.92040920409207L411.89733928980206,-201.0548105481055L406.9106886930732,-201.0548105481055L386.41509724963726,-205.54765547655478L391.7494409154958,-210.63570635706358L394.036895317665,-219.29979299793L392.56377468266805,-227.37827378273784L390.7155115257153,-232.75432754327545L391.57559438093097,-239.2775927759278L394.5492851037509,-249.77529775297756L401.8416897378663,-257.86817868178684L399.19739244895874,-260.3066030660307Z" fill="#e66e61" class="counted"/><path d="M349.9256246262343,-208.76848768487687L350.2916173305814,-212.34452344523447L351.32554672036184,-215.55575555755559L362.927515448164,-226.3846638466385L368.6095521831523,-230.47910479104794L371.8394377990152,-237.05037050370507L377.4665756283514,-232.34632346323465L386.41509724963726,-234.3479434794348L388.1627124128945,-227.05187051870521L392.56377468266805,-227.37827378273784L394.036895317665,-219.29979299793L391.7494409154958,-210.63570635706358L386.41509724963726,-205.54765547655478L406.9106886930732,-201.0548105481055L398.22751178243897,-197.8339783397834L383.70675123746895,-200.80520805208053L373.33085806922946,-192.2179221792218L368.5089041894568,-193.03393033930342L365.02282368055097,-195.9139591395914L367.5756227933718,-199.2259922599226L363.0464630770768,-200.15720157201574L363.9797444731618,-205.64365643656438L360.0361730838221,-209.30129301293016Z" fill="#dc474a" class="counted"/><path d="M283.52539824006703,-161.15201152011522L264.1003354568462,-143.59343593435935L253.46824739556382,-138.03018030180303L249.4697771005721,-133.49893498934992L246.23074166710052,-126.73566735667357L246.61503400666493,-122.03162031620317L236.3855379201643,-111.3659136591366L240.4846562088515,-100.22020220202204L238.28869998276906,-101.02181021810219L229.77936960669967,-104.89064890648908L230.02641468213395,-107.7658776587766L228.51669477670228,-108.83148831488316L223.3927969158433,-107.9338793387934L220.99554470236998,-109.7818978189782L220.0439636710676,-112.45072450724508L220.23610984084982,-117.40437404374045L219.65967133150318,-118.92598925989262L219.47667497932963,-121.97401974019742L219.4492255265036,-130.59970599705997L218.5433935832446,-133.91653916539167L216.4206358980316,-133.1149311493115L214.30702803042726,-132.5629256292563L210.51900354043508,-132.26052260522607L209.00013381739473,-132.63972639726398L206.3283870756611,-133.97413974139744L203.66579015153619,-135.87975879758798L201.37833574936698,-136.83016830168302L200.23460854828238,-137.02217022170223L199.0908813471978,-136.4509645096451L197.37986545437525,-134.16134161341614L195.8518459137262,-132.8317283172832L193.89378494546938,-132.40932409324094L190.70964841764987,-145.7438574385744L191.37758510308328,-156.0687606876069L188.38559474504598,-160.1248012480125L200.51825289415137,-158.98238982389825L216.27423881629278,-169.609696096961L218.14080160846282,-166.16326163261635L221.3798370419344,-163.30243302433027L226.52203453801076,-159.68319683196833L229.71532088343895,-158.55998559985602L226.66843161974958,-174.63534635346355L226.96122578322723,-178.21618216182165L229.66042197778688,-178.60018600186004L229.62382270735216,-193.49473494734949L238.99323593863718,-190.02430024300244L257.94250820620675,-189.58749587495876L261.81288105467706,-185.96825968259685L267.3393708903178,-186.14106141061413L284.57762726506485,-181.64821648216483L270.1392150785729,-173.74253742537428Z" fill="#ee8e75" class="counted"/><path d="M188.38559474504598,-160.1248012480125L191.37758510308328,-156.0687606876069L190.70964841764987,-145.7438574385744L193.89378494546938,-132.40932409324094L190.70964841764987,-132.87012870128703L186.3360356007024,-138.75498754987552L184.21327791548936,-139.2109921099211L181.03829120527854,-138.75498754987552L179.38217421810805,-137.70377703777038L178.9246833376742,-136.3357633576336L179.85796473375922,-134.52614526145263L179.85796473375922,-132.5629256292563L177.41496343224253,-130.90690906909072L174.23997672203168,-131.3629136291363L172.1812677600794,-133.38373383733838L170.918592930082,-135.43815438154382L168.94223232660784,-135.5917559175592L166.82862445900352,-132.87012870128703L168.18279746508767,-130.4509045090451L167.13056844008983,-126.96126961269614L170.01276098682303,-123.64923649236493L168.94223232660784,-120.77400774007741L170.38790350877878,-108.2218822188222L163.53469011987988,-101.55461554615547L160.69824666119007,-88.96408964089642L155.70244624685256,-87.44247442474426L127.98764871017063,-89.88089880898809L124.48326856604743,-90.31770317703177L131.06198742668602,-99.21219212192123L127.28311275430252,-109.11949119491196L128.65558539560405,-118.58518585185853L125.95638920104439,-119.49719497194972L121.00633787475026,-120.63960639606397L120.23775319562141,-120.63960639606397L116.04713673084746,-121.78201782017821L110.33765054303315,-124.0668406684067L108.80963100238412,-124.4508445084451L106.27513152478066,-124.33564335643358L101.81917034935508,-138.40938409384094L91.47987645155033,-137.65097650976512L84.69986160352084,-157.51357513575138L76.92251663614559,-158.79518795187954L72.72275035376295,-161.2288122881229L76.23628031549484,-161.19041190411906L81.44252653483191,-159.7407974079741L90.49169614981324,-161.1136111361114L128.29874250886564,-154.6959469594696L137.00021905471723,-154.97914979149792L146.92777116013153,-162.04962049620497L162.39096291879528,-158.50238502385025L175.63074899855056,-162.1216212162122Z" fill="#7db9d7" class="counted"/><path d="M329.6587786230153,-260.3066030660307L333.8493950877892,-252.43932439324396L347.78456730580393,-247.9848798487985L352.1673299403601,-241.9656196561966L355.7540584429614,-243.10803108031084L360.12767125990894,-238.55758557585577L363.22030961164165,-238.06318063180635L362.927515448164,-226.3846638466385L351.32554672036184,-215.55575555755559L350.2916173305814,-212.34452344523447L349.9256246262343,-208.76848768487687L347.8486160290647,-210.53970539705398L346.68658919276277,-212.82452824528247L341.19669862755666,-218.03258032580328L337.1707788797389,-219.48219482194824L333.1814584023558,-222.91902919029192L330.5097116606222,-223.87423874238743L327.46282239693284,-224.44544445444456L324.0407906112877,-224.13824138241384L320.89325335390294,-224.02304023040233L323.0892095799854,-227.9686796867969L317.65421792043134,-232.82152821528217L316.55623980739017,-240.38640386403867L318.6240985869511,-245.9448594485945L318.79794512151597,-249.58329583295836L316.0347002036956,-252.9385293852939L316.98628123499793,-255.87135871358717L319.65802797673155,-258.1945819458195Z" fill="#de504f" class="counted"/><path d="M72.72275035376295,-161.2288122881229L54.67931002945237,-162.60162601626018L46.20657892381768,-163.21123211232114L47.63395047077125,-169.7248972489725L42.034262094261074,-172.2737227372274L35.373194875144385,-176.84816848168484L27.34880483233486,-183.54903549035492L26.744916870162193,-186.39066390663908L22.911143292126628,-188.2338823388234L22.92944292734398,-191.92991929919302L21.675917914955264,-193.98913989139893L10.24779572171798,-195.5107551075511L1.1986261067366566,-199.47559475594758L0,-203.5508355083551L0,-205.66285662856632L0.9149817608676768,-208.08208082080822L3.02858962847201,-210.3477034770348L3.3305336095583438,-212.4837248372484L2.049559144343596,-215.8965589655897L6.88066284172493,-219.2325923259233L19.635508588220343,-218.10938109381095L27.79714589516002,-210.9477094770948L28.693828020810344,-207.88527885278856L31.859664913412505,-206.33006330063301L43.873375433605105,-202.9988299882999L63.60953201552089,-203.6468364683647L80.23475061048659,-198.94758947589477L82.97054607548094,-197.5507755077551L82.9064973522202,-194.31074310743108L78.43223654157725,-189.93309933099331L77.48065551027487,-176.44496444964452Z" fill="#ea806c" class="counted"/><path d="M197.62691052980952,-240.40560405604057L203.47364398175398,-237.87117871178714L218.42444595433182,-237.58317583175835L220.5929527275882,-235.39435394353947L221.1876908721522,-229.8166981669817L226.7324803430103,-221.1478114781148L225.9455960286641,-208.44208442084422L222.807208588888,-205.490054900549L221.8556275575856,-200.3108031080311L223.14575184040902,-196.97956979569798L229.62382270735216,-193.49473494734949L229.66042197778688,-178.60018600186004L226.96122578322723,-178.21618216182165L226.66843161974958,-174.63534635346355L229.71532088343895,-158.55998559985602L226.52203453801076,-159.68319683196833L221.3798370419344,-163.30243302433027L218.14080160846282,-166.16326163261635L216.27423881629278,-169.609696096961L200.51825289415137,-158.98238982389825L188.38559474504598,-160.1248012480125L175.63074899855056,-162.1216212162122L179.85796473375922,-168.6928869288693L180.29715597897572,-173.98733987339875L182.04477114223297,-179.4929949299493L186.3360356007024,-185.78105781057812L187.09547046222255,-189.85629856298564L186.4824326824412,-193.49473494734949L182.55716092831886,-197.11397113971142L179.9860621802807,-206.50286502865032L177.36006452659046,-211.2069120691207L170.01276098682303,-219.18459184591848L165.17250747183303,-223.41343413434137L161.9883709440135,-229.31749317493177L172.42831283551368,-234.76554765547658L176.19803769028852,-236.02316023160233L186.02494180200736,-236.2727627276273Z" fill="#71b1d3" class="counted"/><path d="M283.52539824006703,-161.15201152011522L289.2806335159247,-156.71196711967121L287.6611157991889,-156.3519635196352L291.5589381004852,-151.76311763117633L289.4453302328809,-150.10710107101073L296.3991916154752,-141.63021630216303L296.2527945337364,-138.9037890378904L293.05035837069954,-133.55173551735518L278.32830183833863,-106.73866738667388L276.2878925116037,-107.309873098731L266.90017964510133,-109.36429364293645L263.85329038141197,-107.68907689076892L260.1201647970718,-104.75624756247564L253.75189174143281,-98.69858698586987L246.21244203188314,-99.00579005790058L240.4846562088515,-100.22020220202204L236.3855379201643,-111.3659136591366L246.61503400666493,-122.03162031620317L246.23074166710052,-126.73566735667357L249.4697771005721,-133.49893498934992L253.46824739556382,-138.03018030180303L264.1003354568462,-143.59343593435935Z" fill="#e4655c" class="counted"/><path d="M317.65421792043134,-232.82152821528217L323.0892095799854,-227.9686796867969L320.89325335390294,-224.02304023040233L319.9142228697745,-222.59742597425978L318.44110223477753,-219.69339693396935L317.46207175064916,-218.44538445384455L318.16660770651725,-214.63414634146343L322.421272894552,-211.3989139891399L319.27373563716714,-207.74127741277414L312.3198742545728,-201.5876158761588L300.0957179293806,-196.15876158761588L284.57762726506485,-181.64821648216483L267.3393708903178,-186.14106141061413L271.2371931916141,-206.82446824468246L260.1384644322892,-220.3846038460385L259.2234826714215,-226.86466864668648L274.65007515965056,-218.34938349383495L303.84714314893813,-224.7286472864729Z" fill="#82bcd9" class="counted"/><path d="M610.5490293917834,-351.42591425914264L607.8681328324411,-353.139531395314L601.8292532107145,-353.9987399873999L600.1182373178918,-358.2467824678247L601.6371070409322,-366.57006570065704L596.8792018844202,-373.30933309333096L604.5924981285348,-379.10299102991036L604.3088537826658,-383.1974319743198L605.406831895707,-383.87903879038794L604.2082057889704,-389.9174991749918L605.2238355435335,-392.75912759127596L609.7255458070025,-396.3303633036331L612.0770489324324,-397.9767797677977L612.6900867122138,-398.13038130381307L615.2611854602519,-397.27117271172716L617.6584376737252,-397.29037290372906L619.2962550256784,-398.0535805358054L620.7602258430667,-398.2023820238203L623.0659798804531,-397.5735757357574L626.1128691441426,-397.1943719437195L628.7846158858762,-396.05196051960525L631.4472128100011,-395.85995859958604L632.9752323506501,-395.4807548075481L636.0221216143395,-394.1463414634147L644.0556614747577,-391.5927159271593L653.1414303601738,-388.39588395883965L655.8223269195161,-386.7206672066721L656.5909115986449,-386.5286652866529L658.878366000814,-386.7206672066721L661.1566705853746,-387.2918729187292L662.3003977864591,-387.2918729187292L665.6583808488435,-385.46305463054637L667.0674527605797,-384.05184051840524L666.7929582323195,-381.7478174781748L667.2504491127534,-380.6246062460625L667.4425952825355,-378.71898718987194L667.2504491127534,-377.9557795577956L664.9721445281928,-375.6709567095671L663.8284173271082,-373.76533765337655L663.9199155031949,-372.28212282122826L665.0819423394969,-369.5412954129542L665.3655866853659,-367.6740767407674L665.1185416099316,-362.97002970029706L665.4296354086266,-357.9779797797978L667.1040520310145,-354.9107491074911L671.3312677662232,-351.9203192031921L670.1143420242691,-350.1107011070111L668.760169018185,-347.2354723547236L666.3446171694943,-348.6274862748628L659.5829019566821,-344.14904149041496L641.1643191104158,-324.0944409444095L638.6298196328124,-323.52323523235236L635.0613907654284,-325.2944529445295L630.1113394391343,-324.53124531245317L627.2931956156618,-326.00006000060006L622.590189364802,-334.3425434254343L618.9485619565487,-334.1889418894189L616.533010107858,-347.8642786427865Z" fill="#6caed1" class="counted"/><path d="M518.3097180787129,-412.5257252572526L521.9513454869663,-412.2809228092281L525.5197743543501,-412.23292232922336L531.412256894338,-412.8425284252843L533.7363105669419,-413.4329343293433L537.387087792804,-415.4345543455435L542.6756823706191,-419.23139231392315L544.459896804311,-420.2778027780278L547.5799846088698,-421.2234122341224L549.3824986777792,-422.269822698227L554.3325500040734,-425.5434554345544L557.7820312425445,-427.2858728587286L560.0786354623224,-420.719407194072L564.0588061220967,-420.58500585005856L566.117515084049,-420.8106081060811L566.8403506751345,-421.23301233012336L568.2951716749141,-420.109801098011L569.5486966873028,-418.7177871778718L570.308131548823,-418.52578525785265L571.836151089472,-419.66819668196683L572.5955859509921,-419.86019860198604L574.6908941833791,-416.6201662016621L574.6908941833791,-415.8617586175862L576.5940562459839,-413.9561395613957L577.353491107504,-413.57693576935776L578.799162289675,-413.9177391773918L580.0069382140204,-413.3657336573366L583.4289699996655,-412.83292832928333L585.8079225779214,-411.00411004110043L587.4091406594398,-407.7064770647707L584.462899389446,-404.7928479284793L581.1689650503223,-405.15765157651583L578.5887164846754,-403.2328323283233L573.391620082947,-400.660006600066L569.4480486936073,-396.5847658476585L566.995897574482,-390.33990339903403L566.712253228613,-391.9959199591996L564.9920875181817,-395.23115231152315L564.5711959081826,-397.4055740557406L564.7267428075302,-402.1864218642187L563.8300606818798,-404.35604356043564L562.7046331160126,-405.5176551765518L561.0119168584074,-406.4872648726488L559.26430169515,-407.86007860078604L559.2460020599327,-409.0024900249003L561.1674637577548,-410.52890528905294L561.3962091979718,-411.1385113851139L557.8369301481965,-416.33696336963374L558.3676195694998,-418.0505805058051L548.8975583445193,-416.50976509765104L530.4972751334703,-410.06810068100685L527.0752433478252,-409.51609516095164L517.8339275630617,-409.4776947769478Z" fill="#5ea6cd" class="counted"/><path d="M561.4694077388411,-240.25200252002523L577.353491107504,-257.41217412174126L577.582236547721,-261.6218162181622L585.6432258609652,-272.229922299223L591.0141687972584,-273.4491344913449L601.5090095944107,-268.3466834668347L611.5463595111291,-265.7738577385774L616.2127664915542,-263.20103201032015L618.1525278245938,-254.40254402544028L624.5299506978415,-250.3465034650347L622.3980431950198,-240.63120631206314L618.2074267302459,-235.5287552875529L619.0675095854615,-231.90951909519097L624.1731078111031,-228.89988899889002L623.6790176602345,-223.62463624636248L623.2032271445834,-221.6038160381604L621.4098628932827,-219.83259832598327L607.2916943230945,-209.10929109291095L611.070568995478,-207.01647016470167L610.5947784798268,-205.3988539885399L608.3439233480923,-202.10122101221015L605.5806784302719,-193.72033720337205L596.5315088152905,-183.89463894638948L595.5433285135534,-180.53940539405397L593.8323126207309,-184.9218492184922L595.3511823437713,-191.15231152311526L589.2025049107405,-192.1027210272103L580.0618371196724,-179.30099300993012L580.4003803711935,-176.3489634896349L572.4400390516446,-182.44502445024452L571.2963118505601,-188.1618816188162L572.7236833975136,-206.4836648366484L571.2597125801253,-211.68211682116822L565.2574322288334,-220.00540005400057L566.1541143544837,-221.4358143581436L554.4057485449428,-229.43269432694328L552.7313319225549,-232.25032250322505Z" fill="#7fbad8" class="counted"/><path d="M495.15152971115197,-312.81912819128195L492.96472330267824,-315.48315483154835L488.6917584794262,-325.6736567365674L489.9086842213802,-331.9809198091981L489.5518413346418,-336.9105691056911L495.59072095636844,-341.0290102901029L500.2571279367936,-348.7234872348724L519.3619471037107,-346.11226112261124L534.7885395919398,-353.67233672336727L540.443126874102,-359.48039480394806L559.3009009655848,-370.0165001650017L559.1636537014547,-373.48213482134827L561.926898619275,-375.3301533015331L564.4430984616612,-383.89823898238984L564.3424504679657,-378.62298622986236L565.9070692790494,-378.66138661386617L567.874280064915,-358.5107851078511L569.9878879325192,-340.85620856208567L555.586075016462,-337.6737767377674L554.1587034695085,-335.86415864158647L532.6383324539007,-340.5682056820568L526.3066586686964,-343.57783577835784L523.1133723232682,-338.739387393874L517.4496352234972,-335.4849548495485L509.3977957278617,-336.0945609456095L503.11187103070074,-331.1409114091141L501.5289525843997,-327.9056790567906L506.27770792330296,-327.7904779047791L507.4580343948222,-324.26724267242673Z" fill="#89c0db" class="counted"/><path d="M569.9878879325192,-340.85620856208567L567.874280064915,-358.5107851078511L565.9070692790494,-378.66138661386617L564.3424504679657,-378.62298622986236L564.4430984616612,-383.89823898238984L566.4377587003527,-387.13827138271387L566.995897574482,-390.33990339903403L569.4480486936073,-396.5847658476585L573.391620082947,-400.660006600066L578.5887164846754,-403.2328323283233L581.5807068427127,-398.7207872078721L581.4709090314086,-394.8903489034891L582.4407896979284,-390.05190051900524L583.7400637983604,-387.479074790748L588.4430700492203,-385.1942519425195L589.4495499861747,-382.9286292862929L589.5684976150875,-380.35580355803563L592.9905294007326,-379.74619746197465L594.8936914633374,-382.43422434224345L598.7091654061556,-379.6165961659617L600.2097354939787,-381.9014190141902L604.3088537826658,-383.1974319743198L604.5924981285348,-379.10299102991036L596.8792018844202,-373.30933309333096L601.6371070409322,-366.57006570065704L600.1182373178918,-358.2467824678247L601.8292532107145,-353.9987399873999L607.8681328324411,-353.139531395314L610.5490293917834,-351.42591425914264L603.9611607135361,-340.01620016200167L601.0149194435422,-339.2385923859239L597.0072993309418,-342.17142171421716L591.5814574889964,-340.28500285002855L588.5345682253071,-341.58101581015814L585.6432258609652,-346.3426634266343L577.4541391011995,-346.01626016260167Z" fill="#6dafd2" class="counted"/><path d="M604.3088537826658,-383.1974319743198L600.2097354939787,-381.9014190141902L598.7091654061556,-379.6165961659617L594.8936914633374,-382.43422434224345L592.9905294007326,-379.74619746197465L589.5684976150875,-380.35580355803563L589.4495499861747,-382.9286292862929L588.4430700492203,-385.1942519425195L583.7400637983604,-387.479074790748L582.4407896979284,-390.05190051900524L581.4709090314086,-394.8903489034891L581.5807068427127,-398.7207872078721L578.5887164846754,-403.2328323283233L581.1689650503223,-405.15765157651583L584.462899389446,-404.7928479284793L587.4091406594398,-407.7064770647707L591.1788655142146,-401.5336153361534L594.9119910985548,-401.3464134641347L603.5860181915804,-397.669576695767L605.2604348139682,-399.709597095971L609.7255458070025,-396.3303633036331L605.2238355435335,-392.75912759127596L604.2082057889704,-389.9174991749918L605.406831895707,-383.87903879038794Z" fill="#499ac6" class="counted"/><path d="M670.3430874644861,-310.63030630306304L670.7822787097025,-307.9230792307923L661.1017716797226,-307.03027030270306L656.2066192590804,-309.33429334293345L659.445654692552,-311.2207122071221L654.7243488064748,-314.28314283142834L653.9374644921286,-320.47520475204755L646.5352620467091,-315.3535535355354L640.112090085418,-319.82719827198275L641.1643191104158,-324.0944409444095L659.5829019566821,-344.14904149041496L666.3446171694943,-348.6274862748628L668.760169018185,-347.2354723547236L671.4410655775273,-345.6946569465695L668.1471312384036,-337.1025710257103L663.3160275410223,-330.7617076170762L665.5760324903655,-330.3057030570306L668.9157159175325,-324.58884588845893L665.1551408803663,-319.9615996159962L661.9618545349381,-322.53442534425346L660.6259811640713,-321.4256142561426L660.0586924723334,-317.009570095701L664.1120616729772,-312.56952569525697Z" fill="#f1997b" class="counted"/><path d="M661.1017716797226,-307.03027030270306L648.7220684551828,-292.6685266852669L646.2424678832315,-271.67791677916784L647.926034323228,-257.43137431374316L651.2931672032211,-252.5737257372574L639.0049621547681,-249.67929679296796L637.67823860151,-253.20253202532027L633.8627646586917,-254.47934479344795L624.5299506978415,-250.3465034650347L618.1525278245938,-254.40254402544028L616.2127664915542,-263.20103201032015L611.5463595111291,-265.7738577385774L616.533010107858,-269.1050910509105L616.4415119317712,-272.2107221072211L611.1437675363474,-275.48915489154894L607.813233926789,-278.72438724387246L606.4590609207048,-282.6508265082651L609.0484593039604,-289.7548975489755L614.8219942150354,-295.6205562055621L614.6847469509053,-296.8589685896859L613.8887128189504,-300.1518015180152L615.5082305356862,-304.0782407824079L617.127748252422,-303.2382323823239L615.9016726928593,-298.78378783787844L619.5798993715473,-299.1053910539106L624.7769957732758,-305.239852398524L626.5337607541417,-304.8558485584856L627.8238850369651,-302.1918219182192L632.5909400110858,-303.19983199832L640.8166260412861,-315.71355713557136L645.0621414117121,-316.0735607356074L645.8673253612757,-315.19995199952L647.8619855999673,-314.47514475144754L649.8291963858327,-310.8559085590856L656.2066192590804,-309.33429334293345Z" fill="#8ac0db" class="counted"/><path d="M495.15152971115197,-312.81912819128195L507.4580343948222,-324.26724267242673L506.27770792330296,-327.7904779047791L501.5289525843997,-327.9056790567906L503.11187103070074,-331.1409114091141L509.3977957278617,-336.0945609456095L517.4496352234972,-335.4849548495485L523.1133723232682,-338.739387393874L526.3066586686964,-343.57783577835784L532.6383324539007,-340.5682056820568L554.1587034695085,-335.86415864158647L555.586075016462,-337.6737767377674L569.9878879325192,-340.85620856208567L577.4541391011995,-346.01626016260167L585.6432258609652,-346.3426634266343L588.5345682253071,-341.58101581015814L591.5814574889964,-340.28500285002855L597.0072993309418,-342.17142171421716L601.0149194435422,-339.2385923859239L603.9611607135361,-340.01620016200167L610.5490293917834,-351.42591425914264L616.533010107858,-347.8642786427865L618.9485619565487,-334.1889418894189L622.590189364802,-334.3425434254343L627.2931956156618,-326.00006000060006L630.1113394391343,-324.53124531245317L635.0613907654284,-325.2944529445295L638.6298196328124,-323.52323523235236L641.1643191104158,-324.0944409444095L640.112090085418,-319.82719827198275L646.5352620467091,-315.3535535355354L653.9374644921286,-320.47520475204755L654.7243488064748,-314.28314283142834L659.445654692552,-311.2207122071221L656.2066192590804,-309.33429334293345L649.8291963858327,-310.8559085590856L647.8619855999673,-314.47514475144754L645.8673253612757,-315.19995199952L645.0621414117121,-316.0735607356074L640.8166260412861,-315.71355713557136L632.5909400110858,-303.19983199832L627.8238850369651,-302.1918219182192L626.5337607541417,-304.8558485584856L624.7769957732758,-305.239852398524L619.5798993715473,-299.1053910539106L615.9016726928593,-298.78378783787844L617.127748252422,-303.2382323823239L615.5082305356862,-304.0782407824079L613.8887128189504,-300.1518015180152L614.6847469509053,-296.8589685896859L614.8219942150354,-295.6205562055621L609.0484593039604,-289.7548975489755L606.4590609207048,-282.6508265082651L607.813233926789,-278.72438724387246L611.1437675363474,-275.48915489154894L616.4415119317712,-272.2107221072211L616.533010107858,-269.1050910509105L611.5463595111291,-265.7738577385774L601.5090095944107,-268.3466834668347L591.0141687972584,-273.4491344913449L589.4495499861747,-275.01395013950145L575.1666846990303,-281.2972129721297L552.9417777275545,-278.70518705187055L545.8689687160473,-293.3165331653317L538.064174295846,-302.66702667026675L532.5376844602052,-305.0670506705067L524.6688413167433,-304.7646476464765L515.4000760791537,-307.39027390273907L505.26207816873983,-311.9071190711907L497.77752736484223,-310.9135091350914Z" fill="#80bad8" class="counted"/><path d="M561.4694077388411,-240.25200252002523L552.7313319225549,-232.25032250322505L540.9189173897531,-224.939849398494L526.8464979076083,-208.78768787687878L516.9738447078461,-192.27552275522757L516.5438032802383,-197.11397113971142L519.3619471037107,-203.20523205232055L518.6391115126253,-208.15888158881592L513.7439590919831,-214.15894158941592L515.0706826452413,-218.21018210182103L514.9242855635025,-221.3926139261393L515.4549749848057,-224.69024690246906L516.6810505443684,-230.55590555905562L516.8731967141506,-233.3927339273393L518.1816206321914,-234.92394923949243L521.9696451221836,-239.82959829598298L524.9799351154383,-243.10803108031084L526.4988048384786,-245.7768577685777L528.2189705489099,-247.49047490474908L530.1221326115145,-248.25368253682538L533.7363105669419,-248.4408844088441L534.9166370384612,-248.69048690486906L536.4812558495449,-249.77529775297756L545.905567986482,-249.58329583295836Z" fill="#88bfdb" class="counted"/><path d="M518.3097180787129,-412.5257252572526L517.8339275630617,-409.4776947769478L527.0752433478252,-409.51609516095164L530.4972751334703,-410.06810068100685L548.8975583445193,-416.50976509765104L558.3676195694998,-418.0505805058051L557.8369301481965,-416.33696336963374L561.3962091979718,-411.1385113851139L561.1674637577548,-410.52890528905294L559.2460020599327,-409.0024900249003L559.26430169515,-407.86007860078604L561.0119168584074,-406.4872648726488L562.7046331160126,-405.5176551765518L563.8300606818798,-404.35604356043564L564.7267428075302,-402.1864218642187L564.5711959081826,-397.4055740557406L564.9920875181817,-395.23115231152315L566.712253228613,-391.9959199591996L566.995897574482,-390.33990339903403L566.4377587003527,-387.13827138271387L564.4430984616612,-383.89823898238984L561.926898619275,-375.3301533015331L559.1636537014547,-373.48213482134827L559.3009009655848,-370.0165001650017L540.443126874102,-359.48039480394806L534.7885395919398,-353.67233672336727L519.3619471037107,-346.11226112261124L500.2571279367936,-348.7234872348724L495.59072095636844,-341.0290102901029L489.5518413346418,-336.9105691056911L496.8808452391919,-356.81636816368166L501.10806097440053,-358.529985299853L496.50570271723615,-371.37011370113703L496.15800964810643,-389.7686976869769L498.235018245276,-403.7656376563766L502.6177808798322,-414.7145471454715L505.4359247033047,-413.78333783337837L509.8003877026435,-412.88092880928815L512.1701904632907,-412.6553265532656Z" fill="#f29e7e" class="counted"/><path d="M649.2893571469208,-226.25506255062552L645.00724250606,-226.32706327063272L643.6347698647586,-224.25344253442537L642.0152521480228,-223.9078390783908L641.5394616323716,-224.86304863048633L637.8246356832489,-223.96543965439656L633.0667305267369,-224.76704767047673L633.8627646586917,-226.76866768667688L633.1582287028236,-227.4886748867489L630.6694783132635,-227.52707527075273L628.6290689865286,-224.86304863048633L628.4369228167465,-222.1558215582156L621.4098628932827,-219.83259832598327L623.2032271445834,-221.6038160381604L623.6790176602345,-223.62463624636248L624.1731078111031,-228.89988899889002L619.0675095854615,-231.90951909519097L618.2074267302459,-235.5287552875529L622.3980431950198,-240.63120631206314L624.5299506978415,-250.3465034650347L633.8627646586917,-254.47934479344795L637.67823860151,-253.20253202532027L639.0049621547681,-249.67929679296796L651.2931672032211,-252.5737257372574L653.8276666808244,-250.48090480904813L653.955764127346,-238.55758557585577L648.7952669960523,-234.9575495754958L650.4330843480054,-231.24231242312425Z" fill="#ec856f" class="counted"/><path d="M561.4694077388411,-240.25200252002523L545.905567986482,-249.58329583295836L536.4812558495449,-249.77529775297756L537.5517845097601,-251.86811868118684L537.5517845097601,-253.7737377373774L536.6002034784577,-256.44256442564426L536.6917016545445,-260.2490024900249L538.5033655410625,-263.68103681036814L540.781670125623,-265.9658596585966L542.5018358360543,-266.91626916269166L543.4534168673566,-268.0586805868059L547.2597409925662,-275.2971529715297L548.7877605332152,-276.8187681876819L550.69092259582,-278.15318153181533L552.9417777275545,-278.70518705187055L575.1666846990303,-281.2972129721297L589.4495499861747,-275.01395013950145L591.0141687972584,-273.4491344913449L585.6432258609652,-272.229922299223L577.582236547721,-261.6218162181622L577.353491107504,-257.41217412174126Z" fill="#79b6d6" class="counted"/><path d="M516.9738447078461,-192.27552275522757L526.8464979076083,-208.78768787687878L540.9189173897531,-224.939849398494L552.7313319225549,-232.25032250322505L554.4057485449428,-229.43269432694328L566.1541143544837,-221.4358143581436L565.2574322288334,-220.00540005400057L571.2597125801253,-211.68211682116822L572.7236833975136,-206.4836648366484L571.2963118505601,-188.1618816188162L565.6783238388325,-178.729787297873L552.0084963314694,-175.62895628956292L543.8377092069211,-166.60006600066004L541.3215093645349,-166.6960669606696L539.1255531384526,-160.35040350403506L535.5113751830252,-158.69438694386946L522.4637352730522,-164.9248492484925L509.57164226242656,-164.16164161641618L505.96661412460793,-161.26721267212673L502.3158368987459,-163.0960309603096L504.8686360115667,-165.66405664056643L509.57164226242656,-167.34407344073443L509.1141513819927,-169.45609456094562L510.91666545090203,-172.17772177721778Z" fill="#e3645b" class="counted"/><path d="M883.469789023394,-265.1834518345184L895.9226907888032,-268.84108841088414L908.5951881768204,-258.32898328983293L907.5155096989965,-250.81690816908173L908.778184528994,-247.42807428074283L907.643607145518,-243.9288392883929L908.9703306987761,-242.53682536825372L901.5223791653133,-236.6327663276633L897.8899015746686,-230.74790747907483L894.2665738016326,-229.90789907899082L893.1868953238087,-225.29985299853L877.7145537475363,-225.29985299853L875.3356011692804,-224.25344253442537L875.3356011692804,-221.01341013410135L867.5674060195138,-230.7287072870729L866.1949333782122,-239.43119431194313L862.5716056051763,-241.77361773617739L858.2345920586635,-240.66960669606698L863.8159807999563,-247.3368733687337L867.1465144095147,-247.52887528875291L869.4705680821186,-258.47778477784783L879.5628169044891,-262.9178291782918L880.8071920992691,-261.77541775417757Z" fill="#de4f4f" class="counted"/><path d="M731.7475134363159,-298.53418534185346L734.9682492345701,-296.05736057360576L740.9613797682533,-286.4380643806438L739.5706074917344,-282.19002190021905L745.5728878430265,-259.6009960099601L742.0136087932511,-253.1065310653107L717.5561463252582,-264.8618486184862L721.2526726391636,-279.7179971799718L719.6697541928626,-289.5244952449525L725.004097858721,-297.3917739177392Z" fill="#ea7f6c" class="counted"/><path d="M767.0932588586342,-151.15351153511537L757.3853023758281,-147.11667116671168L734.9682492345701,-143.3438334383344L733.8245220334854,-140.54540545405456L731.1527752917518,-143.78063780637808L734.0166682032677,-148.44628446284463L732.1043563230543,-150.67830678306785L738.6190264604321,-152.4879248792488L740.8698815921666,-157.6287762877629L738.1249363095635,-166.00966009660098L738.9026708063011,-171.26571265712658L744.621306811724,-174.44814448144484L746.0120790882429,-173.53133531335314L746.5793677799809,-176.7329673296733L753.4234313512711,-175.64815648156483L762.1981064379921,-163.49443494434945Z" fill="#ee8c73" class="counted"/><path d="M776.1424284736155,-320.7440074400744L763.1954365573379,-323.4848348483485L752.9659404708373,-329.8064980649807L747.7596942515002,-335.71055710557107L743.971669761508,-357.579575795758L740.6777354223843,-358.43398433984345L741.7025149945562,-364.81804818048187L746.2957234341119,-364.189241892419L746.4512703334594,-372.09012090120905L749.919051207148,-371.71091710917113L758.1996361430004,-377.749377493775L768.429132229501,-380.2454024540246L769.1519678205865,-395.04395043950444L771.5492200340598,-396.3735637356374L773.9739217003591,-392.6055260552606L773.4798315494905,-385.89985899859005L781.2480266992571,-385.70785707857084L785.2830962646836,-392.0535205352054L789.2449672892407,-393.4983349833499L791.5690209618446,-392.94632946329466L789.6841585344572,-383.06303063030634L790.2971963142385,-372.8533285332854L793.764977187927,-374.4709447094471L802.1370602998662,-363.00843008430087L813.6292312163642,-360.0756007560076L816.7859182913577,-357.1379713797138L818.5975821778758,-349.80829808298085L819.723009743743,-345.7138571385714L801.9540639476927,-339.7137971379714L791.0932304461934,-331.6737167371674L783.1877880322967,-330.43530435304353Z" fill="#65aacf" class="counted"/><path d="M751.4470707477969,-222.36702367023673L743.0749876358577,-214.25494254942552L740.4489899821674,-214.99414994149944L740.1287463658638,-217.6437764377644L735.9198302658724,-218.86298862988633L732.0494574174022,-218.9589895898959L727.383050436977,-217.2069720697207L727.4836984306725,-234.19434194341946L733.1931846184867,-238.9559895598956L741.9587098875991,-242.13842138421387L750.9621304145371,-233.14793147931482L752.1058576156216,-229.20709207092074L758.776074652347,-227.9686796867969L758.1447372373483,-225.53025530255306Z" fill="#f09679" class="counted"/><path d="M768.429132229501,-300.1518015180152L766.5808690725484,-295.9613596135962L769.9571517701501,-291.80931809318093L768.996420921239,-286.39966399664L773.5713297255774,-279.1275912759128L782.583900070124,-270.5739057390574L797.3791551433543,-266.479464794648L801.661269784215,-257.60417604176047L792.2369576472779,-251.33531335313356L790.5808406601075,-239.5847958479585L794.7714571248814,-233.77673776737768L791.8526653077136,-228.48228482284824L789.5743607231531,-230.1959019590196L776.4260728194845,-205.3988539885399L767.5690493742854,-205.72045720457206L757.0376093066984,-214.96054960549608L751.4470707477969,-222.36702367023673L758.1447372373483,-225.53025530255306L758.776074652347,-227.9686796867969L752.1058576156216,-229.20709207092074L750.9621304145371,-233.14793147931482L741.9587098875991,-242.13842138421387L742.0136087932511,-253.1065310653107L745.5728878430265,-259.6009960099601L739.5706074917344,-282.19002190021905L740.9613797682533,-286.4380643806438L734.9682492345701,-296.05736057360576Z" fill="#ea7e6b" class="counted"/><path d="M767.0932588586342,-151.15351153511537L762.1981064379921,-163.49443494434945L753.4234313512711,-175.64815648156483L754.9240014390941,-179.5889958899589L773.9556220651418,-174.769747697477L784.6151595792502,-183.3426334263343L781.1931277936051,-190.02430024300244L794.1218200746654,-177.7217772177722L800.6181905768259,-162.19842198421986L809.9327049024588,-148.58068580685807L802.3932551929091,-146.1038610386104L802.622000633126,-135.72615726157264L800.2155986020441,-134.73254732547326L797.2236082440068,-136.86376863768638Z" fill="#eb816c" class="counted"/><path d="M818.8629268885273,-300.0558005580056L803.0520420607339,-304.63024630246304L797.2419078792242,-321.33441334413345L783.1877880322967,-330.43530435304353L791.0932304461934,-331.6737167371674L801.9540639476927,-339.7137971379714L819.723009743743,-345.7138571385714L818.5975821778758,-349.80829808298085L822.8613971835191,-347.6338763387634L824.7462596109065,-337.0065700657007L832.1393122387174,-328.53448534485346L831.4713755532839,-318.38238382383827L833.3562379806714,-315.02715027150276L833.4111368863234,-313.1215312153122L826.2925787867729,-313.6207362073621Z" fill="#eba88a" class="counted"/><path d="M653.955764127346,-238.55758557585577L653.8276666808244,-250.48090480904813L651.2931672032211,-252.5737257372574L647.926034323228,-257.43137431374316L646.2424678832315,-271.67791677916784L648.7220684551828,-292.6685266852669L651.5585119138726,-291.7709177091771L657.011803208644,-298.3037830378304L658.6221711077711,-292.6685266852669L663.7643686038475,-289.03009030090305L669.4830046092704,-290.05730057300576L674.3964566651299,-288.1708817088171L675.8238282120834,-286.270062700627L671.3861666718752,-282.9916299162992L674.1128123192609,-280.59160591605917L674.5703031996948,-278.07638076380766L676.7571096081684,-275.63795637956383L676.0159743818657,-272.70512705127055L678.2210804255568,-272.2875228752288L671.1940205020929,-262.2890228902289L670.3979863701381,-256.3849638496385L666.71975969145,-257.9257792577926L665.6766804840609,-256.4809648096481L661.4494647488523,-240.29040290402907L659.2901077932045,-237.2039720397204Z" fill="#ed8971" class="counted"/><path d="M738.9026708063011,-171.26571265712658L738.1249363095635,-166.00966009660098L740.8698815921666,-157.6287762877629L738.6190264604321,-152.4879248792488L732.1043563230543,-150.67830678306785L734.0166682032677,-148.44628446284463L731.1527752917518,-143.78063780637808L733.8245220334854,-140.54540545405456L734.8127023352225,-137.3437734377344L727.0628068206734,-139.51339513395135L720.4932377776435,-138.8317883178832L722.7349430917692,-176.10416104161044Z" fill="#d7333f" class="counted"/><path d="M823.090142623736,-210.63570635706358L828.5800331889421,-204.77004770047702L831.837368257631,-192.3859238592386L834.1431222950175,-191.15231152311526L841.3348789354375,-186.06426064260646L837.6017533510974,-182.50262502625029L835.149602231972,-183.40023400234003L834.7104109867555,-181.00021000210003L830.364247622634,-182.1618216182162L829.5316142202445,-179.30099300993012L823.1907906174315,-180.71220712207125L823.9136262085169,-178.8257882578826L820.0432533600466,-178.06738067380675L819.1465712343963,-175.53295532955332L820.0432533600466,-170.96330963309634L813.7207293924511,-171.7217172171722L808.8072773365916,-174.9617496174962L810.4267950533274,-176.29616296162962L808.4229849970271,-184.86424864248644L813.7207293924511,-199.0147901479015L826.4664253213377,-203.77643776437768Z" fill="#ce0e28" class="counted"/><path d="M767.0932588586342,-151.15351153511537L797.2236082440068,-136.86376863768638L794.4878127790124,-135.78375783757838L790.9651329996719,-128.10848108481085L782.2362070009942,-123.53403534035341L786.1980780255512,-114.83154831548316L788.9064240377196,-112.25872258722589L793.3440855779279,-112.73392733927341L797.0955107974853,-108.01068010680108L796.3909748416172,-98.39618396183963L792.4291038170602,-100.39300393003931L781.4767721394741,-93.63453634536346L773.1504381155783,-94.96414964149642L767.5690493742854,-90.20250202502027L754.8691025334421,-87.10167101671017L740.064697642603,-78.01518015180153L746.2957234341119,-93.34653346533466L738.8111726302143,-117.82197821978221L728.9476692480607,-132.96132961329616L720.4932377776435,-138.8317883178832L727.0628068206734,-139.51339513395135L734.8127023352225,-137.3437734377344L733.8245220334854,-140.54540545405456L734.9682492345701,-143.3438334383344L757.3853023758281,-147.11667116671168Z" fill="#df5150" class="counted"/><path d="M771.5492200340598,-396.3735637356374L769.1519678205865,-395.04395043950444L768.429132229501,-380.2454024540246L758.1996361430004,-377.749377493775L749.919051207148,-371.71091710917113L746.4512703334594,-372.09012090120905L746.2957234341119,-364.189241892419L741.7025149945562,-364.81804818048187L740.6777354223843,-358.43398433984345L732.8912406374004,-359.71079710797113L728.7006241726265,-362.9316293162932L730.8325316754482,-367.89967899679L727.3098518961076,-371.48051480514806L727.5568969715418,-375.78615786157866L729.2496132291471,-396.91116911169115L729.3045121347991,-408.8152881528816L731.5004683608815,-408.9256892568926L732.4154501217492,-412.85212852128524L729.9907484554499,-413.3081330813309L728.9293696128434,-416.1833618336184L737.4386999889128,-417.10017100171007L746.3140230693292,-413.3081330813309L749.0406687167149,-414.22014220142205L756.68076641996,-419.38499384993855L763.7261259786411,-415.07935079350796L771.2838753234082,-401.86001860018604Z" fill="#4d9cc8" class="counted"/><path d="M692.4947958950925,-338.3985839858399L697.1612028755177,-334.11214112141124L697.0239556113875,-326.68646686466866L690.6282331029224,-319.9231992319923L678.779219299686,-318.58878588785893L670.3430874644861,-310.63030630306304L664.1120616729772,-312.56952569525697L660.0586924723334,-317.009570095701L660.6259811640713,-321.4256142561426L661.9618545349381,-322.53442534425346L665.1551408803663,-319.9615996159962L668.9157159175325,-324.58884588845893L665.5760324903655,-330.3057030570306L667.8268876220999,-330.0177001770018L673.9572654199134,-336.35856358563586L677.251199759037,-333.90573905739063L679.7856992366404,-335.1969519695197L678.1112826142527,-338.739387393874L677.2603495766457,-339.8337983379834L678.2576796959914,-341.7634176341764L679.37395744425,-343.059430594306L685.0651439968469,-337.9041790417904Z" fill="#70b1d3" class="counted"/><path d="M884.7690631238261,-163.5328353283533L886.9009706266478,-166.96006960069602L885.4278499916509,-169.39849398493988L873.9082296223268,-178.729787297873L849.3409693430297,-176.0657606576066L848.0050959721628,-182.56022560225605L849.2769206197689,-185.72345723457235L851.9120680910678,-187.43707437074372L850.3291496447667,-190.58110581105814L854.6753130088882,-192.06432064320646L853.6596832543252,-195.30435304353045L857.3379099330132,-197.62757627576278L856.4778270777975,-199.0147901479015L860.6684435425715,-200.25320253202534L857.9051986247512,-201.43401434014342L861.1442340582227,-202.730027300273L858.9025287440969,-204.67404674046742L860.9612377060491,-205.24525245252454L861.4370282217003,-209.01809018090182L859.1861730899659,-213.33813338133385L862.4801074290895,-214.67254672546727L862.1415641775685,-216.48216482164824L857.4751571971433,-221.10941109411095L860.7050428130062,-227.98787987879882L857.8502997190991,-228.29028290282906L858.2345920586635,-240.66960669606698L862.5716056051763,-241.77361773617739L866.1949333782122,-239.43119431194313L867.5674060195138,-230.7287072870729L875.3356011692804,-221.01341013410135L875.3356011692804,-224.25344253442537L877.7145537475363,-225.29985299853L893.1868953238087,-225.29985299853L900.708045398141,-203.30123301233013L897.9448004803206,-201.01641016410167L911.8525232455094,-183.97143971439715L914.9726110500682,-180.35220352203524L903.9836801020473,-170.21930219302195L906.7469250198677,-169.15369153691537L905.4293512842182,-166.7728677286773L895.9409904240205,-168.16008160081603L891.905920858594,-166.82566825668258L891.0915870914217,-164.4448444484445Z" fill="#d7323e" class="counted"/><path d="M776.1424284736155,-320.7440074400744L783.1877880322967,-330.43530435304353L797.2419078792242,-321.33441334413345L803.0520420607339,-304.63024630246304L818.8629268885273,-300.0558005580056L816.9048659202705,-293.20133201332015L811.570522254412,-291.0509105091051L810.5823419526748,-284.95484954849553L812.1378109461499,-274.3659436594366L817.1702106309222,-264.5738457384574L817.9479451276596,-257.6233762337624L820.6196918693933,-256.629766297663L820.290298435481,-252.29052290522907L822.239209586129,-250.3465034650347L821.0588831146098,-248.19608196081964L825.4324959315572,-246.63126631266314L822.806498277867,-245.33525335253356L823.2822887935182,-242.76722767227673L819.1099719639616,-243.05043050430507L812.0463127700632,-238.9559895598956L801.661269784215,-257.60417604176047L797.3791551433543,-266.479464794648L782.583900070124,-270.5739057390574L773.5713297255774,-279.1275912759128L768.996420921239,-286.39966399664L769.9571517701501,-291.80931809318093L766.5808690725484,-295.9613596135962L768.429132229501,-300.1518015180152Z" fill="#7bb7d6" class="counted"/><path d="M776.1424284736155,-320.7440074400744L768.429132229501,-300.1518015180152L734.9682492345701,-296.05736057360576L731.7475134363159,-298.53418534185346L729.3502612228425,-305.99825998259985L733.385330788269,-311.6959169591696L735.5172382910906,-311.35031350313506L740.320892535646,-322.66402664026646L742.7730436547713,-322.68322683226836L747.7596942515002,-335.71055710557107L752.9659404708373,-329.8064980649807L763.1954365573379,-323.4848348483485Z" fill="#ee8e75" class="counted"/><path d="M818.8629268885273,-300.0558005580056L826.2925787867729,-313.6207362073621L833.4111368863234,-313.1215312153122L842.5792541302176,-312.9151291512915L851.4362775754166,-308.47508475084754L858.0973447945333,-308.1918819188192L863.8342804351737,-309.71349713497136L865.5635959632136,-307.39027390273907L871.2456326982018,-307.29427294272944L873.3775402010235,-305.9070590705907L886.0591874066496,-311.239912399124L890.7255943870747,-314.969549695497L892.2536139277237,-314.2687426874269L893.8731316444595,-312.47832478324784L890.2315042362061,-308.5326853268533L888.4381399849055,-303.69423694236946L889.7740133557724,-296.95496954969553L887.065667343604,-279.80919809198093L883.469789023394,-265.1834518345184L880.8071920992691,-261.77541775417757L879.5628169044891,-262.9178291782918L869.4705680821186,-258.47778477784783L867.1465144095147,-247.52887528875291L863.8159807999563,-247.3368733687337L858.2345920586635,-240.66960669606698L854.6112642856275,-245.62325623256234L842.7714002999998,-252.669726697267L839.4683161432674,-257.70017700177004L829.2479698743755,-258.25218252182526L829.3760673208969,-254.30654306543067L825.9082864472084,-256.25056250562506L822.5777528376501,-262.7258272582726L817.1702106309222,-264.5738457384574L812.1378109461499,-274.3659436594366L810.5823419526748,-284.95484954849553L811.570522254412,-291.0509105091051L816.9048659202705,-293.20133201332015Z" fill="#ee8e75" class="counted"/><path d="M781.1931277936051,-190.02430024300244L784.6151595792502,-183.3426334263343L773.9556220651418,-174.769747697477L754.9240014390941,-179.5889958899589L753.4234313512711,-175.64815648156483L746.5793677799809,-176.7329673296733L749.3060134273666,-184.4466444664447L747.7230949810655,-187.26427264272644L750.3948417227991,-190.33150331503316L749.0040694462803,-196.92196921969222L750.2575944586689,-199.0147901479015L750.6967857038854,-194.90114901149013L754.7684545397466,-195.45315453154532L754.0639185838785,-200.7476074760748L754.8508028982247,-202.730027300273L757.4951001871323,-206.78606786067863L757.6689467216971,-208.08208082080822L755.152746879311,-208.7108871088711L757.0376093066984,-214.96054960549608L767.5690493742854,-205.72045720457206Z" fill="#eba88a" class="counted"/><path d="M781.1931277936051,-190.02430024300244L767.5690493742854,-205.72045720457206L776.4260728194845,-205.3988539885399L789.5743607231531,-230.1959019590196L791.8526653077136,-228.48228482284824L794.7714571248814,-233.77673776737768L803.9121249159496,-227.339873398734L814.7089096941882,-212.63252632526329L823.090142623736,-210.63570635706358L826.4664253213377,-203.77643776437768L813.7207293924511,-199.0147901479015L808.4229849970271,-184.86424864248644L810.4267950533274,-176.29616296162962L808.8072773365916,-174.9617496174962L805.6231408087721,-165.40005400054002L807.7641981292024,-162.76962769627698L800.6181905768259,-162.19842198421986L794.1218200746654,-177.7217772177722Z" fill="#dd4c4d" class="counted"/><path d="M729.3502612228425,-305.99825998259985L731.7475134363159,-298.53418534185346L725.004097858721,-297.3917739177392L719.6697541928626,-289.5244952449525L721.2526726391636,-279.7179971799718L717.5561463252582,-264.8618486184862L713.7315225648313,-255.64095640956413L703.3464795789831,-246.19446194461946L700.491736485076,-249.48729487294875L697.7284915672557,-249.58329583295836L698.5885744224712,-251.71931719317195L686.3003693740184,-257.5849758497585L686.1448224746708,-254.8777487774878L676.5283641679515,-256.3081630816308L668.9157159175325,-252.8617286172862L661.4494647488523,-240.29040290402907L665.6766804840609,-256.4809648096481L666.71975969145,-257.9257792577926L670.3979863701381,-256.3849638496385L671.1940205020929,-262.2890228902289L678.2210804255568,-272.2875228752288L676.0159743818657,-272.70512705127055L676.7571096081684,-275.63795637956383L674.5703031996948,-278.07638076380766L674.1128123192609,-280.59160591605917L671.3861666718752,-282.9916299162992L675.8238282120834,-286.270062700627L674.3964566651299,-288.1708817088171L669.4830046092704,-290.05730057300576L663.7643686038475,-289.03009030090305L658.6221711077711,-292.6685266852669L657.011803208644,-298.3037830378304L651.5585119138726,-291.7709177091771L648.7220684551828,-292.6685266852669L661.1017716797226,-307.03027030270306L670.7822787097025,-307.9230792307923L670.3430874644861,-310.63030630306304L678.779219299686,-318.58878588785893L690.6282331029224,-319.9231992319923L695.0658946431307,-315.10395103951043L700.8119801013797,-313.6015360153602L708.8180705089719,-307.19827198271986L716.0555762374352,-305.44625446254463L728.7738227134959,-307.48627486274864Z" fill="#87beda" class="counted"/><path d="M823.090142623736,-210.63570635706358L814.7089096941882,-212.63252632526329L803.9121249159496,-227.339873398734L794.7714571248814,-233.77673776737768L790.5808406601075,-239.5847958479585L792.2369576472779,-251.33531335313356L801.661269784215,-257.60417604176047L812.0463127700632,-238.9559895598956L820.9582351209143,-228.76548765487658L832.3863573141516,-226.25506255062552L827.8205983274219,-222.74622746227465L817.5270535176605,-222.2518225182252L831.3798773771972,-213.24213242132424L830.0989029119825,-211.3029130291303L834.1980212006696,-202.8260282602826L838.2879896717482,-199.70119701197015L834.4816655465386,-198.8275882758828L834.1431222950175,-191.15231152311526L831.837368257631,-192.3859238592386L828.5800331889421,-204.77004770047702Z" fill="#ed8a72" class="counted"/><path d="M727.383050436977,-217.2069720697207L727.8222416821935,-200.92040920409207L724.7387531480695,-191.53151531515317L722.5244972867697,-190.59550595505956L724.8668505945909,-187.24507245072454L724.4276593493744,-182.21942219422195L712.5877953637467,-179.05619056190562L706.4299681131072,-181.53301533015332L697.6735926616036,-190.9219092190922L688.8165692164044,-189.49149491494916L682.3018990790266,-185.53145531455317L673.5363738099143,-188.8626886268863L667.003404037319,-187.3410734107341L666.6831604210154,-191.13311133111333L664.2035598490639,-192.63552635526358L669.5745027853573,-196.53796537965383L675.3297380612149,-195.15075150751508L681.5790634879411,-201.85641856418567L679.7856992366404,-203.51243512435127L684.1135629655446,-209.91089910899112L695.2671906305216,-216.23256232562326L698.625173692906,-225.53025530255306L699.9152979757293,-221.89181891818922L701.6720629565953,-223.68223682236825L709.2481119365797,-223.87423874238743L713.2923313196148,-222.29022290222903L720.9232792052512,-223.52863528635288L722.2408529409007,-220.44220442204423L723.5401270413328,-221.6038160381604Z" fill="#e66d61" class="counted"/><path d="M727.383050436977,-217.2069720697207L723.5401270413328,-221.6038160381604L722.2408529409007,-228.05988059880602L703.3464795789831,-246.19446194461946L713.7315225648313,-255.64095640956413L717.5561463252582,-264.8618486184862L742.0136087932511,-253.1065310653107L741.9587098875991,-242.13842138421387L733.1931846184867,-238.9559895598956L727.4836984306725,-234.19434194341946Z" fill="#ec8670" class="counted"/><path d="M848.0050959721628,-182.56022560225605L841.3348789354375,-186.06426064260646L834.1431222950175,-191.15231152311526L834.4816655465386,-198.8275882758828L838.2879896717482,-199.70119701197015L834.1980212006696,-202.8260282602826L830.0989029119825,-211.3029130291303L831.3798773771972,-213.24213242132424L817.5270535176605,-222.2518225182252L827.8205983274219,-222.74622746227465L832.3863573141516,-226.25506255062552L820.9582351209143,-228.76548765487658L812.0463127700632,-238.9559895598956L819.1099719639616,-243.05043050430507L823.2822887935182,-242.76722767227673L822.806498277867,-245.33525335253356L825.4324959315572,-246.63126631266314L821.0588831146098,-248.19608196081964L822.239209586129,-250.3465034650347L820.290298435481,-252.29052290522907L820.6196918693933,-256.629766297663L817.9479451276596,-257.6233762337624L817.1702106309222,-264.5738457384574L822.5777528376501,-262.7258272582726L825.9082864472084,-256.25056250562506L829.3760673208969,-254.30654306543067L829.2479698743755,-258.25218252182526L839.4683161432674,-257.70017700177004L842.7714002999998,-252.669726697267L854.6112642856275,-245.62325623256234L858.2345920586635,-240.66960669606698L857.8502997190991,-228.29028290282906L860.7050428130062,-227.98787987879882L857.4751571971433,-221.10941109411095L862.1415641775685,-216.48216482164824L862.4801074290895,-214.67254672546727L859.1861730899659,-213.33813338133385L861.4370282217003,-209.01809018090182L860.9612377060491,-205.24525245252454L858.9025287440969,-204.67404674046742L861.1442340582227,-202.730027300273L857.9051986247512,-201.43401434014342L860.6684435425715,-200.25320253202534L856.4778270777975,-199.0147901479015L857.3379099330132,-197.62757627576278L853.6596832543252,-195.30435304353045L854.6753130088882,-192.06432064320646L850.3291496447667,-190.58110581105814L851.9120680910678,-187.43707437074372L849.2769206197689,-185.72345723457235Z" fill="#8bc1dc" class="counted"/><path d="M729.3502612228425,-305.99825998259985L728.7738227134959,-307.48627486274864L716.0555762374352,-305.44625446254463L708.8180705089719,-307.19827198271986L700.8119801013797,-313.6015360153602L695.0658946431307,-315.10395103951043L690.6282331029224,-319.9231992319923L697.0239556113875,-326.68646686466866L697.1612028755177,-334.11214112141124L692.4947958950925,-338.3985839858399L702.9072883337667,-354.58914589145894L713.5027771246143,-362.56682566825674L715.6163849922187,-363.23403234032344L722.8172914502474,-374.3029430294303L727.5568969715418,-375.78615786157866L727.3098518961076,-371.48051480514806L730.8325316754482,-367.89967899679L728.7006241726265,-362.9316293162932L732.8912406374004,-359.71079710797113L740.6777354223843,-358.43398433984345L743.971669761508,-357.579575795758L747.7596942515002,-335.71055710557107L742.7730436547713,-322.68322683226836L740.320892535646,-322.66402664026646L735.5172382910906,-311.35031350313506L733.385330788269,-311.6959169591696Z" fill="#e56a5f" class="counted"/><path d="M751.4470707477969,-222.36702367023673L757.0376093066984,-214.96054960549608L755.152746879311,-208.7108871088711L757.6689467216971,-208.08208082080822L757.4951001871323,-206.78606786067863L754.8508028982247,-202.730027300273L754.0639185838785,-200.7476074760748L754.7684545397466,-195.45315453154532L750.6967857038854,-194.90114901149013L750.2575944586689,-199.0147901479015L749.0040694462803,-196.92196921969222L750.3948417227991,-190.33150331503316L747.7230949810655,-187.26427264272644L749.3060134273666,-184.4466444664447L746.5793677799809,-176.7329673296733L746.0120790882429,-173.53133531335314L744.621306811724,-174.44814448144484L738.9026708063011,-171.26571265712658L722.7349430917692,-176.10416104161044L724.4276593493744,-182.21942219422195L724.8668505945909,-187.24507245072454L722.5244972867697,-190.59550595505956L724.7387531480695,-191.53151531515317L727.8222416821935,-200.92040920409207L727.383050436977,-217.2069720697207L732.0494574174022,-218.9589895898959L735.9198302658724,-218.86298862988633L740.1287463658638,-217.6437764377644L740.4489899821674,-214.99414994149944L743.0749876358577,-214.25494254942552Z" fill="#e25d57" class="counted"/><path d="M809.9327049024588,-148.58068580685807L800.6181905768259,-162.19842198421986L807.7641981292024,-162.76962769627698L805.6231408087721,-165.40005400054002L808.8072773365916,-174.9617496174962L813.7207293924511,-171.7217172171722L820.0432533600466,-170.96330963309634L819.1465712343963,-175.53295532955332L820.0432533600466,-178.06738067380675L823.9136262085169,-178.8257882578826L823.1907906174315,-180.71220712207125L829.5316142202445,-179.30099300993012L830.364247622634,-182.1618216182162L834.7104109867555,-181.00021000210003L835.149602231972,-183.40023400234003L837.6017533510974,-182.50262502625029L841.3348789354375,-186.06426064260646L848.0050959721628,-182.56022560225605L849.3409693430297,-176.0657606576066L873.9082296223268,-178.729787297873L885.4278499916509,-169.39849398493988L886.9009706266478,-166.96006960069602L884.7690631238261,-163.5328353283533L876.6714745401472,-158.48318483184832L879.2608729234028,-150.63990639906402L873.4324391066756,-144.79344793447936L861.2631816871354,-137.81897818978192L856.7065725180145,-138.54378543785438L840.5205451682652,-130.08610086100862L831.9471660689352,-138.54378543785438L827.7199503337265,-135.11655116551168Z" fill="#e66f62" class="counted"/><path d="M649.2893571469208,-226.25506255062552L650.4330843480054,-231.24231242312425L648.7952669960523,-234.9575495754958L653.955764127346,-238.55758557585577L659.2901077932045,-237.2039720397204L661.4494647488523,-240.29040290402907L668.9157159175325,-252.8617286172862L676.5283641679515,-256.3081630816308L686.1448224746708,-254.8777487774878L686.3003693740184,-257.5849758497585L698.5885744224712,-251.71931719317195L697.7284915672557,-249.58329583295836L700.491736485076,-249.48729487294875L703.3464795789831,-246.19446194461946L722.2408529409007,-228.05988059880602L723.5401270413328,-221.6038160381604L722.2408529409007,-220.44220442204423L720.9232792052512,-223.52863528635288L713.2923313196148,-222.29022290222903L709.2481119365797,-223.87423874238743L701.6720629565953,-223.68223682236825L699.9152979757293,-221.89181891818922L698.625173692906,-225.53025530255306L695.2671906305216,-216.23256232562326L684.1135629655446,-209.91089910899112L679.7856992366404,-203.51243512435127L681.5790634879411,-201.85641856418567L675.3297380612149,-195.15075150751508L669.5745027853573,-196.53796537965383L664.2035598490639,-192.63552635526358L663.0598326479793,-197.58917589175894L657.4875937242952,-202.38922389223893L657.3869457305998,-213.56853568535686L648.4018248388792,-222.0646206462065Z" fill="#f09378" class="counted"/><path d="M580.4003803711935,-176.3489634896349L585.9634694772689,-176.00816008160083L588.7816133007414,-169.2448924489245L585.3504316974876,-157.43677436774368L586.3477618168333,-154.73434734347344L582.9714791192316,-152.19992199922L584.5909968359674,-145.7246572465725L567.2063433794815,-151.30711307113071L563.4549181599241,-147.28467284672848L554.2502016455952,-148.10548105481055L552.4385377590772,-152.92472924729248L544.972286590397,-154.54234542345424L533.0317746110738,-150.9807098070981L535.5113751830252,-158.69438694386946L539.1255531384526,-160.35040350403506L541.3215093645349,-166.6960669606696L543.8377092069211,-166.60006600066004L552.0084963314694,-175.62895628956292L565.6783238388325,-178.729787297873L571.2963118505601,-188.1618816188162L572.4400390516446,-182.44502445024452Z" fill="#78b5d5" class="counted"/><path d="M652.7205387501746,-83.63123631236313L653.0682318193043,-88.54648546485465L647.1574496440991,-95.82335823358234L646.2424678832315,-100.35460354603546L642.8753350032384,-103.11943119431196L639.0690108780288,-106.9258692586926L638.1174298467265,-108.83148831488316L638.0533811234658,-115.63315633156333L634.8143456899942,-121.05721057210573L635.7933761741226,-126.26046260462606L639.0049621547681,-158.1039810398104L642.8204360975864,-158.96318963189634L650.2500879958319,-151.53271532715328L657.066702114296,-158.16158161581617L664.6793503647151,-155.83835838358385L668.9157159175325,-156.75036750367505L669.3640569803576,-161.45441454414546L674.7807490046943,-153.34233342333425L673.6736210740444,-150.0879008790088L678.3949269601217,-148.4846848468485L679.5752534316409,-134.9629496294963L676.8760572370812,-119.63159631596317L669.8672969488349,-115.91635916359165L668.2660788673164,-110.90030900309004L666.7929582323195,-105.50025500255003L668.1471312384036,-100.35460354603546L671.2580692253538,-94.10974109741099L669.638551508618,-93.40413404134043L668.7967682886197,-84.35604356043561Z" fill="#d7333e" class="counted"/><path d="M455.322373660582,-90.54810548105482L446.5019494858176,-90.7929079290793L443.0250187945204,-95.07935079350794L442.8877715303903,-98.24258242582427L443.17141587625923,-100.71940719407195L448.66130644146534,-102.4138241382414L446.9777400014688,-114.43314433144333L445.614417177776,-133.32613326133261L442.18323557452214,-153.07833078330785L476.46760215423404,-151.0767107671077L486.43175353008303,-152.52632526325266L494.9044846357177,-144.16464164641647L497.0729914089741,-135.27015270152702L490.94261361116065,-129.11649116491165L491.22625795702965,-120.92760927609277L484.88543435421667,-113.11793117931181L485.1690787000856,-108.54348543485436L482.59797995204747,-104.44904449044492L487.36503492616805,-101.74661746617467L484.7664867253038,-98.39618396183963L477.6113293553186,-93.17373173731738L461.8736430683946,-89.84249842498426Z" fill="#da3f45" class="counted"/><path d="M669.3640569803576,-161.45441454414546L666.4361153455811,-166.96006960069602L664.6061518238457,-180.8466084660847L667.003404037319,-187.3410734107341L673.5363738099143,-188.8626886268863L682.3018990790266,-185.53145531455317L688.8165692164044,-189.49149491494916L697.6735926616036,-190.9219092190922L706.4299681131072,-181.53301533015332L712.5877953637467,-179.05619056190562L724.4276593493744,-182.21942219422195L722.7349430917692,-176.10416104161044L720.4932377776435,-138.8317883178832L728.9476692480607,-132.96132961329616L738.8111726302143,-117.82197821978221L734.3003125491367,-116.16596165961661L725.2511429341554,-121.87801878018782L702.843239610506,-126.2508625086251L701.0315757239879,-117.28917289172892L697.5363453974734,-114.6779467794678L683.2168808398943,-113.78513785137852L676.5283641679515,-110.35310353103532L668.2660788673164,-110.90030900309004L669.8672969488349,-115.91635916359165L676.8760572370812,-119.63159631596317L679.5752534316409,-134.9629496294963L678.3949269601217,-148.4846848468485L673.6736210740444,-150.0879008790088L674.7807490046943,-153.34233342333425Z" fill="#86beda" class="counted"/><path d="M668.7967682886197,-84.35604356043561L669.638551508618,-93.40413404134043L671.2580692253538,-94.10974109741099L668.1471312384036,-100.35460354603546L666.7929582323195,-105.50025500255003L668.2660788673164,-110.90030900309004L676.5283641679515,-110.35310353103532L683.2168808398943,-113.78513785137852L697.5363453974734,-114.6779467794678L701.0315757239879,-117.28917289172892L702.843239610506,-126.2508625086251L725.2511429341554,-121.87801878018782L734.3003125491367,-116.16596165961661L738.8111726302143,-117.82197821978221L746.2957234341119,-93.34653346533466L740.064697642603,-78.01518015180153L736.331572058263,-75.06315063150632L731.4821687256642,-63.97503975039751L727.099406091108,-59.06459064590646L714.9667479420026,-54.97014970149702L692.1105035555281,-52.96852968529686L681.3503180477242,-64.39744397443975L681.1947711483767,-68.4918849188492L685.3853876131507,-72.77832778327785L673.28932873448,-78.20238202382025L670.5260838166596,-84.39444394443946Z" fill="#ee8c73" class="counted"/><path d="M649.2893571469208,-226.25506255062552L648.4018248388792,-222.0646206462065L657.3869457305998,-213.56853568535686L657.4875937242952,-202.38922389223893L663.0598326479793,-197.58917589175894L664.2035598490639,-192.63552635526358L666.6831604210154,-191.13311133111333L667.003404037319,-187.3410734107341L664.6061518238457,-180.8466084660847L666.4361153455811,-166.96006960069602L669.3640569803576,-161.45441454414546L668.9157159175325,-156.75036750367505L664.6793503647151,-155.83835838358385L657.066702114296,-158.16158161581617L650.2500879958319,-151.53271532715328L642.8204360975864,-158.96318963189634L639.0049621547681,-158.1039810398104L636.9096539223812,-162.06402064020642L630.8799241182631,-159.51519515195153L627.8696341250085,-163.91203912039123L622.2058970252376,-166.8640686406864L625.3534342826224,-174.16014160141603L634.6862482434727,-182.8290282902829L637.3488451675977,-192.35232352323524L634.5307013441252,-194.40674406744068L635.9580728910788,-196.65316653166533L629.6538485587005,-213.11253112531128L621.4098628932827,-219.83259832598327L628.4369228167465,-222.1558215582156L628.6290689865286,-224.86304863048633L630.6694783132635,-227.52707527075273L633.1582287028236,-227.4886748867489L633.8627646586917,-226.76866768667688L633.0667305267369,-224.76704767047673L637.8246356832489,-223.96543965439656L641.5394616323716,-224.86304863048633L642.0152521480228,-223.9078390783908L643.6347698647586,-224.25344253442537L645.00724250606,-226.32706327063272Z" fill="#5da6cd" class="counted"/><path d="M595.5433285135534,-180.53940539405397L596.5315088152905,-183.89463894638948L605.5806784302719,-193.72033720337205L608.3439233480923,-202.10122101221015L610.5947784798268,-205.3988539885399L611.070568995478,-207.01647016470167L607.2916943230945,-209.10929109291095L621.4098628932827,-219.83259832598327L629.6538485587005,-213.11253112531128L635.9580728910788,-196.65316653166533L634.5307013441252,-194.40674406744068L637.3488451675977,-192.35232352323524L634.6862482434727,-182.8290282902829L625.3534342826224,-174.16014160141603L622.2058970252376,-166.8640686406864L599.377102091589,-166.5808658086581L596.7785538907249,-164.20004200042L592.2676938096472,-168.2368823688237Z" fill="#e3645b" class="counted"/><path d="M580.8212719811926,-62.112621126211266L623.9626620061035,-64.77664776647767L647.8619855999673,-83.9768397683977L652.7205387501746,-83.63123631236313L668.7967682886197,-84.35604356043561L670.5260838166596,-84.39444394443946L673.28932873448,-78.20238202382025L685.3853876131507,-72.77832778327785L681.1947711483767,-68.4918849188492L681.3503180477242,-64.39744397443975L692.1105035555281,-52.96852968529686L686.1448224746708,-50.299702997029975L679.8863472303359,-39.21639216392164L676.0525736523003,-26.01626016260163L676.1715212812131,-19.5409954099541L676.0708732875177,-16.492964929649297L673.9206661494786,-4.684846848468485L674.1494115896955,-2.8752287522875233L666.0884222764514,-0.5520055200552006L662.1540007047204,0L661.824607270808,-3.3504335043350437L657.633990806034,-4.588845888458885L638.9683628843334,-3.0096300963009632L638.9134639786813,-8.740887408874089L634.9149936836897,-11.352113521135212L617.3930929630736,-12.115321153211534L613.4861208441686,-14.476944769447696L601.1979157957157,-25.50265502655027L588.4430700492203,-42.77802778027781Z" fill="#ec8670" class="counted"/><path d="M521.3200080719675,-71.07911079110792L458.945701433618,-62.45342453424535L456.5027001321013,-75.26955269552697L457.3261837168822,-80.22320223202233L455.5877183712336,-85.99285992859929L455.322373660582,-90.54810548105482L461.8736430683946,-89.84249842498426L477.6113293553186,-93.17373173731738L484.7664867253038,-98.39618396183963L487.36503492616805,-101.74661746617467L482.59797995204747,-104.44904449044492L485.1690787000856,-108.54348543485436L484.88543435421667,-113.11793117931181L491.22625795702965,-120.92760927609277L490.94261361116065,-129.11649116491165L517.513683946758,-117.30837308373084L518.0260737328439,-105.21225212252124L521.8964465813142,-97.67137671376715L519.9292357954487,-90.35610356103562Z" fill="#de504f" class="counted"/><path d="M578.881510648153,-100.39300393003931L566.4011594299179,-97.02337023370235L568.6886138320872,-92.87132871328714L563.0706258203596,-89.9768997689977L564.9737878829644,-86.54486544865449L556.6932029471119,-87.30807308073082L555.2658314001584,-109.11949119491196L548.879258709302,-117.11637116371165L554.6344939851597,-115.30675306753069L559.5845453114538,-116.39156391563917L580.97681888054,-126.16446164461645L585.0118884459665,-113.43953439534397L579.961189125977,-105.25065250652507L573.5837662527292,-105.44265442654428L574.2517029381627,-101.06021060210603Z" fill="#59a3cb" class="counted"/><path d="M580.4003803711935,-176.3489634896349L580.0618371196724,-179.30099300993012L589.2025049107405,-192.1027210272103L595.3511823437713,-191.15231152311526L593.8323126207309,-184.9218492184922L595.5433285135534,-180.53940539405397L592.2676938096472,-168.2368823688237L596.7785538907249,-164.20004200042L599.377102091589,-166.5808658086581L622.2058970252376,-166.8640686406864L627.8696341250085,-163.91203912039123L630.8799241182631,-159.51519515195153L636.9096539223812,-162.06402064020642L639.0049621547681,-158.1039810398104L635.7933761741226,-126.26046260462606L630.147938709569,-125.24765247652478L625.0057412134927,-129.5916959169592L632.3987938413035,-134.52614526145263L635.3175856584714,-145.4750547505475L629.6538485587005,-146.41106411064112L625.7743258926215,-147.4958749587496L617.83228420829,-143.49743497434974L610.9150220961304,-132.77412774127743L608.0602790022233,-140.16140161401614L609.0667589391777,-143.7230372303723L591.9291505581261,-142.54222542225423L598.1144272615917,-131.30531305313053L596.5315088152905,-129.53409534095343L593.9238107968176,-133.0189301893019L589.5410481622615,-134.44934449344495L585.2589335214008,-138.77418774187743L584.5909968359674,-145.7246572465725L582.9714791192316,-152.19992199922L586.3477618168333,-154.73434734347344L585.3504316974876,-157.43677436774368L588.7816133007414,-169.2448924489245L585.9634694772689,-176.00816008160083Z" fill="#8cc1dc" class="counted"/><path d="M652.7205387501746,-83.63123631236313L647.8619855999673,-83.9768397683977L639.6728988402016,-87.06327063270633L641.1002703871551,-91.78651786517867L638.7762167145512,-95.34815348153482L612.4887907248228,-102.50982509825099L612.9554314228653,-104.85224852248524L613.0103303285174,-106.73866738667388L607.6027881217894,-107.49707497074972L606.568858732009,-104.17064170641707L596.2112651989869,-106.9258692586926L595.2047852620325,-99.78339783397836L578.881510648153,-100.39300393003931L574.2517029381627,-101.06021060210603L573.5837662527292,-105.44265442654428L579.961189125977,-105.25065250652507L585.0118884459665,-113.43953439534397L580.97681888054,-126.16446164461645L589.5410481622615,-134.44934449344495L593.9238107968176,-133.0189301893019L596.5315088152905,-129.53409534095343L598.1144272615917,-131.30531305313053L591.9291505581261,-142.54222542225423L609.0667589391777,-143.7230372303723L608.0602790022233,-140.16140161401614L610.9150220961304,-132.77412774127743L617.83228420829,-143.49743497434974L625.7743258926215,-147.4958749587496L629.6538485587005,-146.41106411064112L635.3175856584714,-145.4750547505475L632.3987938413035,-134.52614526145263L625.0057412134927,-129.5916959169592L630.147938709569,-125.24765247652478L635.7933761741226,-126.26046260462606L634.8143456899942,-121.05721057210573L638.0533811234658,-115.63315633156333L638.1174298467265,-108.83148831488316L639.0690108780288,-106.9258692586926L642.8753350032384,-103.11943119431196L646.2424678832315,-100.35460354603546L647.1574496440991,-95.82335823358234L653.0682318193043,-88.54648546485465Z" fill="#f3a280" class="counted"/><path d="M539.7019916477992,-73.40713407134072L521.3200080719675,-71.07911079110792L519.9292357954487,-90.35610356103562L521.8964465813142,-97.67137671376715L518.0260737328439,-105.21225212252124L517.513683946758,-117.30837308373084L490.94261361116065,-129.11649116491165L497.0729914089741,-135.27015270152702L494.9044846357177,-144.16464164641647L486.43175353008303,-152.52632526325266L502.3158368987459,-163.0960309603096L505.96661412460793,-161.26721267212673L509.57164226242656,-164.16164161641618L522.4637352730522,-164.9248492484925L535.5113751830252,-158.69438694386946L533.0317746110738,-150.9807098070981L534.4042472523753,-142.2206222062221L546.9211977410451,-128.10848108481085L548.879258709302,-117.11637116371165L555.2658314001584,-109.11949119491196L556.6932029471119,-87.30807308073082L547.3603889862616,-87.69207692076921L543.6089637667042,-85.21525215252153L537.2589903462824,-76.6039660396604Z" fill="#de4d4e" class="counted"/><path d="M548.879258709302,-117.11637116371165L546.9211977410451,-128.10848108481085L534.4042472523753,-142.2206222062221L533.0317746110738,-150.9807098070981L544.972286590397,-154.54234542345424L552.4385377590772,-152.92472924729248L554.2502016455952,-148.10548105481055L563.4549181599241,-147.28467284672848L567.2063433794815,-151.30711307113071L584.5909968359674,-145.7246572465725L585.2589335214008,-138.77418774187743L589.5410481622615,-134.44934449344495L580.97681888054,-126.16446164461645L559.5845453114538,-116.39156391563917L554.6344939851597,-115.30675306753069Z" fill="#e4665c" class="counted"/><path d="M580.8212719811926,-62.112621126211266L579.393900434239,-66.07266072660727L539.7019916477992,-73.40713407134072L537.2589903462824,-76.6039660396604L543.6089637667042,-85.21525215252153L547.3603889862616,-87.69207692076921L556.6932029471119,-87.30807308073082L564.9737878829644,-86.54486544865449L563.0706258203596,-89.9768997689977L568.6886138320872,-92.87132871328714L566.4011594299179,-97.02337023370235L578.881510648153,-100.39300393003931L595.2047852620325,-99.78339783397836L596.2112651989869,-106.9258692586926L606.568858732009,-104.17064170641707L607.6027881217894,-107.49707497074972L613.0103303285174,-106.73866738667388L612.9554314228653,-104.85224852248524L612.4887907248228,-102.50982509825099L638.7762167145512,-95.34815348153482L641.1002703871551,-91.78651786517867L639.6728988402016,-87.06327063270633L647.8619855999673,-83.9768397683977L623.9626620061035,-64.77664776647767Z" fill="#87beda" class="counted"/></g><g transform="translate(0,28)"><rect x="184.99451904296876" width="68" height="9" style="fill: #8b0000;"/><rect x="252.99451904296876" width="68" height="9" style="fill: #b50000;"/><rect x="320.99451904296876" width="68" height="9" style="fill: #df5351;"/><rect x="388.99451904296876" width="68" height="9" style="fill: #f4a582;"/><rect x="456.99451904296876" width="68" height="9" style="fill: #92c5de;"/><rect x="524.9945190429687" width="68" height="9" style="fill: #4c9bc7;"/><rect x="592.9945190429687" width="68" height="9" style="fill: #004799;"/><rect x="660.9945190429687" width="68" height="9" style="fill: #00006b;"/><text x="184.99451904296876" y="29" style="font-size: 13px; font-family: sans-serif;">Nein</text><text x="728.9945190429687" y="29" style="text-anchor: end; font-size: 13px; font-family: sans-serif;">Ja</text></g></svg>