<svg width="24" height="24" viewBox="0 0 24 24" fill="none" xmlns="http://www.w3.org/2000/svg">
<path d="M12 20C16.4183 20 20 16.4183 20 12C20 7.58172 16.4183 4 12 4C7.58172 4 4 7.58172 4 12C4 16.4183 7.58172 20 12 20Z" stroke="#495057" stroke-width="1.5" stroke-linecap="round" stroke-linejoin="round"/>
<path d="M14 9.75C13.5656 9.36813 13.0299 9.11931 12.4572 9.0334C11.8845 8.94749 11.2991 9.02815 10.7712 9.26569C10.2434 9.50323 9.79548 9.88756 9.4813 10.3726C9.16712 10.8576 9 11.4227 9 12C9 12.5773 9.16712 13.1424 9.4813 13.6274C9.79548 14.1124 10.2434 14.4968 10.7712 14.7343C11.2991 14.9719 11.8845 15.0525 12.4572 14.9666C13.0299 14.8807 13.5656 14.6319 14 14.25" stroke="#495057" stroke-width="1.5" stroke-linecap="round" stroke-linejoin="round"/>
</svg>
