<?xml version="1.0" encoding="UTF-8"?>
<svg width="225px" height="225px" viewBox="0 0 225 225" version="1.1" xmlns="http://www.w3.org/2000/svg" xmlns:xlink="http://www.w3.org/1999/xlink">
    <title>logo</title>
    <g id="logo" stroke="none" stroke-width="1" fill="none" fill-rule="evenodd">
        <path d="M32.56,113.84 C34.64,113.84 36.29,113.55 37.51,112.97 C38.73,112.39 39.64,111.7 40.24,110.9 C40.84,110.1 41.26,109.42 41.5,108.86 L41.5,108.86 L42.52,108.86 L42.52,108.98 C42.52,110.22 42.98,111.2 43.9,111.92 C44.82,112.64 46,113 47.44,113 L47.44,113 L52.3,113 L52.3,107.3 L49.78,107.3 C48.66,107.3 48.1,106.7 48.1,105.5 L48.1,105.5 L48.1,93.86 C48.1,90.18 46.99,87.37 44.77,85.43 C42.55,83.49 39.5,82.52 35.62,82.52 C33.06,82.52 30.9,82.91 29.14,83.69 C27.38,84.47 25.97,85.5 24.91,86.78 C23.85,88.06 23.08,89.48 22.6,91.04 L22.6,91.04 L28.96,93.14 C29.28,91.66 29.95,90.45 30.97,89.51 C31.99,88.57 33.5,88.1 35.5,88.1 C37.54,88.1 39.04,88.59 40,89.57 C40.96,90.55 41.44,91.82 41.44,93.38 L41.44,93.38 L41.44,95.18 L32.86,95.18 C30.66,95.18 28.7,95.53 26.98,96.23 C25.26,96.93 23.91,97.96 22.93,99.32 C21.95,100.68 21.46,102.36 21.46,104.36 C21.46,106.4 21.95,108.12 22.93,109.52 C23.91,110.92 25.24,111.99 26.92,112.73 C28.6,113.47 30.48,113.84 32.56,113.84 Z M33.7,108.2 C32.02,108.2 30.7,107.83 29.74,107.09 C28.78,106.35 28.3,105.38 28.3,104.18 C28.3,102.94 28.76,102 29.68,101.36 C30.6,100.72 31.8,100.4 33.28,100.4 L33.28,100.4 L41.44,100.4 L41.44,101 C41.44,103.2 40.72,104.95 39.28,106.25 C37.84,107.55 35.98,108.2 33.7,108.2 Z M70.12,113.84 C72.92,113.84 75.06,113.35 76.54,112.37 C78.02,111.39 79.12,110.3 79.84,109.1 L79.84,109.1 L80.86,109.1 L80.86,113 L87.58,113 L87.58,71 L80.74,71 L80.74,87.08 L79.72,87.08 C79.28,86.28 78.67,85.54 77.89,84.86 C77.11,84.18 76.08,83.62 74.8,83.18 C73.52,82.74 71.96,82.52 70.12,82.52 C67.68,82.52 65.43,83.11 63.37,84.29 C61.31,85.47 59.66,87.2 58.42,89.48 C57.18,91.76 56.56,94.5 56.56,97.7 L56.56,97.7 L56.56,98.66 C56.56,101.86 57.18,104.6 58.42,106.88 C59.66,109.16 61.32,110.89 63.4,112.07 C65.48,113.25 67.72,113.84 70.12,113.84 Z M72.16,107.84 C69.68,107.84 67.61,107.03 65.95,105.41 C64.29,103.79 63.46,101.48 63.46,98.48 L63.46,98.48 L63.46,97.88 C63.46,94.84 64.29,92.52 65.95,90.92 C67.61,89.32 69.68,88.52 72.16,88.52 C74.68,88.52 76.75,89.32 78.37,90.92 C79.99,92.52 80.8,94.84 80.8,97.88 L80.8,97.88 L80.8,98.48 C80.8,101.48 79.98,103.79 78.34,105.41 C76.7,107.03 74.64,107.84 72.16,107.84 Z M103.24,113 L103.24,95.42 C103.24,93.22 103.76,91.53 104.8,90.35 C105.84,89.17 107.28,88.58 109.12,88.58 C110.76,88.58 112.04,89.03 112.96,89.93 C113.88,90.83 114.34,92.14 114.34,93.86 L114.34,93.86 L114.34,113 L121.18,113 L121.18,95.42 C121.18,93.22 121.71,91.53 122.77,90.35 C123.83,89.17 125.26,88.58 127.06,88.58 C128.7,88.58 129.98,89.03 130.9,89.93 C131.82,90.83 132.28,92.14 132.28,93.86 L132.28,93.86 L132.28,113 L139.18,113 L139.18,93.38 C139.18,91.06 138.73,89.12 137.83,87.56 C136.93,86 135.73,84.82 134.23,84.02 C132.73,83.22 131.06,82.82 129.22,82.82 C126.86,82.82 125.04,83.26 123.76,84.14 C122.48,85.02 121.5,86.14 120.82,87.5 L120.82,87.5 L119.86,87.5 C119.18,86.14 118.18,85.02 116.86,84.14 C115.54,83.26 113.8,82.82 111.64,82.82 C109.6,82.82 107.97,83.21 106.75,83.99 C105.53,84.77 104.66,85.66 104.14,86.66 L104.14,86.66 L103.12,86.66 L103.12,83.36 L96.34,83.36 L96.34,113 L103.24,113 Z M151.06,79.58 C152.38,79.58 153.47,79.17 154.33,78.35 C155.19,77.53 155.62,76.44 155.62,75.08 C155.62,73.72 155.19,72.63 154.33,71.81 C153.47,70.99 152.38,70.58 151.06,70.58 C149.82,70.58 148.75,70.99 147.85,71.81 C146.95,72.63 146.5,73.72 146.5,75.08 C146.5,76.44 146.95,77.53 147.85,78.35 C148.75,79.17 149.82,79.58 151.06,79.58 Z M154.54,113 L154.54,83.36 L147.64,83.36 L147.64,113 L154.54,113 Z M170.2,113 L170.2,98 C170.2,95 170.9,92.69 172.3,91.07 C173.7,89.45 175.62,88.64 178.06,88.64 C180.22,88.64 181.89,89.23 183.07,90.41 C184.25,91.59 184.84,93.38 184.84,95.78 L184.84,95.78 L184.84,113 L191.74,113 L191.74,95.24 C191.74,92.72 191.25,90.54 190.27,88.7 C189.29,86.86 187.92,85.42 186.16,84.38 C184.4,83.34 182.38,82.82 180.1,82.82 C177.34,82.82 175.28,83.32 173.92,84.32 C172.56,85.32 171.62,86.38 171.1,87.5 L171.1,87.5 L170.08,87.5 L170.08,83.36 L163.3,83.36 L163.3,113 L170.2,113 Z M22.024,155.336 C22.504,155.336 22.896,155.184 23.2,154.88 C23.504,154.576 23.656,154.184 23.656,153.704 C23.656,153.224 23.504,152.832 23.2,152.528 C22.896,152.224 22.504,152.072 22.024,152.072 C21.56,152.072 21.172,152.224 20.86,152.528 C20.548,152.832 20.392,153.224 20.392,153.704 C20.392,154.184 20.548,154.576 20.86,154.88 C21.172,155.184 21.56,155.336 22.024,155.336 Z M32.032,155.336 C33.248,155.336 34.192,155.104 34.864,154.64 C35.536,154.176 36.032,153.648 36.352,153.056 L36.352,153.056 L36.688,153.056 L36.688,155 L38.536,155 L38.536,138.2 L36.64,138.2 L36.64,145.112 L36.304,145.112 C36.112,144.744 35.84,144.396 35.488,144.068 C35.136,143.74 34.676,143.468 34.108,143.252 C33.54,143.036 32.848,142.928 32.032,142.928 C31.008,142.928 30.076,143.172 29.236,143.66 C28.396,144.148 27.728,144.844 27.232,145.748 C26.736,146.652 26.488,147.728 26.488,148.976 L26.488,148.976 L26.488,149.288 C26.488,150.536 26.736,151.616 27.232,152.528 C27.728,153.44 28.4,154.136 29.248,154.616 C30.096,155.096 31.024,155.336 32.032,155.336 Z M32.536,153.656 C31.336,153.656 30.348,153.268 29.572,152.492 C28.796,151.716 28.408,150.632 28.408,149.24 L28.408,149.24 L28.408,149.024 C28.408,147.632 28.796,146.548 29.572,145.772 C30.348,144.996 31.336,144.608 32.536,144.608 C33.752,144.608 34.74,144.996 35.5,145.772 C36.26,146.548 36.64,147.632 36.64,149.024 L36.64,149.024 L36.64,149.24 C36.64,150.632 36.26,151.716 35.5,152.492 C34.74,153.268 33.752,153.656 32.536,153.656 Z M43.48,141.44 C43.896,141.44 44.24,141.304 44.512,141.032 C44.784,140.76 44.92,140.416 44.92,140 C44.92,139.568 44.784,139.216 44.512,138.944 C44.24,138.672 43.896,138.536 43.48,138.536 C43.064,138.536 42.716,138.672 42.436,138.944 C42.156,139.216 42.016,139.568 42.016,140 C42.016,140.416 42.156,140.76 42.436,141.032 C42.716,141.304 43.064,141.44 43.48,141.44 Z M44.416,155 L44.416,143.264 L42.52,143.264 L42.52,155 L44.416,155 Z M57.76,159.8 C58.432,159.8 58.944,159.616 59.296,159.248 C59.648,158.88 59.824,158.376 59.824,157.736 L59.824,157.736 L59.824,143.264 L58.024,143.264 L58.024,145.208 L57.688,145.208 C57.368,144.632 56.876,144.108 56.212,143.636 C55.548,143.164 54.6,142.928 53.368,142.928 C52.36,142.928 51.432,143.168 50.584,143.648 C49.736,144.128 49.064,144.808 48.568,145.688 C48.072,146.568 47.824,147.624 47.824,148.856 L47.824,148.856 L47.824,149.192 C47.824,150.408 48.072,151.46 48.568,152.348 C49.064,153.236 49.736,153.92 50.584,154.4 C51.432,154.88 52.36,155.12 53.368,155.12 C54.2,155.12 54.896,155.012 55.456,154.796 C56.016,154.58 56.472,154.304 56.824,153.968 C57.176,153.632 57.448,153.288 57.64,152.936 L57.64,152.936 L57.976,152.936 L57.976,157.4 C57.976,157.88 57.736,158.12 57.256,158.12 L57.256,158.12 L49.792,158.12 L49.792,159.8 L57.76,159.8 Z M53.872,153.44 C52.672,153.44 51.684,153.056 50.908,152.288 C50.132,151.52 49.744,150.464 49.744,149.12 L49.744,149.12 L49.744,148.928 C49.744,147.568 50.132,146.508 50.908,145.748 C51.684,144.988 52.672,144.608 53.872,144.608 C55.088,144.608 56.076,144.988 56.836,145.748 C57.596,146.508 57.976,147.568 57.976,148.928 L57.976,148.928 L57.976,149.12 C57.976,150.464 57.596,151.52 56.836,152.288 C56.076,153.056 55.088,153.44 53.872,153.44 Z M64.768,141.44 C65.184,141.44 65.528,141.304 65.8,141.032 C66.072,140.76 66.208,140.416 66.208,140 C66.208,139.568 66.072,139.216 65.8,138.944 C65.528,138.672 65.184,138.536 64.768,138.536 C64.352,138.536 64.004,138.672 63.724,138.944 C63.444,139.216 63.304,139.568 63.304,140 C63.304,140.416 63.444,140.76 63.724,141.032 C64.004,141.304 64.352,141.44 64.768,141.44 Z M65.704,155 L65.704,143.264 L63.808,143.264 L63.808,155 L65.704,155 Z M77.128,155 L77.128,153.368 L74.512,153.368 C74.048,153.368 73.816,153.128 73.816,152.648 L73.816,152.648 L73.816,144.92 L77.656,144.92 L77.656,143.264 L73.816,143.264 L73.816,139.088 L71.92,139.088 L71.92,143.264 L68.392,143.264 L68.392,144.92 L71.92,144.92 L71.92,152.936 C71.92,153.576 72.1,154.08 72.46,154.448 C72.82,154.816 73.336,155 74.008,155 L74.008,155 L77.128,155 Z M84.328,155.336 C85.144,155.336 85.808,155.228 86.32,155.012 C86.832,154.796 87.236,154.524 87.532,154.196 C87.828,153.868 88.064,153.552 88.24,153.248 L88.24,153.248 L88.528,153.248 L88.528,153.368 C88.528,153.864 88.688,154.26 89.008,154.556 C89.328,154.852 89.752,155 90.28,155 L90.28,155 L91.936,155 L91.936,153.392 L90.856,153.392 C90.408,153.392 90.184,153.152 90.184,152.672 L90.184,152.672 L90.184,147.368 C90.184,145.96 89.768,144.868 88.936,144.092 C88.104,143.316 86.936,142.928 85.432,142.928 C84.456,142.928 83.62,143.092 82.924,143.42 C82.228,143.748 81.672,144.18 81.256,144.716 C80.84,145.252 80.536,145.848 80.344,146.504 L80.344,146.504 L82.12,147.08 C82.312,146.312 82.672,145.7 83.2,145.244 C83.728,144.788 84.464,144.56 85.408,144.56 C86.368,144.56 87.092,144.8 87.58,145.28 C88.068,145.76 88.312,146.416 88.312,147.248 L88.312,147.248 L88.312,148.112 L84.352,148.112 C83.52,148.112 82.768,148.244 82.096,148.508 C81.424,148.772 80.896,149.164 80.512,149.684 C80.128,150.204 79.936,150.864 79.936,151.664 C79.936,152.448 80.128,153.112 80.512,153.656 C80.896,154.2 81.424,154.616 82.096,154.904 C82.768,155.192 83.512,155.336 84.328,155.336 Z M84.544,153.704 C83.744,153.704 83.092,153.52 82.588,153.152 C82.084,152.784 81.832,152.272 81.832,151.616 C81.832,150.96 82.076,150.468 82.564,150.14 C83.052,149.812 83.672,149.648 84.424,149.648 L84.424,149.648 L88.312,149.648 L88.312,149.912 C88.312,151.112 87.964,152.044 87.268,152.708 C86.572,153.372 85.664,153.704 84.544,153.704 Z M96.424,155 L96.424,138.2 L94.528,138.2 L94.528,155 L96.424,155 Z" id="admin.digital" fill="#FFFFFF" fill-rule="nonzero"></path>
        <g id="Pixels" transform="translate(167.000000, 132.000000)" fill="#FFFFFF">
            <g id="Group">
                <rect id="Rectangle" x="0" y="0" width="3" height="3"></rect>
                <rect id="Rectangle" x="5" y="0" width="3" height="3"></rect>
                <rect id="Rectangle" x="5" y="5" width="3" height="3"></rect>
                <rect id="Rectangle" x="0" y="5" width="3" height="3"></rect>
            </g>
            <g id="Group" transform="translate(0.000000, 10.000000)">
                <rect id="Rectangle" x="0" y="0" width="3" height="3"></rect>
                <rect id="Rectangle" x="5" y="0" width="3" height="3"></rect>
                <rect id="Rectangle" x="5" y="5" width="3" height="3"></rect>
                <rect id="Rectangle" x="0" y="5" width="3" height="3"></rect>
            </g>
        </g>
        <g id="Group" transform="translate(187.000000, 132.000000)" fill="#FFFFFF">
            <rect id="Rectangle" x="0" y="0" width="3" height="3"></rect>
            <rect id="Rectangle" x="5" y="0" width="3" height="3"></rect>
            <rect id="Rectangle" x="5" y="5" width="3" height="3"></rect>
            <rect id="Rectangle" x="0" y="5" width="3" height="3"></rect>
        </g>
        <g id="Group" transform="translate(177.000000, 142.000000)" fill="#FFFFFF">
            <rect id="Rectangle" x="0" y="0" width="3" height="3"></rect>
            <rect id="Rectangle" x="5" y="0" width="3" height="3"></rect>
            <rect id="Rectangle" x="5" y="5" width="3" height="3"></rect>
            <rect id="Rectangle" x="0" y="5" width="3" height="3"></rect>
        </g>
        <g id="Group" transform="translate(157.000000, 142.000000)" fill="#FFFFFF">
            <rect id="Rectangle" x="0" y="0" width="3" height="3"></rect>
            <rect id="Rectangle" x="5" y="0" width="3" height="3"></rect>
            <rect id="Rectangle" x="5" y="5" width="3" height="3"></rect>
            <rect id="Rectangle" x="0" y="5" width="3" height="3"></rect>
        </g>
        <g id="Group" transform="translate(167.000000, 152.000000)" fill="#FFFFFF">
            <rect id="Rectangle" x="0" y="0" width="3" height="3"></rect>
            <rect id="Rectangle" x="5" y="0" width="3" height="3"></rect>
            <rect id="Rectangle" x="5" y="5" width="3" height="3"></rect>
            <rect id="Rectangle" x="0" y="5" width="3" height="3"></rect>
        </g>
        <g id="Group" transform="translate(157.000000, 162.000000)" fill="#FFFFFF">
            <rect id="Rectangle" x="0" y="0" width="3" height="3"></rect>
            <rect id="Rectangle" x="5" y="0" width="3" height="3"></rect>
            <rect id="Rectangle" x="5" y="5" width="3" height="3"></rect>
            <rect id="Rectangle" x="0" y="5" width="3" height="3"></rect>
        </g>
    </g>
</svg>