<?xml version="1.0" encoding="UTF-8"?>
<svg width="350px" height="225px" viewBox="0 0 350 225" version="1.1" xmlns="http://www.w3.org/2000/svg" xmlns:xlink="http://www.w3.org/1999/xlink">
    <title>logo-admin-digital</title>
    <g id="logo-admin-digital" stroke="none" stroke-width="1" fill="none" fill-rule="evenodd">
        <rect id="Rectangle" fill="#DC0018" x="63" y="0" width="225" height="225"></rect>
        <path d="M95.56,113.84 C97.64,113.84 99.29,113.55 100.51,112.97 C101.73,112.39 102.64,111.7 103.24,110.9 C103.84,110.1 104.26,109.42 104.5,108.86 L104.5,108.86 L105.52,108.86 L105.52,108.98 C105.52,110.22 105.98,111.2 106.9,111.92 C107.82,112.64 109,113 110.44,113 L110.44,113 L115.3,113 L115.3,107.3 L112.78,107.3 C111.66,107.3 111.1,106.7 111.1,105.5 L111.1,105.5 L111.1,93.86 C111.1,90.18 109.99,87.37 107.77,85.43 C105.55,83.49 102.5,82.52 98.62,82.52 C96.06,82.52 93.9,82.91 92.14,83.69 C90.38,84.47 88.97,85.5 87.91,86.78 C86.85,88.06 86.08,89.48 85.6,91.04 L85.6,91.04 L91.96,93.14 C92.28,91.66 92.95,90.45 93.97,89.51 C94.99,88.57 96.5,88.1 98.5,88.1 C100.54,88.1 102.04,88.59 103,89.57 C103.96,90.55 104.44,91.82 104.44,93.38 L104.44,93.38 L104.44,95.18 L95.86,95.18 C93.66,95.18 91.7,95.53 89.98,96.23 C88.26,96.93 86.91,97.96 85.93,99.32 C84.95,100.68 84.46,102.36 84.46,104.36 C84.46,106.4 84.95,108.12 85.93,109.52 C86.91,110.92 88.24,111.99 89.92,112.73 C91.6,113.47 93.48,113.84 95.56,113.84 Z M96.7,108.2 C95.02,108.2 93.7,107.83 92.74,107.09 C91.78,106.35 91.3,105.38 91.3,104.18 C91.3,102.94 91.76,102 92.68,101.36 C93.6,100.72 94.8,100.4 96.28,100.4 L96.28,100.4 L104.44,100.4 L104.44,101 C104.44,103.2 103.72,104.95 102.28,106.25 C100.84,107.55 98.98,108.2 96.7,108.2 Z M133.12,113.84 C135.92,113.84 138.06,113.35 139.54,112.37 C141.02,111.39 142.12,110.3 142.84,109.1 L142.84,109.1 L143.86,109.1 L143.86,113 L150.58,113 L150.58,71 L143.74,71 L143.74,87.08 L142.72,87.08 C142.28,86.28 141.67,85.54 140.89,84.86 C140.11,84.18 139.08,83.62 137.8,83.18 C136.52,82.74 134.96,82.52 133.12,82.52 C130.68,82.52 128.43,83.11 126.37,84.29 C124.31,85.47 122.66,87.2 121.42,89.48 C120.18,91.76 119.56,94.5 119.56,97.7 L119.56,97.7 L119.56,98.66 C119.56,101.86 120.18,104.6 121.42,106.88 C122.66,109.16 124.32,110.89 126.4,112.07 C128.48,113.25 130.72,113.84 133.12,113.84 Z M135.16,107.84 C132.68,107.84 130.61,107.03 128.95,105.41 C127.29,103.79 126.46,101.48 126.46,98.48 L126.46,98.48 L126.46,97.88 C126.46,94.84 127.29,92.52 128.95,90.92 C130.61,89.32 132.68,88.52 135.16,88.52 C137.68,88.52 139.75,89.32 141.37,90.92 C142.99,92.52 143.8,94.84 143.8,97.88 L143.8,97.88 L143.8,98.48 C143.8,101.48 142.98,103.79 141.34,105.41 C139.7,107.03 137.64,107.84 135.16,107.84 Z M166.24,113 L166.24,95.42 C166.24,93.22 166.76,91.53 167.8,90.35 C168.84,89.17 170.28,88.58 172.12,88.58 C173.76,88.58 175.04,89.03 175.96,89.93 C176.88,90.83 177.34,92.14 177.34,93.86 L177.34,93.86 L177.34,113 L184.18,113 L184.18,95.42 C184.18,93.22 184.71,91.53 185.77,90.35 C186.83,89.17 188.26,88.58 190.06,88.58 C191.7,88.58 192.98,89.03 193.9,89.93 C194.82,90.83 195.28,92.14 195.28,93.86 L195.28,93.86 L195.28,113 L202.18,113 L202.18,93.38 C202.18,91.06 201.73,89.12 200.83,87.56 C199.93,86 198.73,84.82 197.23,84.02 C195.73,83.22 194.06,82.82 192.22,82.82 C189.86,82.82 188.04,83.26 186.76,84.14 C185.48,85.02 184.5,86.14 183.82,87.5 L183.82,87.5 L182.86,87.5 C182.18,86.14 181.18,85.02 179.86,84.14 C178.54,83.26 176.8,82.82 174.64,82.82 C172.6,82.82 170.97,83.21 169.75,83.99 C168.53,84.77 167.66,85.66 167.14,86.66 L167.14,86.66 L166.12,86.66 L166.12,83.36 L159.34,83.36 L159.34,113 L166.24,113 Z M214.06,79.58 C215.38,79.58 216.47,79.17 217.33,78.35 C218.19,77.53 218.62,76.44 218.62,75.08 C218.62,73.72 218.19,72.63 217.33,71.81 C216.47,70.99 215.38,70.58 214.06,70.58 C212.82,70.58 211.75,70.99 210.85,71.81 C209.95,72.63 209.5,73.72 209.5,75.08 C209.5,76.44 209.95,77.53 210.85,78.35 C211.75,79.17 212.82,79.58 214.06,79.58 Z M217.54,113 L217.54,83.36 L210.64,83.36 L210.64,113 L217.54,113 Z M233.2,113 L233.2,98 C233.2,95 233.9,92.69 235.3,91.07 C236.7,89.45 238.62,88.64 241.06,88.64 C243.22,88.64 244.89,89.23 246.07,90.41 C247.25,91.59 247.84,93.38 247.84,95.78 L247.84,95.78 L247.84,113 L254.74,113 L254.74,95.24 C254.74,92.72 254.25,90.54 253.27,88.7 C252.29,86.86 250.92,85.42 249.16,84.38 C247.4,83.34 245.38,82.82 243.1,82.82 C240.34,82.82 238.28,83.32 236.92,84.32 C235.56,85.32 234.62,86.38 234.1,87.5 L234.1,87.5 L233.08,87.5 L233.08,83.36 L226.3,83.36 L226.3,113 L233.2,113 Z M85.024,155.336 C85.504,155.336 85.896,155.184 86.2,154.88 C86.504,154.576 86.656,154.184 86.656,153.704 C86.656,153.224 86.504,152.832 86.2,152.528 C85.896,152.224 85.504,152.072 85.024,152.072 C84.56,152.072 84.172,152.224 83.86,152.528 C83.548,152.832 83.392,153.224 83.392,153.704 C83.392,154.184 83.548,154.576 83.86,154.88 C84.172,155.184 84.56,155.336 85.024,155.336 Z M95.032,155.336 C96.248,155.336 97.192,155.104 97.864,154.64 C98.536,154.176 99.032,153.648 99.352,153.056 L99.352,153.056 L99.688,153.056 L99.688,155 L101.536,155 L101.536,138.2 L99.64,138.2 L99.64,145.112 L99.304,145.112 C99.112,144.744 98.84,144.396 98.488,144.068 C98.136,143.74 97.676,143.468 97.108,143.252 C96.54,143.036 95.848,142.928 95.032,142.928 C94.008,142.928 93.076,143.172 92.236,143.66 C91.396,144.148 90.728,144.844 90.232,145.748 C89.736,146.652 89.488,147.728 89.488,148.976 L89.488,148.976 L89.488,149.288 C89.488,150.536 89.736,151.616 90.232,152.528 C90.728,153.44 91.4,154.136 92.248,154.616 C93.096,155.096 94.024,155.336 95.032,155.336 Z M95.536,153.656 C94.336,153.656 93.348,153.268 92.572,152.492 C91.796,151.716 91.408,150.632 91.408,149.24 L91.408,149.24 L91.408,149.024 C91.408,147.632 91.796,146.548 92.572,145.772 C93.348,144.996 94.336,144.608 95.536,144.608 C96.752,144.608 97.74,144.996 98.5,145.772 C99.26,146.548 99.64,147.632 99.64,149.024 L99.64,149.024 L99.64,149.24 C99.64,150.632 99.26,151.716 98.5,152.492 C97.74,153.268 96.752,153.656 95.536,153.656 Z M106.48,141.44 C106.896,141.44 107.24,141.304 107.512,141.032 C107.784,140.76 107.92,140.416 107.92,140 C107.92,139.568 107.784,139.216 107.512,138.944 C107.24,138.672 106.896,138.536 106.48,138.536 C106.064,138.536 105.716,138.672 105.436,138.944 C105.156,139.216 105.016,139.568 105.016,140 C105.016,140.416 105.156,140.76 105.436,141.032 C105.716,141.304 106.064,141.44 106.48,141.44 Z M107.416,155 L107.416,143.264 L105.52,143.264 L105.52,155 L107.416,155 Z M120.76,159.8 C121.432,159.8 121.944,159.616 122.296,159.248 C122.648,158.88 122.824,158.376 122.824,157.736 L122.824,157.736 L122.824,143.264 L121.024,143.264 L121.024,145.208 L120.688,145.208 C120.368,144.632 119.876,144.108 119.212,143.636 C118.548,143.164 117.6,142.928 116.368,142.928 C115.36,142.928 114.432,143.168 113.584,143.648 C112.736,144.128 112.064,144.808 111.568,145.688 C111.072,146.568 110.824,147.624 110.824,148.856 L110.824,148.856 L110.824,149.192 C110.824,150.408 111.072,151.46 111.568,152.348 C112.064,153.236 112.736,153.92 113.584,154.4 C114.432,154.88 115.36,155.12 116.368,155.12 C117.2,155.12 117.896,155.012 118.456,154.796 C119.016,154.58 119.472,154.304 119.824,153.968 C120.176,153.632 120.448,153.288 120.64,152.936 L120.64,152.936 L120.976,152.936 L120.976,157.4 C120.976,157.88 120.736,158.12 120.256,158.12 L120.256,158.12 L112.792,158.12 L112.792,159.8 L120.76,159.8 Z M116.872,153.44 C115.672,153.44 114.684,153.056 113.908,152.288 C113.132,151.52 112.744,150.464 112.744,149.12 L112.744,149.12 L112.744,148.928 C112.744,147.568 113.132,146.508 113.908,145.748 C114.684,144.988 115.672,144.608 116.872,144.608 C118.088,144.608 119.076,144.988 119.836,145.748 C120.596,146.508 120.976,147.568 120.976,148.928 L120.976,148.928 L120.976,149.12 C120.976,150.464 120.596,151.52 119.836,152.288 C119.076,153.056 118.088,153.44 116.872,153.44 Z M127.768,141.44 C128.184,141.44 128.528,141.304 128.8,141.032 C129.072,140.76 129.208,140.416 129.208,140 C129.208,139.568 129.072,139.216 128.8,138.944 C128.528,138.672 128.184,138.536 127.768,138.536 C127.352,138.536 127.004,138.672 126.724,138.944 C126.444,139.216 126.304,139.568 126.304,140 C126.304,140.416 126.444,140.76 126.724,141.032 C127.004,141.304 127.352,141.44 127.768,141.44 Z M128.704,155 L128.704,143.264 L126.808,143.264 L126.808,155 L128.704,155 Z M140.128,155 L140.128,153.368 L137.512,153.368 C137.048,153.368 136.816,153.128 136.816,152.648 L136.816,152.648 L136.816,144.92 L140.656,144.92 L140.656,143.264 L136.816,143.264 L136.816,139.088 L134.92,139.088 L134.92,143.264 L131.392,143.264 L131.392,144.92 L134.92,144.92 L134.92,152.936 C134.92,153.576 135.1,154.08 135.46,154.448 C135.82,154.816 136.336,155 137.008,155 L137.008,155 L140.128,155 Z M147.328,155.336 C148.144,155.336 148.808,155.228 149.32,155.012 C149.832,154.796 150.236,154.524 150.532,154.196 C150.828,153.868 151.064,153.552 151.24,153.248 L151.24,153.248 L151.528,153.248 L151.528,153.368 C151.528,153.864 151.688,154.26 152.008,154.556 C152.328,154.852 152.752,155 153.28,155 L153.28,155 L154.936,155 L154.936,153.392 L153.856,153.392 C153.408,153.392 153.184,153.152 153.184,152.672 L153.184,152.672 L153.184,147.368 C153.184,145.96 152.768,144.868 151.936,144.092 C151.104,143.316 149.936,142.928 148.432,142.928 C147.456,142.928 146.62,143.092 145.924,143.42 C145.228,143.748 144.672,144.18 144.256,144.716 C143.84,145.252 143.536,145.848 143.344,146.504 L143.344,146.504 L145.12,147.08 C145.312,146.312 145.672,145.7 146.2,145.244 C146.728,144.788 147.464,144.56 148.408,144.56 C149.368,144.56 150.092,144.8 150.58,145.28 C151.068,145.76 151.312,146.416 151.312,147.248 L151.312,147.248 L151.312,148.112 L147.352,148.112 C146.52,148.112 145.768,148.244 145.096,148.508 C144.424,148.772 143.896,149.164 143.512,149.684 C143.128,150.204 142.936,150.864 142.936,151.664 C142.936,152.448 143.128,153.112 143.512,153.656 C143.896,154.2 144.424,154.616 145.096,154.904 C145.768,155.192 146.512,155.336 147.328,155.336 Z M147.544,153.704 C146.744,153.704 146.092,153.52 145.588,153.152 C145.084,152.784 144.832,152.272 144.832,151.616 C144.832,150.96 145.076,150.468 145.564,150.14 C146.052,149.812 146.672,149.648 147.424,149.648 L147.424,149.648 L151.312,149.648 L151.312,149.912 C151.312,151.112 150.964,152.044 150.268,152.708 C149.572,153.372 148.664,153.704 147.544,153.704 Z M159.424,155 L159.424,138.2 L157.528,138.2 L157.528,155 L159.424,155 Z" id="admin.digital" fill="#FFFFFF" fill-rule="nonzero"></path>
        <g id="Pixels" transform="translate(230.000000, 132.000000)" fill="#FFFFFF">
            <g id="Group">
                <rect id="Rectangle" x="0" y="0" width="3" height="3"></rect>
                <rect id="Rectangle" x="5" y="0" width="3" height="3"></rect>
                <rect id="Rectangle" x="5" y="5" width="3" height="3"></rect>
                <rect id="Rectangle" x="0" y="5" width="3" height="3"></rect>
            </g>
            <g id="Group" transform="translate(0.000000, 10.000000)">
                <rect id="Rectangle" x="0" y="0" width="3" height="3"></rect>
                <rect id="Rectangle" x="5" y="0" width="3" height="3"></rect>
                <rect id="Rectangle" x="5" y="5" width="3" height="3"></rect>
                <rect id="Rectangle" x="0" y="5" width="3" height="3"></rect>
            </g>
        </g>
        <g id="Group" transform="translate(250.000000, 132.000000)" fill="#FFFFFF">
            <rect id="Rectangle" x="0" y="0" width="3" height="3"></rect>
            <rect id="Rectangle" x="5" y="0" width="3" height="3"></rect>
            <rect id="Rectangle" x="5" y="5" width="3" height="3"></rect>
            <rect id="Rectangle" x="0" y="5" width="3" height="3"></rect>
        </g>
        <g id="Group" transform="translate(240.000000, 142.000000)" fill="#FFFFFF">
            <rect id="Rectangle" x="0" y="0" width="3" height="3"></rect>
            <rect id="Rectangle" x="5" y="0" width="3" height="3"></rect>
            <rect id="Rectangle" x="5" y="5" width="3" height="3"></rect>
            <rect id="Rectangle" x="0" y="5" width="3" height="3"></rect>
        </g>
        <g id="Group" transform="translate(220.000000, 142.000000)" fill="#FFFFFF">
            <rect id="Rectangle" x="0" y="0" width="3" height="3"></rect>
            <rect id="Rectangle" x="5" y="0" width="3" height="3"></rect>
            <rect id="Rectangle" x="5" y="5" width="3" height="3"></rect>
            <rect id="Rectangle" x="0" y="5" width="3" height="3"></rect>
        </g>
        <g id="Group" transform="translate(230.000000, 152.000000)" fill="#FFFFFF">
            <rect id="Rectangle" x="0" y="0" width="3" height="3"></rect>
            <rect id="Rectangle" x="5" y="0" width="3" height="3"></rect>
            <rect id="Rectangle" x="5" y="5" width="3" height="3"></rect>
            <rect id="Rectangle" x="0" y="5" width="3" height="3"></rect>
        </g>
        <g id="Group" transform="translate(220.000000, 162.000000)" fill="#FFFFFF">
            <rect id="Rectangle" x="0" y="0" width="3" height="3"></rect>
            <rect id="Rectangle" x="5" y="0" width="3" height="3"></rect>
            <rect id="Rectangle" x="5" y="5" width="3" height="3"></rect>
            <rect id="Rectangle" x="0" y="5" width="3" height="3"></rect>
        </g>
    </g>
</svg>